<?xml version="1.0" encoding="utf-8"?>
<!-- Generator: Adobe Illustrator 16.0.0, SVG Export Plug-In . SVG Version: 6.00 Build 0)  -->
<!DOCTYPE svg PUBLIC "-//W3C//DTD SVG 1.1//EN" "http://www.w3.org/Graphics/SVG/1.1/DTD/svg11.dtd">
<svg version="1.1" id="Layer_1" xmlns="http://www.w3.org/2000/svg" xmlns:xlink="http://www.w3.org/1999/xlink" x="0px" y="0px"
	 width="70px" height="70px" viewBox="0 0 70 70" enable-background="new 0 0 70 70" xml:space="preserve">
<g id="Amsterdam_copy_5">
	<circle fill="#E4E2DD" cx="35" cy="34.999" r="35"/>
	<g>
		<circle fill="#E4E2DD" cx="35" cy="35.001" r="30.529"/>
		<path fill="#E4E2DD" d="M35,4.47c-16.86,0-30.529,13.669-30.529,30.531c0,16.86,13.669,30.528,30.529,30.528
			c16.859,0,30.529-13.668,30.529-30.528C65.529,18.139,51.859,4.47,35,4.47L35,4.47z"/>
	</g>
	<polygon fill="#33332B" points="55.966,35 36.775,35 54.854,30.514 54.734,30.237 36.717,35.102 52.922,25.868 52.695,25.497 
		36.521,34.762 49.837,21.566 49.52,21.254 36.71,33.948 45.725,18.476 45.331,18.252 36.05,34.185 40.882,16.316 39.701,16.199 
		34,34.566 34,33.831 34,15.323 34,15.323 34,33.831 34,34.566 29.547,16.199 29.365,16.316 34.324,34.185 25.104,18.252 
		24.745,18.477 33.774,33.949 20.976,21.255 20.658,21.573 33.978,34.772 17.804,25.517 17.58,25.906 33.785,35.179 15.767,30.394 
		15.65,30.514 33.725,35 15.072,35 15.072,35 32.29,35 15.512,39.993 15.63,40.701 33.812,36.006 17.473,45.421 17.701,45.848 
		34,36.532 20.662,49.766 20.983,50.083 34.109,37.076 24.882,52.919 25.274,53.145 34.602,37.133 29.758,55.048 29.684,55.165 
		34,37.307 34,37.876 34,55.852 34,55.852 34,37.876 34,37.307 39.562,55.165 40.373,55.048 35.715,37.133 45.135,53.145 
		45.574,52.919 36.37,37.077 49.507,50.088 49.833,49.771 36.497,36.549 52.801,45.879 53.025,45.484 36.688,36.141 54.871,40.968 
		54.99,39.993 38.211,35 	"/>
	<path fill="#33332B" d="M35.083,8.27c14.739,0,26.731,11.991,26.731,26.73c0,14.738-11.992,26.73-26.731,26.73
		S8.353,49.738,8.353,35C8.353,20.261,20.344,8.27,35.083,8.27 M35.083,4.5c-16.844,0-30.5,13.656-30.5,30.5
		c0,16.846,13.656,30.5,30.5,30.5c16.849,0,30.5-13.654,30.5-30.5C65.583,18.155,51.932,4.5,35.083,4.5L35.083,4.5z"/>
	<path fill="#33332B" d="M35.172,11.316c13.109,0,23.773,10.665,23.773,23.774c0,13.107-10.664,23.771-23.773,23.771
		c-13.108,0-23.773-10.664-23.773-23.771C11.399,21.981,22.063,11.316,35.172,11.316 M35.172,10.059
		c-13.823,0-25.03,11.207-25.03,25.031c0,13.824,11.207,25.029,25.03,25.029c13.823,0,25.031-11.205,25.031-25.029
		C60.203,21.266,48.995,10.059,35.172,10.059L35.172,10.059z"/>
	<circle fill="#33332B" cx="35.36" cy="36" r="4.51"/>
	<g>
		<g>
			<defs>
				<circle id="SVGID_1_" cx="35" cy="35.001" r="30.529"/>
			</defs>
			<clipPath id="SVGID_2_">
				<use xlink:href="#SVGID_1_"  overflow="visible"/>
			</clipPath>
		</g>
		<g>
			<defs>
				<circle id="SVGID_3_" cx="35" cy="35.001" r="30.529"/>
			</defs>
			<defs>
				<path id="SVGID_4_" d="M35,4.47c-16.86,0-30.529,13.669-30.529,30.531c0,16.86,13.669,30.528,30.529,30.528
					c16.859,0,30.529-13.668,30.529-30.528C65.529,18.139,51.859,4.47,35,4.47L35,4.47z"/>
			</defs>
			<clipPath id="SVGID_5_">
				<use xlink:href="#SVGID_3_"  overflow="visible"/>
			</clipPath>
			<clipPath id="SVGID_6_" clip-path="url(#SVGID_5_)">
				<use xlink:href="#SVGID_4_"  overflow="visible"/>
			</clipPath>
			<g clip-path="url(#SVGID_6_)">
				<path fill="#33332B" d="M35.119,37.201c-0.357,0-0.717-0.111-1.027-0.34C33.317,36.285,15.108,22.529,14.577,0.74
					c-0.023-0.953,0.73-1.747,1.685-1.769c1-0.052,1.746,0.731,1.769,1.685c0.488,20.073,17.943,33.299,18.121,33.43
					c0.766,0.569,0.923,1.65,0.354,2.416C36.167,36.958,35.646,37.201,35.119,37.201z"/>
				<path fill="#E4E2DD" d="M35.119,37.701c-0.478,0-0.936-0.151-1.324-0.438C33.011,36.68,14.613,22.752,14.077,0.752
					c-0.014-0.596,0.205-1.161,0.616-1.592c0.41-0.43,0.963-0.675,1.557-0.688l0.105-0.002c1.19,0,2.146,0.955,2.176,2.175
					c0.482,19.826,17.744,32.911,17.918,33.041c0.984,0.731,1.189,2.128,0.459,3.115C36.486,37.364,35.818,37.701,35.119,37.701z
					 M16.355-0.531c-0.409,0.01-0.713,0.146-0.938,0.381C15.19,0.088,15.07,0.4,15.078,0.728
					C15.601,22.247,33.623,35.891,34.39,36.46c0.531,0.392,1.322,0.271,1.715-0.257c0.402-0.542,0.289-1.312-0.252-1.715
					c-0.179-0.132-17.828-13.479-18.322-33.819C17.514-0.015,17.009-0.531,16.355-0.531z"/>
			</g>
		</g>
	</g>
	<path fill="#E4E2DD" d="M34.289,36.716l1.884-2.211c0,0,0.75,0.405,0.75,0.612s-0.376,1.261-0.376,1.261l-0.791,0.824"/>
</g>
</svg>
