<?xml version="1.0" encoding="utf-8"?>
<!-- Generator: Adobe Illustrator 16.0.0, SVG Export Plug-In . SVG Version: 6.00 Build 0)  -->
<!DOCTYPE svg PUBLIC "-//W3C//DTD SVG 1.1//EN" "http://www.w3.org/Graphics/SVG/1.1/DTD/svg11.dtd">
<svg version="1.1" xmlns="http://www.w3.org/2000/svg" xmlns:xlink="http://www.w3.org/1999/xlink" x="0px" y="0px" width="70px"
	 height="70px" viewBox="0 0 70 70" enable-background="new 0 0 70 70" xml:space="preserve">

<g id="Berlin">
	<circle fill="#E4E2DD" cx="35" cy="34.999" r="35"/>
	<circle fill="none" stroke="#33332B" stroke-width="1.5" stroke-miterlimit="10" cx="35" cy="34.999" r="30.5"/>
	<path fill="#33332B" d="M41.528,23.069c0.287-3.062-2.732-5.38-6.529-5.38c-3.798,0-6.53,2.318-6.53,5.38v6.914
		c0,2.697,2.727,3.856,6.524,3.856c3.796,0,6.35-1.159,6.603-3.856L41.528,23.069z"/>
	<circle fill="#33332B" cx="35" cy="42.875" r="14.863"/>
	<path fill="#E4E2DD" d="M34.937,36.863c-7.269,0-14.412,5.103-12.98,12.396c0.537,2.736,2.156,4.123,3.396,6.031
		c-0.84-1.562-2.063-2.533-2.462-4.605c-1.312-6.812,5.188-11.742,12.046-11.742"/>
	<path fill="#E4E2DD" d="M35,33.062v-0.011c0,0,0.045,0.005,0,0.006c-0.045-0.001,0-0.006,0-0.006V33.062
		c-8.893,0.117-15.538,5.353-14.372,13.113c0.379,2.53,1.226,4.903,2.609,6.923c-0.937-1.655-1.623-3.507-1.916-5.463
		c-1.105-7.36,5.905-12.318,13.502-12.376c7.596,0.058,14.617,5.016,13.51,12.376c-0.294,1.956-0.942,3.808-1.879,5.463
		c1.383-2.02,2.342-4.393,2.722-6.923C50.342,38.415,42.623,33.179,35,33.062z"/>
	<path fill="#E4E2DD" d="M34.666,36.863c7.27,0,14.413,5.103,12.98,12.396c-0.538,2.736-2.155,4.123-3.396,6.031
		c0.841-1.562,2.062-2.533,2.463-4.605c1.312-6.812-5.189-11.742-12.047-11.742"/>
	<path fill="#33332B" d="M35,54.082c-3.706,0-6.8,2.317-6.52,5.38c0.247,2.697,2.813,3.856,6.52,3.856s6.273-1.159,6.521-3.856
		C41.8,56.399,38.706,54.082,35,54.082z"/>
	<polyline fill="#33332B" points="41.353,56.403 41.353,60.056 28.488,60.056 	"/>
	<g>
		<defs>
			<circle id="SVGID_59_" cx="35" cy="42.875" r="14.863"/>
		</defs>
		<clipPath id="SVGID_60_">
			<use xlink:href="#SVGID_59_"  overflow="visible"/>
		</clipPath>
		<g display="none" clip-path="url(#SVGID_60_)">
			<g display="inline">
				<path fill="none" stroke="#FF0000" stroke-width="0.25" stroke-miterlimit="10" d="M33.273,28.293c0,0-1.628,0.337,1.211,19.693
					"/>
				<path fill="none" stroke="#FF0000" stroke-width="0.25" stroke-miterlimit="10" d="M30.275,29.087c0,0-2.382,5.002,3.136,19.117
					"/>
				<path fill="none" stroke="#FF0000" stroke-width="0.25" stroke-miterlimit="10" d="M27.734,30.358c0,0-3.354,5.181,4.725,18.323
					"/>
				<path fill="none" stroke="#FF0000" stroke-width="0.25" stroke-miterlimit="10" d="M25.403,32.008c0,0-3.664,5.854,6.222,17.288
					"/>
				<path fill="none" stroke="#FF0000" stroke-width="0.25" stroke-miterlimit="10" d="M23.049,34.447c0,0-3.097,6.372,7.841,15.444
					"/>
				<path fill="none" stroke="#FF0000" stroke-width="0.25" stroke-miterlimit="10" d="M20.707,37.763c0,0,0,7.901,9.812,13.066"/>
				<path fill="none" stroke="#FF0000" stroke-width="0.25" stroke-miterlimit="10" d="M20.151,42.428c0,0,1.35,6.015,10.367,9.229"
					/>
				<g>
					<path fill="none" stroke="#FF0000" stroke-width="0.25" stroke-miterlimit="10" d="M20.389,46.001c0,0,1.588,3.691,9.688,6.353
						"/>
				</g>
				<g>
					<path fill="none" stroke="#FF0000" stroke-width="0.25" stroke-miterlimit="10" d="M20.389,47.634c0,0,2.462,4.045,9.688,5.102
						"/>
				</g>
				<g>
					<path fill="none" stroke="#FF0000" stroke-width="0.25" stroke-miterlimit="10" d="M32.002,28.293c0,0-2.7,2.7,1.985,19.693"/>
					<path fill="none" stroke="#FF0000" stroke-width="0.25" stroke-miterlimit="10" d="M29.005,29.087c0,0-2.958,5.3,3.852,19.415"
						/>
					<path fill="none" stroke="#FF0000" stroke-width="0.25" stroke-miterlimit="10" d="M26.484,30.993
						c0,0-3.494,6.689,5.593,17.878"/>
					<path fill="none" stroke="#FF0000" stroke-width="0.25" stroke-miterlimit="10" d="M24.36,32.938c0,0-3.712,6.849,6.82,16.74"
						/>
					<path fill="none" stroke="#FF0000" stroke-width="0.25" stroke-miterlimit="10" d="M22.255,36.135
						c0,0-2.858,6.471,8.516,14.187"/>
					<path fill="none" stroke="#FF0000" stroke-width="0.25" stroke-miterlimit="10" d="M20.489,40.481
						c0,0,0.218,5.956,10.03,10.667"/>
					<g>
						<path fill="none" stroke="#FF0000" stroke-width="0.25" stroke-miterlimit="10" d="M20.013,44.075
							c0,0,0.457,4.149,10.342,7.979"/>
					</g>
					<g>
						<path fill="none" stroke="#FF0000" stroke-width="0.25" stroke-miterlimit="10" d="M20.157,48.591c0,0,2.681,3.902,9.954,4.56
							"/>
					</g>
					<g>
						<path fill="none" stroke="#FF0000" stroke-width="0.25" stroke-miterlimit="10" d="M20.389,46.999
							c0,0,2.542,3.727,9.787,5.553"/>
					</g>
				</g>
			</g>
			<g display="inline">
				<path fill="none" stroke="#FF0000" stroke-width="0.25" stroke-miterlimit="10" d="M36.728,28.293c0,0,1.628,0.337-1.211,19.693
					"/>
				<path fill="none" stroke="#FF0000" stroke-width="0.25" stroke-miterlimit="10" d="M39.725,29.087c0,0,2.382,5.002-3.137,19.117
					"/>
				<path fill="none" stroke="#FF0000" stroke-width="0.25" stroke-miterlimit="10" d="M42.266,30.358c0,0,3.355,5.181-4.725,18.323
					"/>
				<path fill="none" stroke="#FF0000" stroke-width="0.25" stroke-miterlimit="10" d="M44.597,32.008c0,0,3.664,5.854-6.223,17.288
					"/>
				<path fill="none" stroke="#FF0000" stroke-width="0.25" stroke-miterlimit="10" d="M46.95,34.447c0,0,3.097,6.372-7.842,15.444"
					/>
				<path fill="none" stroke="#FF0000" stroke-width="0.25" stroke-miterlimit="10" d="M48.678,38.298c0,0,1.171,6.531-9.196,12.531
					"/>
				<path fill="none" stroke="#FF0000" stroke-width="0.25" stroke-miterlimit="10" d="M49.531,42.309c0,0-1.032,6.134-10.05,9.349"
					/>
				<g>
					<path fill="none" stroke="#FF0000" stroke-width="0.25" stroke-miterlimit="10" d="M49.61,46.001c0,0-1.589,3.691-9.688,6.353"
						/>
				</g>
				<g>
					<path fill="none" stroke="#FF0000" stroke-width="0.25" stroke-miterlimit="10" d="M49.61,47.634c0,0-2.462,4.045-9.688,5.102"
						/>
				</g>
				<g>
					<path fill="none" stroke="#FF0000" stroke-width="0.25" stroke-miterlimit="10" d="M37.998,28.293c0,0,2.699,2.7-1.985,19.693"
						/>
					<path fill="none" stroke="#FF0000" stroke-width="0.25" stroke-miterlimit="10" d="M40.995,29.087c0,0,2.958,5.3-3.852,19.415"
						/>
					<path fill="none" stroke="#FF0000" stroke-width="0.25" stroke-miterlimit="10" d="M43.516,30.993
						c0,0,3.494,6.689-5.593,17.878"/>
					<path fill="none" stroke="#FF0000" stroke-width="0.25" stroke-miterlimit="10" d="M45.641,32.938c0,0,3.712,6.849-6.821,16.74
						"/>
					<path fill="none" stroke="#FF0000" stroke-width="0.25" stroke-miterlimit="10" d="M47.744,36.135
						c0,0,2.858,6.471-8.516,14.187"/>
					<path fill="none" stroke="#FF0000" stroke-width="0.25" stroke-miterlimit="10" d="M49.131,40.304
						c0,0,1.229,5.652-9.649,10.845"/>
					<g>
						<path fill="none" stroke="#FF0000" stroke-width="0.25" stroke-miterlimit="10" d="M49.531,44.492
							c0,0-0.874,4.605-9.887,7.562"/>
					</g>
					<g>
						<path fill="none" stroke="#FF0000" stroke-width="0.25" stroke-miterlimit="10" d="M49.844,48.591c0,0-2.683,3.902-9.956,4.56
							"/>
					</g>
					<g>
						<path fill="none" stroke="#FF0000" stroke-width="0.25" stroke-miterlimit="10" d="M49.61,46.999c0,0-2.541,3.727-9.786,5.553
							"/>
					</g>
				</g>
			</g>
		</g>
		
			<line clip-path="url(#SVGID_60_)" fill="none" stroke="#33332B" stroke-miterlimit="10" x1="35" y1="28.167" x2="35" y2="49.766"/>
		<path clip-path="url(#SVGID_60_)" fill="none" stroke="#33332B" stroke-miterlimit="10" d="M31.308,28.253
			c0,0-1.112,6.393,3.176,19.733"/>
		<path clip-path="url(#SVGID_60_)" fill="none" stroke="#33332B" stroke-miterlimit="10" d="M28.291,29.286
			c0,0-1.231,7.702,5.121,18.918"/>
		<path clip-path="url(#SVGID_60_)" fill="none" stroke="#33332B" stroke-miterlimit="10" d="M25.948,30.794
			c0,0-1.707,8.337,6.511,17.886"/>
		<path clip-path="url(#SVGID_60_)" fill="none" stroke="#33332B" stroke-miterlimit="10" d="M23.208,32.899
			c0,0-1.469,9.45,8.417,16.397"/>
		<path clip-path="url(#SVGID_60_)" fill="none" stroke="#33332B" stroke-miterlimit="10" d="M20.985,37.227
			c0,0-0.278,8.438,9.533,13.603"/>
		<path clip-path="url(#SVGID_60_)" fill="none" stroke="#33332B" stroke-miterlimit="10" d="M19.667,42.667c0,0,1,6.25,10.852,8.99
			"/>
		<g clip-path="url(#SVGID_60_)">
			<path fill="none" stroke="#33332B" stroke-miterlimit="10" d="M20.389,47.634c0,0,2.462,4.045,9.688,5.102"/>
		</g>
		<path clip-path="url(#SVGID_60_)" fill="none" stroke="#33332B" stroke-miterlimit="10" d="M38.691,28.253
			c0,0,1.112,6.393-3.175,19.733"/>
		<path clip-path="url(#SVGID_60_)" fill="none" stroke="#33332B" stroke-miterlimit="10" d="M41.709,29.286
			c0,0,1.231,7.702-5.121,18.918"/>
		<path clip-path="url(#SVGID_60_)" fill="none" stroke="#33332B" stroke-miterlimit="10" d="M44.053,30.794
			c0,0,1.707,8.337-6.512,17.886"/>
		<path clip-path="url(#SVGID_60_)" fill="none" stroke="#33332B" stroke-miterlimit="10" d="M46.791,32.899
			c0,0,1.469,9.45-8.416,16.397"/>
		<path clip-path="url(#SVGID_60_)" fill="none" stroke="#33332B" stroke-miterlimit="10" d="M49.015,37.227
			c0,0,0.278,8.438-9.533,13.603"/>
		<path clip-path="url(#SVGID_60_)" fill="none" stroke="#33332B" stroke-miterlimit="10" d="M50.334,42.667c0,0-1,6.25-10.853,8.99
			"/>
		<g clip-path="url(#SVGID_60_)">
			<path fill="none" stroke="#33332B" stroke-miterlimit="10" d="M49.611,47.634c0,0-2.463,4.045-9.688,5.102"/>
		</g>
	</g>
	<path fill="#E4E2DD" d="M39.923,53.39c0,2.58-2.203,4.67-4.925,4.67c-2.719,0-4.923-2.09-4.923-4.67
		c0-2.572,2.205-4.663,4.923-4.663C37.72,48.727,39.923,50.817,39.923,53.39z"/>
	<path fill="#33332B" d="M41.528,56.731c0.287-3.062-2.732-5.38-6.529-5.38c-3.798,0-6.53,2.318-6.53,5.38v2.73
		c0,2.697,2.727,3.856,6.524,3.856c3.796,0,6.35-1.159,6.603-3.856L41.528,56.731z"/>
	<g id="tcAyc4_1_" display="none" opacity="0.3">
		
			<image display="inline" overflow="visible" width="900" height="1200" id="tcAyc4" xlink:href="DACA8DDFF899B450.jpg"  transform="matrix(0.051 0 0 0.051 12.1714 0.6475)">
		</image>
	</g>
</g>
</svg>
