<?xml version="1.0" encoding="utf-8"?>
<!-- Generator: Adobe Illustrator 16.0.0, SVG Export Plug-In . SVG Version: 6.00 Build 0)  -->
<!DOCTYPE svg PUBLIC "-//W3C//DTD SVG 1.1//EN" "http://www.w3.org/Graphics/SVG/1.1/DTD/svg11.dtd">
<svg version="1.1" xmlns="http://www.w3.org/2000/svg" xmlns:xlink="http://www.w3.org/1999/xlink" x="0px" y="0px" width="70px"
	 height="70px" viewBox="0 0 70 70" enable-background="new 0 0 70 70" xml:space="preserve">


<g id="Chicago_1_">
	<circle fill="#f2f2ed" cx="35" cy="35" r="35"/>
	<circle fill="#f2f2ed" cx="34.842" cy="35" r="30.53"/>
	<path fill="#33332B" d="M34.842,4.469C17.98,4.469,4.312,18.138,4.312,35c0,16.861,13.668,30.529,30.53,30.529
		c16.86,0,30.529-13.668,30.529-30.529C65.371,18.138,51.702,4.469,34.842,4.469L34.842,4.469z"/>
	<path fill="#f2f2ed" d="M29.959,24.678c-0.129-0.048-0.231-0.069-0.31-0.069c-0.583,0,0.068,1.145,0.068,1.145
		c0.43,0.646,0.803,1.18,1.146,1.631c0.628-0.404,1.25-0.831,1.816-1.239C31.477,25.564,30.596,24.911,29.959,24.678z"/>
	<path fill="#f2f2ed" d="M29.649,23.609c0.204,0,0.419,0.043,0.653,0.129c0.414,0.151,0.85,0.408,1.354,0.706
		c0.562,0.331,1.198,0.706,1.94,1.023c0.888-0.679,1.504-1.217,1.558-1.364c0.125-0.335-0.36-0.803-1.045-1.501l-0.513-0.536
		c-0.091-0.099-0.183-0.199-0.276-0.303c-1.054-1.191-2.354,0.624-3.244,1.332c-0.21,0.166-0.417,0.341-0.644,0.533
		C29.502,23.616,29.575,23.609,29.649,23.609z"/>
	<path fill="#f2f2ed" d="M44.346,28.614c-0.012-0.135-0.024-0.27-0.035-0.408c-0.113-1.587-2.248-0.936-3.387-0.914
		c-0.148,0.002-0.297,0.007-0.451,0.014c1.17,0.584,2.611,1.235,3.918,1.707L44.346,28.614z"/>
	<path fill="#f2f2ed" d="M28.866,26.279l-0.017-0.03c-0.426-0.749-0.544-1.375-0.354-1.867c-0.632,0.479-1.462,1.043-2.687,1.731
		c-2.533,1.419-4.929,1.225-6.03,1.568c-1.101,0.339,0.462,1.002,0.462,1.002c3.491,1.197,4.444,1.176,6.83,0.621
		c0.755-0.176,1.826-0.717,2.941-1.388c-0.342-0.455-0.71-0.983-1.126-1.607L28.866,26.279z"/>
	<path fill="#f2f2ed" d="M53.898,26.823c-1.144-0.147-3.471,0.455-6.21-0.509c-2.735-0.964-3.725-1.701-4.723-2.24
		c-0.998-0.545-2.592-2.108-3.425-0.754c-0.074,0.119-0.147,0.232-0.221,0.346l-0.413,0.615c-0.555,0.804-0.952,1.348-0.771,1.658
		c0.242,0.419,6.412,3.596,8.856,3.733c2.445,0.14,3.39-0.004,6.622-1.784C53.615,27.89,55.041,26.968,53.898,26.823z"/>
	<path fill="#f2f2ed" d="M38.418,27.345c-0.713-0.021-1.586-0.088-2.717-0.25c-2.875-0.411-4.659-2.021-5.742-2.417
		c-1.081-0.4-0.241,1.076-0.241,1.076c2.044,3.07,2.815,3.635,5.048,4.643c2.232,1.006,9.171,1.04,9.58,0.78
		c0.217-0.137,0.228-0.518,0.171-1.081C42.45,29.406,39.888,28.235,38.418,27.345z"/>
	<path fill="#33332B" d="M54.618,37c0-4-4.785-7.571-10.688-7.571c-2.635,0-5.047,0.724-6.91,1.855
		c-1.941-1.928-5.104-3.06-8.676-3.06C22.441,28.225,17.656,32,17.656,36h15.757c-0.112,0-0.17,1-0.17,1H54.618z"/>
	<path fill="#f2f2ed" d="M36.262,34.833c-1.021-2.38-4.184-4.12-7.917-4.12c-4.556,0-8.262,2.591-8.262,5.775h-1
		c0-3.736,4.155-6.775,9.262-6.775c3.918,0,7.276,1.789,8.627,4.309L36.262,34.833z"/>
	<path fill="#f2f2ed" d="M53.193,37.857h-1c0-3.185-3.707-5.775-8.263-5.775s-8.261,2.591-8.261,5.775h-1
		c0-3.736,4.155-6.775,9.261-6.775C49.038,31.082,53.193,34.122,53.193,37.857z"/>
	
		<rect x="33.108" y="38.776" transform="matrix(-0.7068 0.7074 -0.7074 -0.7068 88.9243 44.8262)" fill="#E5E3DE" stroke="#33332B" stroke-miterlimit="10" width="4.129" height="4.13"/>
	
		<rect x="41.866" y="35.855" transform="matrix(-0.7069 0.7073 -0.7073 -0.7069 101.8059 33.6555)" fill="#E5E3DE" stroke="#33332B" stroke-miterlimit="10" width="4.129" height="4.13"/>
	
		<rect x="36.027" y="35.856" transform="matrix(-0.707 0.7072 -0.7072 -0.707 91.8406 37.7892)" fill="#E5E3DE" stroke="#33332B" stroke-miterlimit="10" width="4.129" height="4.128"/>
	
		<rect x="38.947" y="38.776" transform="matrix(-0.7068 0.7075 -0.7075 -0.7068 98.8893 40.6913)" fill="#E5E3DE" stroke="#33332B" stroke-miterlimit="10" width="4.129" height="4.129"/>
	
		<rect x="30.19" y="35.856" transform="matrix(-0.7068 0.7074 -0.7074 -0.7068 81.8771 41.9062)" fill="#E5E3DE" stroke="#33332B" stroke-miterlimit="10" width="4.13" height="4.129"/>
	
		<rect x="36.028" y="41.694" transform="matrix(-0.7069 0.7073 -0.7073 -0.7069 95.9703 47.7513)" fill="#E5E3DE" stroke="#33332B" stroke-miterlimit="10" width="4.128" height="4.129"/>
	
		<rect x="30.189" y="41.695" transform="matrix(-0.7068 0.7074 -0.7074 -0.7068 86.0075 51.873)" fill="#E5E3DE" stroke="#33332B" stroke-miterlimit="10" width="4.13" height="4.129"/>
	
		<rect x="24.352" y="35.855" transform="matrix(-0.7069 0.7073 -0.7073 -0.7069 71.9119 46.0399)" fill="#E5E3DE" stroke="#33332B" stroke-miterlimit="10" width="4.129" height="4.13"/>
	
		<rect x="27.271" y="38.776" transform="matrix(-0.707 0.7072 -0.7072 -0.707 78.9589 48.968)" fill="#E5E3DE" stroke="#33332B" stroke-miterlimit="10" width="4.129" height="4.129"/>
	<path fill="#33332B" d="M57.392,21.958c-4.285,0-7.788,3.313-8.107,7.516c0,0.005,0.001,0.011,0.001,0.016
		c0,7.857-6.37,14.225-14.227,14.225c-7.653,0-13.978-5.952-14.298-13.525l-0.015-0.094c0-4.495-3.644-8.139-8.138-8.139
		S4.47,25.602,4.47,30.096c0,16.861,13.669,30.529,30.53,30.529c16.86,0,30.529-13.668,30.529-30.529
		C65.529,25.602,61.886,21.958,57.392,21.958z"/>
	<path fill="#E5E3DE" d="M57.392,21.958c4.494,0,8.138,3.644,8.138,8.139c0,16.861-13.669,33.529-30.529,33.529
		c-16.861,0-30.53-16.668-30.53-33.529c0-4.495,3.644-8.139,8.138-8.139s8.138,3.644,8.138,8.139l0.015,0.094
		c0.32,7.573,6.645,13.525,14.298,13.525c7.856,0,14.227-6.368,14.227-14.225c0-0.005-0.001-0.011-0.001-0.016
		C49.604,25.271,53.106,21.958,57.392,21.958 M57.392,19.958c-5.266,0-9.703,4.113-10.102,9.365l-0.006,0.076v0.076v0.092
		l0.001,0.008c-0.046,6.702-5.513,14.142-12.227,14.142c-6.622,0-12.024-7.1-12.3-13.609l-0.004-0.113l-0.01-0.06
		c-0.087-5.515-4.601-9.975-10.137-9.975c-5.59,0-10.138,6.548-10.138,12.139c0,17.936,14.593,30.529,32.53,30.529
		c17.937,0,32.529-12.593,32.529-30.529C67.529,26.506,62.981,19.958,57.392,19.958L57.392,19.958z"/>
	<path fill="#f2f2ed" d="M62.693,44.047c0-3.573-2.286-6.61-5.475-7.732c-0.222-0.598-0.616-1.167-0.969-1.677
		c-0.609-0.883-1.023-1.537-0.778-1.928c0.271-0.447,1.266-0.384,2.225-0.323c1.325,0.083,2.975,0.188,3.729-1.15
		c0.746-1.367-0.283-2.637-1.11-3.658c-0.686-0.848-1.156-1.479-0.953-1.879c0.188-0.37,0.039-0.821-0.33-1.008
		c-0.371-0.188-0.821-0.038-1.008,0.33c-0.657,1.299,0.331,2.52,1.126,3.501c0.739,0.913,1.205,1.544,0.964,1.987
		c-0.267,0.474-1.13,0.458-2.321,0.38c-1.343-0.085-2.861-0.182-3.598,1.034c-0.781,1.248,0.107,2.534,0.822,3.567
		c0.097,0.139,0.188,0.272,0.271,0.399c-0.26-0.025-0.523-0.038-0.79-0.038c-2.987,0-5.593,1.602-7.025,3.989l-0.029-0.016
		c-2.447,4.297-7.07,7.195-12.37,7.195c-5.313,0-9.938-2.916-12.376-7.232l-0.153,0.084c-1.428-2.404-4.043-4.02-7.042-4.02
		c-0.477,0-0.944,0.042-1.399,0.12c-0.522-0.24-1.12-0.379-1.66-0.505c-1.125-0.261-1.868-0.47-1.942-0.967
		c-0.075-0.558,0.592-1.066,1.618-1.778c1.106-0.769,2.361-1.639,2.215-3.052c-0.134-1.48-1.614-1.947-2.804-2.322
		c-1.083-0.341-1.795-0.604-1.826-1.121c-0.024-0.414-0.391-0.732-0.792-0.705c-0.414,0.024-0.729,0.379-0.705,0.792
		c0.093,1.588,1.634,2.073,2.872,2.463c1.037,0.327,1.72,0.575,1.762,1.036c0.056,0.541-0.774,1.117-1.578,1.675
		c-1.092,0.758-2.452,1.702-2.248,3.221c0.204,1.372,1.458,1.819,2.625,2.108c-2.579,1.381-4.333,4.1-4.333,7.23
		c0,1.293,0.308,2.514,0.842,3.602l-0.109,0.059c5.13,9.65,15.286,16.221,26.977,16.221c11.539,0,21.582-6.402,26.772-15.846
		l-0.118-0.07C62.32,46.838,62.693,45.486,62.693,44.047z"/>
	<g>
		<defs>
			<path id="SVGID_1_" d="M62.693,44.047c0-4.527-3.67-8.195-8.195-8.195c-2.987,0-5.593,1.602-7.025,3.988l-0.029-0.016
				c-2.447,4.297-7.07,7.195-12.37,7.195c-5.313,0-9.938-2.916-12.376-7.232l-0.153,0.084c-1.428-2.404-4.043-4.02-7.042-4.02
				c-4.527,0-8.196,3.668-8.196,8.195c0,1.293,0.308,2.514,0.842,3.602l-0.109,0.059c5.13,9.65,15.286,16.221,26.977,16.221
				c11.539,0,21.582-6.402,26.772-15.846l-0.118-0.07C62.32,46.838,62.693,45.486,62.693,44.047z"/>
		</defs>
		<clipPath id="SVGID_2_">
			<use xlink:href="#SVGID_1_"  overflow="visible"/>
		</clipPath>
		<path clip-path="url(#SVGID_2_)" fill="#33332B" d="M35.97,48.707c0,0.283-0.23,0.512-0.516,0.512
			c-0.285,0-0.515-0.229-0.515-0.512c0-0.287,0.229-0.518,0.515-0.518C35.739,48.189,35.97,48.42,35.97,48.707z"/>
		<path clip-path="url(#SVGID_2_)" fill="#33332B" d="M40.093,48.707c0,0.283-0.229,0.512-0.514,0.512
			c-0.286,0-0.518-0.229-0.518-0.512c0-0.287,0.231-0.518,0.518-0.518C39.864,48.189,40.093,48.42,40.093,48.707z"/>
		<path clip-path="url(#SVGID_2_)" fill="#33332B" d="M44.221,48.707c0,0.283-0.232,0.512-0.517,0.512
			c-0.285,0-0.515-0.229-0.515-0.512c0-0.287,0.229-0.518,0.515-0.518C43.988,48.189,44.221,48.42,44.221,48.707z"/>
		<path clip-path="url(#SVGID_2_)" fill="#33332B" d="M48.345,48.707c0,0.283-0.23,0.512-0.515,0.512
			c-0.286,0-0.516-0.229-0.516-0.512c0-0.287,0.229-0.518,0.516-0.518C48.114,48.189,48.345,48.42,48.345,48.707z"/>
		<path clip-path="url(#SVGID_2_)" fill="#33332B" d="M52.471,48.707c0,0.283-0.231,0.512-0.517,0.512
			c-0.284,0-0.517-0.229-0.517-0.512c0-0.287,0.232-0.518,0.517-0.518C52.239,48.189,52.471,48.42,52.471,48.707z"/>
		<path clip-path="url(#SVGID_2_)" fill="#33332B" d="M56.596,48.707c0,0.283-0.23,0.512-0.516,0.512
			c-0.286,0-0.515-0.229-0.515-0.512c0-0.287,0.229-0.518,0.515-0.518C56.365,48.189,56.596,48.42,56.596,48.707z"/>
		<path clip-path="url(#SVGID_2_)" fill="#33332B" d="M60.72,48.707c0,0.283-0.23,0.512-0.514,0.512
			c-0.284,0-0.518-0.229-0.518-0.512c0-0.287,0.233-0.518,0.518-0.518C60.489,48.189,60.72,48.42,60.72,48.707z"/>
		<path clip-path="url(#SVGID_2_)" fill="#33332B" d="M64.846,48.707c0,0.283-0.229,0.512-0.517,0.512
			c-0.284,0-0.513-0.229-0.513-0.512c0-0.287,0.229-0.518,0.513-0.518C64.616,48.189,64.846,48.42,64.846,48.707z"/>
		<path clip-path="url(#SVGID_2_)" fill="#33332B" d="M68.972,48.707c0,0.283-0.231,0.512-0.515,0.512
			c-0.288,0-0.517-0.229-0.517-0.512c0-0.287,0.229-0.518,0.517-0.518C68.74,48.189,68.972,48.42,68.972,48.707z"/>
		<circle clip-path="url(#SVGID_2_)" fill="#33332B" cx="37.517" cy="52.831" r="0.516"/>
		<circle clip-path="url(#SVGID_2_)" fill="#33332B" cx="33.391" cy="52.831" r="0.516"/>
		<circle clip-path="url(#SVGID_2_)" fill="#33332B" cx="41.642" cy="52.831" r="0.516"/>
		<circle clip-path="url(#SVGID_2_)" fill="#33332B" cx="45.767" cy="52.831" r="0.517"/>
		<circle clip-path="url(#SVGID_2_)" fill="#33332B" cx="49.893" cy="52.831" r="0.516"/>
		<circle clip-path="url(#SVGID_2_)" fill="#33332B" cx="54.017" cy="52.831" r="0.515"/>
		<circle clip-path="url(#SVGID_2_)" fill="#33332B" cx="58.142" cy="52.831" r="0.516"/>
		<circle clip-path="url(#SVGID_2_)" fill="#33332B" cx="62.268" cy="52.831" r="0.515"/>
		<circle clip-path="url(#SVGID_2_)" fill="#33332B" cx="66.393" cy="52.831" r="0.516"/>
		<path clip-path="url(#SVGID_2_)" fill="#33332B" d="M71.033,52.831c0,0.283-0.229,0.517-0.517,0.517
			c-0.283,0-0.513-0.233-0.513-0.517c0-0.285,0.229-0.516,0.513-0.516C70.805,52.315,71.033,52.546,71.033,52.831z"/>
		<circle clip-path="url(#SVGID_2_)" fill="#33332B" cx="39.577" cy="56.955" r="0.516"/>
		<circle clip-path="url(#SVGID_2_)" fill="#33332B" cx="43.705" cy="56.955" r="0.516"/>
		<circle clip-path="url(#SVGID_2_)" fill="#33332B" cx="47.83" cy="56.955" r="0.515"/>
		<circle clip-path="url(#SVGID_2_)" fill="#33332B" cx="51.954" cy="56.955" r="0.517"/>
		<circle clip-path="url(#SVGID_2_)" fill="#33332B" cx="56.081" cy="56.955" r="0.515"/>
		<circle clip-path="url(#SVGID_2_)" fill="#33332B" cx="60.204" cy="56.955" r="0.516"/>
		<path clip-path="url(#SVGID_2_)" fill="#33332B" d="M64.846,56.955c0,0.286-0.229,0.516-0.517,0.516
			c-0.284,0-0.513-0.229-0.513-0.516c0-0.284,0.229-0.515,0.513-0.515C64.616,56.44,64.846,56.671,64.846,56.955z"/>
		<circle clip-path="url(#SVGID_2_)" fill="#33332B" cx="35.454" cy="56.956" r="0.515"/>
		<circle clip-path="url(#SVGID_2_)" fill="#33332B" cx="39.577" cy="56.956" r="0.516"/>
		<circle clip-path="url(#SVGID_2_)" fill="#33332B" cx="43.705" cy="56.956" r="0.516"/>
		<circle clip-path="url(#SVGID_2_)" fill="#33332B" cx="47.83" cy="56.956" r="0.515"/>
		<circle clip-path="url(#SVGID_2_)" fill="#33332B" cx="51.954" cy="56.956" r="0.517"/>
		<circle clip-path="url(#SVGID_2_)" fill="#33332B" cx="56.081" cy="56.956" r="0.515"/>
		<circle clip-path="url(#SVGID_2_)" fill="#33332B" cx="60.204" cy="56.956" r="0.516"/>
		<path clip-path="url(#SVGID_2_)" fill="#33332B" d="M64.846,56.956c0,0.285-0.229,0.515-0.517,0.515
			c-0.284,0-0.513-0.229-0.513-0.515c0-0.286,0.229-0.516,0.513-0.516C64.616,56.44,64.846,56.67,64.846,56.956z"/>
		<path clip-path="url(#SVGID_2_)" fill="#33332B" d="M68.972,56.956c0,0.285-0.231,0.515-0.515,0.515
			c-0.288,0-0.517-0.229-0.517-0.515c0-0.286,0.229-0.516,0.517-0.516C68.74,56.44,68.972,56.67,68.972,56.956z"/>
		<circle clip-path="url(#SVGID_2_)" fill="#33332B" cx="37.517" cy="61.083" r="0.516"/>
		<circle clip-path="url(#SVGID_2_)" fill="#33332B" cx="33.391" cy="61.083" r="0.516"/>
		<circle clip-path="url(#SVGID_2_)" fill="#33332B" cx="41.642" cy="61.083" r="0.516"/>
		<circle clip-path="url(#SVGID_2_)" fill="#33332B" cx="45.767" cy="61.083" r="0.517"/>
		<circle clip-path="url(#SVGID_2_)" fill="#33332B" cx="49.893" cy="61.083" r="0.516"/>
		<path clip-path="url(#SVGID_2_)" fill="#33332B" d="M54.531,61.083c0,0.283-0.229,0.515-0.513,0.515
			c-0.286,0-0.517-0.231-0.517-0.515c0-0.285,0.23-0.519,0.517-0.519C54.302,60.564,54.531,60.798,54.531,61.083z"/>
		<circle clip-path="url(#SVGID_2_)" fill="#33332B" cx="58.142" cy="61.083" r="0.516"/>
		<circle clip-path="url(#SVGID_2_)" fill="#33332B" cx="62.268" cy="61.083" r="0.515"/>
		<circle clip-path="url(#SVGID_2_)" fill="#33332B" cx="66.393" cy="61.083" r="0.516"/>
		<path clip-path="url(#SVGID_2_)" fill="#33332B" d="M71.033,61.083c0,0.283-0.229,0.515-0.517,0.515
			c-0.283,0-0.513-0.231-0.513-0.515c0-0.285,0.229-0.519,0.513-0.519C70.805,60.564,71.033,60.798,71.033,61.083z"/>
		<circle clip-path="url(#SVGID_2_)" fill="#33332B" cx="39.577" cy="65.205" r="0.516"/>
		<circle clip-path="url(#SVGID_2_)" fill="#33332B" cx="43.705" cy="65.205" r="0.516"/>
		<circle clip-path="url(#SVGID_2_)" fill="#33332B" cx="47.83" cy="65.205" r="0.515"/>
		<circle clip-path="url(#SVGID_2_)" fill="#33332B" cx="51.954" cy="65.205" r="0.517"/>
		<circle clip-path="url(#SVGID_2_)" fill="#33332B" cx="56.081" cy="65.205" r="0.515"/>
		<circle clip-path="url(#SVGID_2_)" fill="#33332B" cx="60.204" cy="65.205" r="0.516"/>
		<path clip-path="url(#SVGID_2_)" fill="#33332B" d="M64.846,65.205c0,0.286-0.229,0.517-0.517,0.517
			c-0.284,0-0.513-0.23-0.513-0.517c0-0.284,0.229-0.514,0.513-0.514C64.616,64.691,64.846,64.921,64.846,65.205z"/>
		<path clip-path="url(#SVGID_2_)" fill="#33332B" d="M2.969,48.707c0,0.283-0.23,0.512-0.516,0.512
			c-0.285,0-0.515-0.229-0.515-0.512c0-0.287,0.23-0.518,0.515-0.518C2.738,48.189,2.969,48.42,2.969,48.707z"/>
		<path clip-path="url(#SVGID_2_)" fill="#33332B" d="M7.093,48.707c0,0.283-0.229,0.512-0.515,0.512s-0.516-0.229-0.516-0.512
			c0-0.287,0.231-0.518,0.516-0.518S7.093,48.42,7.093,48.707z"/>
		<path clip-path="url(#SVGID_2_)" fill="#33332B" d="M11.219,48.707c0,0.283-0.232,0.512-0.516,0.512
			c-0.285,0-0.514-0.229-0.514-0.512c0-0.287,0.229-0.518,0.514-0.518C10.987,48.189,11.219,48.42,11.219,48.707z"/>
		<path clip-path="url(#SVGID_2_)" fill="#33332B" d="M15.344,48.707c0,0.283-0.23,0.512-0.514,0.512
			c-0.287,0-0.516-0.229-0.516-0.512c0-0.287,0.229-0.518,0.516-0.518C15.113,48.189,15.344,48.42,15.344,48.707z"/>
		<path clip-path="url(#SVGID_2_)" fill="#33332B" d="M19.47,48.707c0,0.283-0.232,0.512-0.517,0.512
			c-0.283,0-0.516-0.229-0.516-0.512c0-0.287,0.233-0.518,0.516-0.518C19.238,48.189,19.47,48.42,19.47,48.707z"/>
		<path clip-path="url(#SVGID_2_)" fill="#33332B" d="M23.595,48.707c0,0.283-0.23,0.512-0.517,0.512
			c-0.285,0-0.514-0.229-0.514-0.512c0-0.287,0.229-0.518,0.514-0.518C23.365,48.189,23.595,48.42,23.595,48.707z"/>
		<path clip-path="url(#SVGID_2_)" fill="#33332B" d="M27.72,48.707c0,0.283-0.231,0.512-0.515,0.512
			c-0.283,0-0.516-0.229-0.516-0.512c0-0.287,0.233-0.518,0.516-0.518C27.489,48.189,27.72,48.42,27.72,48.707z"/>
		<path clip-path="url(#SVGID_2_)" fill="#33332B" d="M31.845,48.707c0,0.283-0.229,0.512-0.517,0.512
			c-0.284,0-0.513-0.229-0.513-0.512c0-0.287,0.229-0.518,0.513-0.518C31.616,48.189,31.845,48.42,31.845,48.707z"/>
		<path clip-path="url(#SVGID_2_)" fill="#33332B" d="M35.97,48.707c0,0.283-0.23,0.512-0.514,0.512
			c-0.288,0-0.516-0.229-0.516-0.512c0-0.287,0.229-0.518,0.516-0.518C35.74,48.189,35.97,48.42,35.97,48.707z"/>
		<circle clip-path="url(#SVGID_2_)" fill="#33332B" cx="4.515" cy="52.831" r="0.516"/>
		<circle clip-path="url(#SVGID_2_)" fill="#33332B" cx="0.39" cy="52.831" r="0.516"/>
		<circle clip-path="url(#SVGID_2_)" fill="#33332B" cx="8.641" cy="52.831" r="0.516"/>
		<circle clip-path="url(#SVGID_2_)" fill="#33332B" cx="12.766" cy="52.831" r="0.516"/>
		<circle clip-path="url(#SVGID_2_)" fill="#33332B" cx="16.892" cy="52.831" r="0.515"/>
		<circle clip-path="url(#SVGID_2_)" fill="#33332B" cx="21.016" cy="52.831" r="0.515"/>
		<circle clip-path="url(#SVGID_2_)" fill="#33332B" cx="25.141" cy="52.831" r="0.517"/>
		<circle clip-path="url(#SVGID_2_)" fill="#33332B" cx="29.267" cy="52.831" r="0.515"/>
		<circle clip-path="url(#SVGID_2_)" fill="#33332B" cx="33.393" cy="52.831" r="0.517"/>
		<path clip-path="url(#SVGID_2_)" fill="#33332B" d="M38.033,52.831c0,0.283-0.229,0.517-0.517,0.517
			c-0.283,0-0.515-0.233-0.515-0.517c0-0.285,0.231-0.516,0.515-0.516C37.805,52.315,38.033,52.546,38.033,52.831z"/>
		<circle clip-path="url(#SVGID_2_)" fill="#33332B" cx="6.577" cy="56.955" r="0.515"/>
		<circle clip-path="url(#SVGID_2_)" fill="#33332B" cx="10.704" cy="56.955" r="0.515"/>
		<circle clip-path="url(#SVGID_2_)" fill="#33332B" cx="14.829" cy="56.955" r="0.515"/>
		<circle clip-path="url(#SVGID_2_)" fill="#33332B" cx="18.953" cy="56.955" r="0.516"/>
		<circle clip-path="url(#SVGID_2_)" fill="#33332B" cx="23.08" cy="56.955" r="0.515"/>
		<circle clip-path="url(#SVGID_2_)" fill="#33332B" cx="27.204" cy="56.955" r="0.516"/>
		<path clip-path="url(#SVGID_2_)" fill="#33332B" d="M31.845,56.955c0,0.286-0.229,0.516-0.517,0.516
			c-0.284,0-0.513-0.229-0.513-0.516c0-0.284,0.229-0.515,0.513-0.515C31.616,56.44,31.845,56.671,31.845,56.955z"/>
		<circle clip-path="url(#SVGID_2_)" fill="#33332B" cx="2.453" cy="56.956" r="0.516"/>
		<circle clip-path="url(#SVGID_2_)" fill="#33332B" cx="6.577" cy="56.956" r="0.515"/>
		<circle clip-path="url(#SVGID_2_)" fill="#33332B" cx="10.704" cy="56.956" r="0.515"/>
		<circle clip-path="url(#SVGID_2_)" fill="#33332B" cx="14.829" cy="56.956" r="0.515"/>
		<circle clip-path="url(#SVGID_2_)" fill="#33332B" cx="18.953" cy="56.956" r="0.516"/>
		<circle clip-path="url(#SVGID_2_)" fill="#33332B" cx="23.08" cy="56.956" r="0.515"/>
		<circle clip-path="url(#SVGID_2_)" fill="#33332B" cx="27.204" cy="56.956" r="0.516"/>
		<path clip-path="url(#SVGID_2_)" fill="#33332B" d="M31.845,56.956c0,0.285-0.229,0.515-0.517,0.515
			c-0.284,0-0.513-0.229-0.513-0.515c0-0.286,0.229-0.516,0.513-0.516C31.616,56.44,31.845,56.67,31.845,56.956z"/>
		<path clip-path="url(#SVGID_2_)" fill="#33332B" d="M35.97,56.956c0,0.285-0.23,0.515-0.514,0.515
			c-0.288,0-0.516-0.229-0.516-0.515c0-0.286,0.229-0.516,0.516-0.516C35.74,56.44,35.97,56.67,35.97,56.956z"/>
		<circle clip-path="url(#SVGID_2_)" fill="#33332B" cx="4.515" cy="61.083" r="0.516"/>
		<circle clip-path="url(#SVGID_2_)" fill="#33332B" cx="0.39" cy="61.083" r="0.516"/>
		<circle clip-path="url(#SVGID_2_)" fill="#33332B" cx="8.641" cy="61.083" r="0.516"/>
		<circle clip-path="url(#SVGID_2_)" fill="#33332B" cx="12.766" cy="61.083" r="0.516"/>
		<circle clip-path="url(#SVGID_2_)" fill="#33332B" cx="16.892" cy="61.083" r="0.515"/>
		<circle clip-path="url(#SVGID_2_)" fill="#33332B" cx="21.016" cy="61.083" r="0.515"/>
		<circle clip-path="url(#SVGID_2_)" fill="#33332B" cx="25.141" cy="61.083" r="0.517"/>
		<circle clip-path="url(#SVGID_2_)" fill="#33332B" cx="29.267" cy="61.083" r="0.515"/>
		<circle clip-path="url(#SVGID_2_)" fill="#33332B" cx="33.393" cy="61.083" r="0.517"/>
		<path clip-path="url(#SVGID_2_)" fill="#33332B" d="M38.033,61.083c0,0.283-0.229,0.515-0.517,0.515
			c-0.283,0-0.515-0.231-0.515-0.515c0-0.285,0.231-0.519,0.515-0.519C37.805,60.564,38.033,60.798,38.033,61.083z"/>
		<circle clip-path="url(#SVGID_2_)" fill="#33332B" cx="6.577" cy="65.205" r="0.515"/>
		<circle clip-path="url(#SVGID_2_)" fill="#33332B" cx="10.704" cy="65.205" r="0.515"/>
		<circle clip-path="url(#SVGID_2_)" fill="#33332B" cx="14.829" cy="65.205" r="0.515"/>
		<circle clip-path="url(#SVGID_2_)" fill="#33332B" cx="18.953" cy="65.205" r="0.516"/>
		<circle clip-path="url(#SVGID_2_)" fill="#33332B" cx="23.08" cy="65.205" r="0.515"/>
		<circle clip-path="url(#SVGID_2_)" fill="#33332B" cx="27.204" cy="65.205" r="0.516"/>
		<path clip-path="url(#SVGID_2_)" fill="#33332B" d="M31.845,65.205c0,0.286-0.229,0.517-0.517,0.517
			c-0.284,0-0.513-0.23-0.513-0.517c0-0.284,0.229-0.514,0.513-0.514C31.616,64.691,31.845,64.921,31.845,65.205z"/>
		<path clip-path="url(#SVGID_2_)" fill="#33332B" d="M35.97,65.205c0,0.286-0.229,0.517-0.517,0.517
			c-0.284,0-0.513-0.23-0.513-0.517c0-0.284,0.229-0.514,0.513-0.514C35.741,64.691,35.97,64.921,35.97,65.205z"/>
		<path clip-path="url(#SVGID_2_)" fill="#33332B" d="M35.97,40.455c0,0.283-0.23,0.514-0.516,0.514
			c-0.285,0-0.515-0.23-0.515-0.514c0-0.287,0.229-0.517,0.515-0.517C35.739,39.938,35.97,40.168,35.97,40.455z"/>
		<path clip-path="url(#SVGID_2_)" fill="#33332B" d="M40.093,40.455c0,0.283-0.229,0.514-0.514,0.514
			c-0.286,0-0.518-0.23-0.518-0.514c0-0.287,0.231-0.517,0.518-0.517C39.864,39.938,40.093,40.168,40.093,40.455z"/>
		<path clip-path="url(#SVGID_2_)" fill="#33332B" d="M44.221,40.455c0,0.283-0.232,0.514-0.517,0.514
			c-0.285,0-0.515-0.23-0.515-0.514c0-0.287,0.229-0.517,0.515-0.517C43.988,39.938,44.221,40.168,44.221,40.455z"/>
		<path clip-path="url(#SVGID_2_)" fill="#33332B" d="M48.345,40.455c0,0.283-0.23,0.514-0.515,0.514
			c-0.286,0-0.516-0.23-0.516-0.514c0-0.287,0.229-0.517,0.516-0.517C48.114,39.938,48.345,40.168,48.345,40.455z"/>
		<path clip-path="url(#SVGID_2_)" fill="#33332B" d="M52.471,40.455c0,0.283-0.231,0.514-0.517,0.514
			c-0.284,0-0.517-0.23-0.517-0.514c0-0.287,0.232-0.517,0.517-0.517C52.239,39.938,52.471,40.168,52.471,40.455z"/>
		<path clip-path="url(#SVGID_2_)" fill="#33332B" d="M56.596,40.455c0,0.283-0.23,0.514-0.516,0.514
			c-0.286,0-0.515-0.23-0.515-0.514c0-0.287,0.229-0.517,0.515-0.517C56.365,39.938,56.596,40.168,56.596,40.455z"/>
		<path clip-path="url(#SVGID_2_)" fill="#33332B" d="M60.72,40.455c0,0.283-0.23,0.514-0.514,0.514
			c-0.284,0-0.518-0.23-0.518-0.514c0-0.287,0.233-0.517,0.518-0.517C60.489,39.938,60.72,40.168,60.72,40.455z"/>
		<path clip-path="url(#SVGID_2_)" fill="#33332B" d="M64.846,40.455c0,0.283-0.229,0.514-0.517,0.514
			c-0.284,0-0.513-0.23-0.513-0.514c0-0.287,0.229-0.517,0.513-0.517C64.616,39.938,64.846,40.168,64.846,40.455z"/>
		<path clip-path="url(#SVGID_2_)" fill="#33332B" d="M68.972,40.455c0,0.283-0.231,0.514-0.515,0.514
			c-0.288,0-0.517-0.23-0.517-0.514c0-0.287,0.229-0.517,0.517-0.517C68.74,39.938,68.972,40.168,68.972,40.455z"/>
		<circle clip-path="url(#SVGID_2_)" fill="#33332B" cx="37.517" cy="44.58" r="0.516"/>
		<circle clip-path="url(#SVGID_2_)" fill="#33332B" cx="33.391" cy="44.58" r="0.516"/>
		<circle clip-path="url(#SVGID_2_)" fill="#33332B" cx="41.642" cy="44.58" r="0.516"/>
		<circle clip-path="url(#SVGID_2_)" fill="#33332B" cx="45.767" cy="44.58" r="0.517"/>
		<circle clip-path="url(#SVGID_2_)" fill="#33332B" cx="49.893" cy="44.58" r="0.516"/>
		<circle clip-path="url(#SVGID_2_)" fill="#33332B" cx="54.017" cy="44.58" r="0.515"/>
		<circle clip-path="url(#SVGID_2_)" fill="#33332B" cx="58.142" cy="44.58" r="0.516"/>
		<circle clip-path="url(#SVGID_2_)" fill="#33332B" cx="62.268" cy="44.58" r="0.515"/>
		<circle clip-path="url(#SVGID_2_)" fill="#33332B" cx="66.393" cy="44.58" r="0.516"/>
		<path clip-path="url(#SVGID_2_)" fill="#33332B" d="M71.033,44.58c0,0.283-0.229,0.517-0.517,0.517
			c-0.283,0-0.513-0.233-0.513-0.517c0-0.285,0.229-0.517,0.513-0.517C70.805,44.063,71.033,44.295,71.033,44.58z"/>
		<circle clip-path="url(#SVGID_2_)" fill="#33332B" cx="39.577" cy="48.703" r="0.516"/>
		<circle clip-path="url(#SVGID_2_)" fill="#33332B" cx="43.705" cy="48.703" r="0.516"/>
		<circle clip-path="url(#SVGID_2_)" fill="#33332B" cx="47.83" cy="48.703" r="0.515"/>
		<circle clip-path="url(#SVGID_2_)" fill="#33332B" cx="51.954" cy="48.703" r="0.517"/>
		<circle clip-path="url(#SVGID_2_)" fill="#33332B" cx="56.081" cy="48.703" r="0.515"/>
		<circle clip-path="url(#SVGID_2_)" fill="#33332B" cx="60.204" cy="48.703" r="0.516"/>
		<path clip-path="url(#SVGID_2_)" fill="#33332B" d="M64.846,48.703c0,0.287-0.229,0.516-0.517,0.516
			c-0.284,0-0.513-0.229-0.513-0.516c0-0.283,0.229-0.514,0.513-0.514C64.616,48.189,64.846,48.42,64.846,48.703z"/>
		<path clip-path="url(#SVGID_2_)" fill="#33332B" d="M35.97,48.705c0,0.285-0.23,0.514-0.516,0.514
			c-0.285,0-0.515-0.229-0.515-0.514c0-0.287,0.229-0.516,0.515-0.516C35.739,48.189,35.97,48.418,35.97,48.705z"/>
		<path clip-path="url(#SVGID_2_)" fill="#33332B" d="M40.093,48.705c0,0.285-0.229,0.514-0.514,0.514
			c-0.286,0-0.518-0.229-0.518-0.514c0-0.287,0.231-0.516,0.518-0.516C39.864,48.189,40.093,48.418,40.093,48.705z"/>
		<path clip-path="url(#SVGID_2_)" fill="#33332B" d="M44.221,48.705c0,0.285-0.232,0.514-0.517,0.514
			c-0.285,0-0.515-0.229-0.515-0.514c0-0.287,0.229-0.516,0.515-0.516C43.988,48.189,44.221,48.418,44.221,48.705z"/>
		<path clip-path="url(#SVGID_2_)" fill="#33332B" d="M48.345,48.705c0,0.285-0.23,0.514-0.515,0.514
			c-0.286,0-0.516-0.229-0.516-0.514c0-0.287,0.229-0.516,0.516-0.516C48.114,48.189,48.345,48.418,48.345,48.705z"/>
		<path clip-path="url(#SVGID_2_)" fill="#33332B" d="M52.471,48.705c0,0.285-0.231,0.514-0.517,0.514
			c-0.284,0-0.517-0.229-0.517-0.514c0-0.287,0.232-0.516,0.517-0.516C52.239,48.189,52.471,48.418,52.471,48.705z"/>
		<path clip-path="url(#SVGID_2_)" fill="#33332B" d="M56.596,48.705c0,0.285-0.23,0.514-0.516,0.514
			c-0.286,0-0.515-0.229-0.515-0.514c0-0.287,0.229-0.516,0.515-0.516C56.365,48.189,56.596,48.418,56.596,48.705z"/>
		<path clip-path="url(#SVGID_2_)" fill="#33332B" d="M60.72,48.705c0,0.285-0.23,0.514-0.514,0.514
			c-0.284,0-0.518-0.229-0.518-0.514c0-0.287,0.233-0.516,0.518-0.516C60.489,48.189,60.72,48.418,60.72,48.705z"/>
		<path clip-path="url(#SVGID_2_)" fill="#33332B" d="M64.846,48.705c0,0.285-0.229,0.514-0.517,0.514
			c-0.284,0-0.513-0.229-0.513-0.514c0-0.287,0.229-0.516,0.513-0.516C64.616,48.189,64.846,48.418,64.846,48.705z"/>
		<path clip-path="url(#SVGID_2_)" fill="#33332B" d="M68.972,48.705c0,0.285-0.231,0.514-0.515,0.514
			c-0.288,0-0.517-0.229-0.517-0.514c0-0.287,0.229-0.516,0.517-0.516C68.74,48.189,68.972,48.418,68.972,48.705z"/>
		<circle clip-path="url(#SVGID_2_)" fill="#33332B" cx="37.517" cy="52.831" r="0.516"/>
		<circle clip-path="url(#SVGID_2_)" fill="#33332B" cx="33.391" cy="52.831" r="0.516"/>
		<circle clip-path="url(#SVGID_2_)" fill="#33332B" cx="41.642" cy="52.831" r="0.516"/>
		<circle clip-path="url(#SVGID_2_)" fill="#33332B" cx="45.767" cy="52.831" r="0.517"/>
		<circle clip-path="url(#SVGID_2_)" fill="#33332B" cx="49.893" cy="52.831" r="0.516"/>
		<circle clip-path="url(#SVGID_2_)" fill="#33332B" cx="54.017" cy="52.831" r="0.515"/>
		<circle clip-path="url(#SVGID_2_)" fill="#33332B" cx="58.142" cy="52.831" r="0.516"/>
		<circle clip-path="url(#SVGID_2_)" fill="#33332B" cx="62.268" cy="52.831" r="0.515"/>
		<circle clip-path="url(#SVGID_2_)" fill="#33332B" cx="66.393" cy="52.831" r="0.516"/>
		<path clip-path="url(#SVGID_2_)" fill="#33332B" d="M71.033,52.831c0,0.283-0.229,0.516-0.517,0.516
			c-0.283,0-0.513-0.232-0.513-0.516c0-0.285,0.229-0.518,0.513-0.518C70.805,52.313,71.033,52.546,71.033,52.831z"/>
		<circle clip-path="url(#SVGID_2_)" fill="#33332B" cx="39.577" cy="56.954" r="0.516"/>
		<circle clip-path="url(#SVGID_2_)" fill="#33332B" cx="43.705" cy="56.954" r="0.516"/>
		<circle clip-path="url(#SVGID_2_)" fill="#33332B" cx="47.83" cy="56.954" r="0.515"/>
		<circle clip-path="url(#SVGID_2_)" fill="#33332B" cx="51.954" cy="56.954" r="0.517"/>
		<circle clip-path="url(#SVGID_2_)" fill="#33332B" cx="56.081" cy="56.954" r="0.515"/>
		<circle clip-path="url(#SVGID_2_)" fill="#33332B" cx="60.204" cy="56.954" r="0.516"/>
		<path clip-path="url(#SVGID_2_)" fill="#33332B" d="M64.846,56.954c0,0.286-0.229,0.517-0.517,0.517
			c-0.284,0-0.513-0.23-0.513-0.517c0-0.284,0.229-0.515,0.513-0.515C64.616,56.439,64.846,56.67,64.846,56.954z"/>
		<path clip-path="url(#SVGID_2_)" fill="#33332B" d="M2.969,40.455c0,0.283-0.23,0.514-0.516,0.514
			c-0.285,0-0.515-0.23-0.515-0.514c0-0.287,0.23-0.517,0.515-0.517C2.738,39.938,2.969,40.168,2.969,40.455z"/>
		<path clip-path="url(#SVGID_2_)" fill="#33332B" d="M7.093,40.455c0,0.283-0.229,0.514-0.515,0.514s-0.516-0.23-0.516-0.514
			c0-0.287,0.231-0.517,0.516-0.517S7.093,40.168,7.093,40.455z"/>
		<path clip-path="url(#SVGID_2_)" fill="#33332B" d="M11.219,40.455c0,0.283-0.232,0.514-0.516,0.514
			c-0.285,0-0.514-0.23-0.514-0.514c0-0.287,0.229-0.517,0.514-0.517C10.987,39.938,11.219,40.168,11.219,40.455z"/>
		<path clip-path="url(#SVGID_2_)" fill="#33332B" d="M15.344,40.455c0,0.283-0.23,0.514-0.514,0.514
			c-0.287,0-0.516-0.23-0.516-0.514c0-0.287,0.229-0.517,0.516-0.517C15.113,39.938,15.344,40.168,15.344,40.455z"/>
		<path clip-path="url(#SVGID_2_)" fill="#33332B" d="M19.47,40.455c0,0.283-0.232,0.514-0.517,0.514
			c-0.283,0-0.516-0.23-0.516-0.514c0-0.287,0.233-0.517,0.516-0.517C19.238,39.938,19.47,40.168,19.47,40.455z"/>
		<path clip-path="url(#SVGID_2_)" fill="#33332B" d="M23.595,40.455c0,0.283-0.23,0.514-0.517,0.514
			c-0.285,0-0.514-0.23-0.514-0.514c0-0.287,0.229-0.517,0.514-0.517C23.365,39.938,23.595,40.168,23.595,40.455z"/>
		<path clip-path="url(#SVGID_2_)" fill="#33332B" d="M27.72,40.455c0,0.283-0.231,0.514-0.515,0.514
			c-0.283,0-0.516-0.23-0.516-0.514c0-0.287,0.233-0.517,0.516-0.517C27.489,39.938,27.72,40.168,27.72,40.455z"/>
		<path clip-path="url(#SVGID_2_)" fill="#33332B" d="M31.845,40.455c0,0.283-0.229,0.514-0.517,0.514
			c-0.284,0-0.513-0.23-0.513-0.514c0-0.287,0.229-0.517,0.513-0.517C31.616,39.938,31.845,40.168,31.845,40.455z"/>
		<path clip-path="url(#SVGID_2_)" fill="#33332B" d="M35.97,40.455c0,0.283-0.23,0.514-0.514,0.514
			c-0.288,0-0.516-0.23-0.516-0.514c0-0.287,0.229-0.517,0.516-0.517C35.74,39.938,35.97,40.168,35.97,40.455z"/>
		<circle clip-path="url(#SVGID_2_)" fill="#33332B" cx="4.515" cy="44.58" r="0.516"/>
		<circle clip-path="url(#SVGID_2_)" fill="#33332B" cx="0.39" cy="44.58" r="0.516"/>
		<circle clip-path="url(#SVGID_2_)" fill="#33332B" cx="8.641" cy="44.58" r="0.516"/>
		<circle clip-path="url(#SVGID_2_)" fill="#33332B" cx="12.766" cy="44.58" r="0.516"/>
		<circle clip-path="url(#SVGID_2_)" fill="#33332B" cx="16.892" cy="44.58" r="0.515"/>
		<circle clip-path="url(#SVGID_2_)" fill="#33332B" cx="21.016" cy="44.58" r="0.515"/>
		<circle clip-path="url(#SVGID_2_)" fill="#33332B" cx="25.141" cy="44.58" r="0.517"/>
		<circle clip-path="url(#SVGID_2_)" fill="#33332B" cx="29.267" cy="44.58" r="0.515"/>
		<circle clip-path="url(#SVGID_2_)" fill="#33332B" cx="33.393" cy="44.58" r="0.517"/>
		<path clip-path="url(#SVGID_2_)" fill="#33332B" d="M38.033,44.58c0,0.283-0.229,0.517-0.517,0.517
			c-0.283,0-0.515-0.233-0.515-0.517c0-0.285,0.231-0.517,0.515-0.517C37.805,44.063,38.033,44.295,38.033,44.58z"/>
		<circle clip-path="url(#SVGID_2_)" fill="#33332B" cx="6.577" cy="48.703" r="0.515"/>
		<circle clip-path="url(#SVGID_2_)" fill="#33332B" cx="10.704" cy="48.703" r="0.515"/>
		<circle clip-path="url(#SVGID_2_)" fill="#33332B" cx="14.829" cy="48.703" r="0.515"/>
		<circle clip-path="url(#SVGID_2_)" fill="#33332B" cx="18.953" cy="48.703" r="0.516"/>
		<circle clip-path="url(#SVGID_2_)" fill="#33332B" cx="23.08" cy="48.703" r="0.515"/>
		<circle clip-path="url(#SVGID_2_)" fill="#33332B" cx="27.204" cy="48.703" r="0.516"/>
		<path clip-path="url(#SVGID_2_)" fill="#33332B" d="M31.845,48.703c0,0.287-0.229,0.516-0.517,0.516
			c-0.284,0-0.513-0.229-0.513-0.516c0-0.283,0.229-0.514,0.513-0.514C31.616,48.189,31.845,48.42,31.845,48.703z"/>
		<path clip-path="url(#SVGID_2_)" fill="#33332B" d="M2.969,48.705c0,0.285-0.23,0.514-0.516,0.514
			c-0.285,0-0.515-0.229-0.515-0.514c0-0.287,0.23-0.516,0.515-0.516C2.738,48.189,2.969,48.418,2.969,48.705z"/>
		<path clip-path="url(#SVGID_2_)" fill="#33332B" d="M7.093,48.705c0,0.285-0.229,0.514-0.515,0.514s-0.516-0.229-0.516-0.514
			c0-0.287,0.231-0.516,0.516-0.516S7.093,48.418,7.093,48.705z"/>
		<path clip-path="url(#SVGID_2_)" fill="#33332B" d="M11.219,48.705c0,0.285-0.232,0.514-0.516,0.514
			c-0.285,0-0.514-0.229-0.514-0.514c0-0.287,0.229-0.516,0.514-0.516C10.987,48.189,11.219,48.418,11.219,48.705z"/>
		<path clip-path="url(#SVGID_2_)" fill="#33332B" d="M15.344,48.705c0,0.285-0.23,0.514-0.514,0.514
			c-0.287,0-0.516-0.229-0.516-0.514c0-0.287,0.229-0.516,0.516-0.516C15.113,48.189,15.344,48.418,15.344,48.705z"/>
		<path clip-path="url(#SVGID_2_)" fill="#33332B" d="M19.47,48.705c0,0.285-0.232,0.514-0.517,0.514
			c-0.283,0-0.516-0.229-0.516-0.514c0-0.287,0.233-0.516,0.516-0.516C19.238,48.189,19.47,48.418,19.47,48.705z"/>
		<path clip-path="url(#SVGID_2_)" fill="#33332B" d="M23.595,48.705c0,0.285-0.23,0.514-0.517,0.514
			c-0.285,0-0.514-0.229-0.514-0.514c0-0.287,0.229-0.516,0.514-0.516C23.365,48.189,23.595,48.418,23.595,48.705z"/>
		<path clip-path="url(#SVGID_2_)" fill="#33332B" d="M27.72,48.705c0,0.285-0.231,0.514-0.515,0.514
			c-0.283,0-0.516-0.229-0.516-0.514c0-0.287,0.233-0.516,0.516-0.516C27.489,48.189,27.72,48.418,27.72,48.705z"/>
		<path clip-path="url(#SVGID_2_)" fill="#33332B" d="M31.845,48.705c0,0.285-0.229,0.514-0.517,0.514
			c-0.284,0-0.513-0.229-0.513-0.514c0-0.287,0.229-0.516,0.513-0.516C31.616,48.189,31.845,48.418,31.845,48.705z"/>
		<path clip-path="url(#SVGID_2_)" fill="#33332B" d="M35.97,48.705c0,0.285-0.23,0.514-0.514,0.514
			c-0.288,0-0.516-0.229-0.516-0.514c0-0.287,0.229-0.516,0.516-0.516C35.74,48.189,35.97,48.418,35.97,48.705z"/>
		<circle clip-path="url(#SVGID_2_)" fill="#33332B" cx="4.515" cy="52.831" r="0.516"/>
		<circle clip-path="url(#SVGID_2_)" fill="#33332B" cx="0.39" cy="52.831" r="0.516"/>
		<circle clip-path="url(#SVGID_2_)" fill="#33332B" cx="8.641" cy="52.831" r="0.516"/>
		<circle clip-path="url(#SVGID_2_)" fill="#33332B" cx="12.766" cy="52.831" r="0.516"/>
		<circle clip-path="url(#SVGID_2_)" fill="#33332B" cx="16.892" cy="52.831" r="0.515"/>
		<circle clip-path="url(#SVGID_2_)" fill="#33332B" cx="21.016" cy="52.831" r="0.515"/>
		<circle clip-path="url(#SVGID_2_)" fill="#33332B" cx="25.141" cy="52.831" r="0.517"/>
		<circle clip-path="url(#SVGID_2_)" fill="#33332B" cx="29.267" cy="52.831" r="0.515"/>
		<circle clip-path="url(#SVGID_2_)" fill="#33332B" cx="33.393" cy="52.831" r="0.517"/>
		<path clip-path="url(#SVGID_2_)" fill="#33332B" d="M38.033,52.831c0,0.283-0.229,0.516-0.517,0.516
			c-0.283,0-0.515-0.232-0.515-0.516c0-0.285,0.231-0.518,0.515-0.518C37.805,52.313,38.033,52.546,38.033,52.831z"/>
		<circle clip-path="url(#SVGID_2_)" fill="#33332B" cx="6.577" cy="56.954" r="0.515"/>
		<circle clip-path="url(#SVGID_2_)" fill="#33332B" cx="10.704" cy="56.954" r="0.515"/>
		<circle clip-path="url(#SVGID_2_)" fill="#33332B" cx="14.829" cy="56.954" r="0.515"/>
		<circle clip-path="url(#SVGID_2_)" fill="#33332B" cx="18.953" cy="56.954" r="0.516"/>
		<circle clip-path="url(#SVGID_2_)" fill="#33332B" cx="23.08" cy="56.954" r="0.515"/>
		<circle clip-path="url(#SVGID_2_)" fill="#33332B" cx="27.204" cy="56.954" r="0.516"/>
		<path clip-path="url(#SVGID_2_)" fill="#33332B" d="M31.845,56.954c0,0.286-0.229,0.517-0.517,0.517
			c-0.284,0-0.513-0.23-0.513-0.517c0-0.284,0.229-0.515,0.513-0.515C31.616,56.439,31.845,56.67,31.845,56.954z"/>
	</g>
</g>

</svg>
