<?xml version="1.0" encoding="utf-8"?>
<!-- Generator: Adobe Illustrator 16.0.0, SVG Export Plug-In . SVG Version: 6.00 Build 0)  -->
<!DOCTYPE svg PUBLIC "-//W3C//DTD SVG 1.1//EN" "http://www.w3.org/Graphics/SVG/1.1/DTD/svg11.dtd">
<svg version="1.1" xmlns="http://www.w3.org/2000/svg" xmlns:xlink="http://www.w3.org/1999/xlink" x="0px" y="0px" width="70px"
	 height="70px" viewBox="0 0 70 70" enable-background="new 0 0 70 70" xml:space="preserve">
<g id="Layer_1" display="none">
	<circle display="inline" fill="#f2f2ed" cx="35" cy="35" r="35"/>
	<path display="inline" fill="#f2f2ed" stroke="#f2f2ed" stroke-linejoin="round" stroke-miterlimit="10" d="M37.723,49.066
		c0,0-0.2-0.602-0.428-0.632c-0.23-0.028-1.005-0.314-1.893,0c-0.454,0.161-0.862-0.013-1.521-0.07
		c-0.66-0.057-1.061,0.401-1.349,0.351c-0.286-0.049-1.204-0.309-1.204-0.309l1.263,1.204c0,0,3.354-0.803,4.845,0"/>
	<path display="inline" fill="#f2f2ed" d="M49.041,45.198c-0.045-0.245-0.093-0.501-0.142-0.763l0.41,0.763
		c0.15-0.415,0.282-0.841,0.398-1.272l15.124-1.384l-14.63-2.062c0.004-0.148,0.011-0.299,0.011-0.449
		c0-1.148-0.131-2.267-0.372-3.342l15.34-7.832l-16.617,4.29c-0.807-1.589-1.884-3.018-3.174-4.224l10.415-16.728L42.542,26.82
		c-1.828-1.046-3.893-1.726-6.097-1.932L35,5.225l-1.443,19.664c-2.206,0.207-4.271,0.886-6.099,1.932L14.196,12.195l10.415,16.728
		c-1.291,1.207-2.368,2.635-3.176,4.224l-16.615-4.29l15.34,7.832c-0.241,1.075-0.372,2.193-0.372,3.342
		c0,0.15,0.006,0.301,0.011,0.449l-14.63,2.062l15.125,1.384c0.114,0.432,0.245,0.857,0.396,1.272l0.439-0.898
		c-0.058,0.309-0.114,0.612-0.168,0.898c0,0-1.058,2.638-1.617,3.409c-0.557,0.773-0.694,0.911,0,1.399
		c0.697,0.487,0.508,1.019,1.415,0.768c0.54,0.696,2.527-2.161,3.224-2.486c0,0-0.836-2.068,2.402-9.03
		c0.972-2.092,4.497-3.258,6.656-4.25c2.161-0.991,1.795-1.572,1.795-1.572V31.75v-1.046c-0.351,0.024-0.686,0.054-1.017,0.089
		v-3.719c0-0.232,0.187-0.418,0.417-0.418H35h0.766c0.228,0,0.417,0.186,0.417,0.418v3.719c-0.331-0.036-0.666-0.065-1.017-0.089
		v1.046v1.686c0,0-0.366,0.581,1.793,1.572c2.161,0.992,5.687,2.158,6.658,4.25c3.238,6.962,2.402,9.03,2.402,9.03
		c0.696,0.325,2.684,3.183,3.224,2.486c0.907,0.251,0.716-0.28,1.413-0.768c0.696-0.488,0.559-0.626,0-1.399
		C50.099,47.836,49.041,45.198,49.041,45.198z M28.193,28.355l1.086-0.597c0.166-0.089,0.37-0.029,0.462,0.135l0.665,3.502
		c-0.649,0.172-1.249,0.368-1.804,0.582l-0.542-3.163C27.97,28.652,28.03,28.446,28.193,28.355z M25.649,30.072l0.854-0.72
		c0.129-0.107,0.32-0.09,0.43,0.039l0.867,2.922c-0.55,0.25-1.045,0.518-1.492,0.795l-0.695-2.607
		C25.505,30.374,25.521,30.181,25.649,30.072z M23.51,32.142l0.608-0.799c0.093-0.119,0.265-0.142,0.385-0.049l1.221,2.205
		c-0.445,0.314-0.834,0.637-1.163,0.958l-1-1.929C23.441,32.435,23.417,32.261,23.51,32.142z M21.994,34.746l0.359-0.83
		c0.056-0.125,0.2-0.183,0.327-0.128l1.26,1.35c-0.125,0.156-0.243,0.312-0.346,0.461c-0.131,0.196-0.26,0.434-0.383,0.698
		l-1.086-1.226C22,35.018,21.942,34.871,21.994,34.746z M21.183,37.166l0.209-0.787c0.032-0.119,0.152-0.189,0.271-0.157
		l1.189,0.939c-0.138,0.373-0.269,0.778-0.396,1.209l-1.114-0.934C21.224,37.405,21.153,37.284,21.183,37.166z M20.94,38.954
		c0.015-0.111,0.116-0.187,0.226-0.173l1.011,0.608c-0.092,0.354-0.183,0.716-0.267,1.085l-0.893-0.571
		c-0.109-0.013-0.185-0.115-0.172-0.224L20.94,38.954z M20.768,42.114c-0.109-0.008-0.191-0.105-0.183-0.214l0.058-0.73
		c0.009-0.11,0.103-0.193,0.215-0.183l0.837,0.446c-0.078,0.361-0.153,0.724-0.224,1.08L20.768,42.114z M31.142,31.22l-0.234-3.594
		c-0.043-0.205,0.086-0.404,0.29-0.447l1.346-0.286c0.202-0.045,0.402,0.085,0.445,0.289l0.256,3.678
		C32.497,30.952,31.796,31.074,31.142,31.22z M49.357,41.17l0.058,0.73c0.009,0.108-0.073,0.206-0.185,0.214l-0.701,0.399
		c-0.071-0.356-0.146-0.719-0.226-1.08l0.838-0.446C49.252,40.977,49.349,41.06,49.357,41.17z M49.061,38.954l0.095,0.726
		c0.013,0.108-0.062,0.211-0.175,0.224l-0.891,0.571c-0.086-0.369-0.174-0.73-0.267-1.085l1.011-0.608
		C48.944,38.768,49.045,38.843,49.061,38.954z M48.61,36.379l0.207,0.787c0.03,0.118-0.041,0.239-0.159,0.271l-1.114,0.934
		c-0.127-0.431-0.26-0.836-0.396-1.209l1.188-0.939C48.456,36.189,48.578,36.26,48.61,36.379z M47.647,33.916l0.356,0.83
		c0.054,0.125-0.004,0.271-0.129,0.325l-1.084,1.226c-0.124-0.265-0.251-0.502-0.387-0.698c-0.101-0.149-0.22-0.305-0.347-0.461
		l1.263-1.35C47.447,33.733,47.592,33.791,47.647,33.916z M45.494,31.293c0.123-0.092,0.293-0.07,0.386,0.049l0.61,0.799
		c0.093,0.119,0.069,0.292-0.05,0.385l-1.002,1.929c-0.329-0.321-0.72-0.644-1.163-0.958L45.494,31.293z M43.066,29.392
		c0.11-0.129,0.302-0.146,0.431-0.039l0.854,0.72c0.129,0.108,0.144,0.302,0.036,0.43l-0.694,2.607
		c-0.447-0.277-0.941-0.546-1.492-0.795L43.066,29.392z M40.684,27.758l1.089,0.597c0.163,0.091,0.224,0.297,0.133,0.46l-0.54,3.149
		c-0.557-0.213-1.154-0.407-1.804-0.578l0.662-3.493C40.314,27.729,40.521,27.669,40.684,27.758z M37.202,27.284
		c0.043-0.204,0.243-0.333,0.445-0.29l1.346,0.287c0.205,0.044,0.334,0.244,0.291,0.448l-0.23,3.537
		c-0.653-0.153-1.354-0.282-2.104-0.381L37.202,27.284z"/>
	<g display="inline">
		<path fill="#33332B" d="M33.082,45.855c0.178-0.149,0.331-0.252,0.428-0.27c0.458-0.086,1.061-0.058,1.232,0L35,45.642
			l0.258-0.056c0.172-0.058,0.774-0.086,1.232,0c0.097,0.018,0.25,0.12,0.428,0.27h0.035c0,0,0.802-1.005,0.172-1.663
			c-0.633-0.66-0.862-0.861-0.862-0.861l-0.649,0.648h-1.227l-0.649-0.648c0,0-0.229,0.201-0.862,0.861
			c-0.63,0.658,0.172,1.663,0.172,1.663H33.082z"/>
	</g>
	<g display="inline">
		<g>
			<path fill="#33332B" d="M35.106,6.675L35,5.225l-0.106,1.451c0.036,0,0.071-0.003,0.106-0.003S35.071,6.675,35.106,6.675z"/>
		</g>
		<g>
			<path fill="#33332B" d="M60.836,31.075l4.098-2.092c-0.004-0.02-0.007-0.04-0.011-0.06l-4.264,1.101
				C60.723,30.374,60.785,30.723,60.836,31.075z"/>
		</g>
		<g>
			<path fill="#33332B" d="M53.651,15.653l1.97-3.163c-0.016-0.014-0.03-0.029-0.045-0.043l-2.415,2.663
				C53.326,15.289,53.49,15.469,53.651,15.653z"/>
		</g>
		<g>
			<path fill="#33332B" d="M60.459,29.043l4.242-1.095c-1.349-5.703-4.293-10.787-8.342-14.753l-2.025,3.254
				C57.297,20.071,59.441,24.431,60.459,29.043z"/>
		</g>
		<g>
			<path fill="#33332B" d="M16.839,15.11l-2.415-2.663c-0.016,0.014-0.03,0.029-0.045,0.043l1.969,3.162
				C16.51,15.469,16.674,15.289,16.839,15.11z"/>
		</g>
		<g>
			<path fill="#33332B" d="M15.667,16.449l-2.026-3.254c-4.048,3.966-6.993,9.05-8.342,14.753l4.243,1.095
				C10.56,24.431,12.704,20.072,15.667,16.449z"/>
		</g>
		<g>
			<path fill="#33332B" d="M36.111,6.705c6.275,0.313,11.985,3.251,16.359,7.677l2.351-2.592
				c-5.175-4.425-11.845-7.145-19.149-7.303c0.183,0.167,0.305,0.4,0.325,0.665L36.111,6.705z"/>
		</g>
		<g>
			<path fill="#33332B" d="M59.927,42.991l4.656-0.427c0.005-0.019,0.009-0.037,0.013-0.056l-4.367-0.616
				C60.135,42.261,60.035,42.627,59.927,42.991z"/>
		</g>
		<g>
			<path fill="#33332B" d="M33.889,6.705l0.114-1.554c0.02-0.265,0.142-0.498,0.325-0.665c-7.304,0.158-13.974,2.878-19.149,7.303
				l2.35,2.592C21.904,9.957,27.613,7.019,33.889,6.705z"/>
		</g>
		<g>
			<path fill="#33332B" d="M46.714,60.088c-1.323,0.759-2.17-1.547-2.17-1.547l-0.234-2.062c0,0,1.027-1.612,0.68-1.493
				c0.044-0.171-0.034-0.195-0.368,0.107c-1.038,0.946-1.604,0.426-1.604,0.426s-2.785-2.172-3.776-2.976
				c-0.992-0.802-2.125-0.944-2.125-0.944c-0.189,0.143-0.975,0.614-2.116,0.614s-1.927-0.472-2.116-0.614
				c0,0-1.133,0.143-2.125,0.944c-0.992,0.804-3.776,2.976-3.776,2.976s-0.568,0.521-1.606-0.426
				c-1.037-0.944,0.378,1.276,0.378,1.276s0.028,0.022,0.068,0.055c0.02,0.032,0.035,0.055,0.035,0.055S26,56.524,26,56.594v0.596
				c0,0.468-0.048,1.008-0.155,1.539c-0.239,0.54-1.023,2.032-2.14,1.337c-0.342-0.214-0.536-0.217-0.635-0.104
				c-5.858-3.472-10.43-9.305-12.673-15.937l-4.691-0.429C9.42,56.27,21.125,65.529,35,65.529c13.875,0,25.58-9.26,29.294-21.934
				l-4.692,0.429C57.331,50.737,52.676,56.633,46.714,60.088z"/>
		</g>
		<g>
			<path fill="#33332B" d="M65.117,30.012l-4.149,2.119c0.102,0.952,0.157,1.909,0.157,2.869c0,1.994-0.231,3.978-0.657,5.917
				l4.354,0.613c0.458-2.104,0.707-4.288,0.707-6.53C65.529,33.301,65.384,31.636,65.117,30.012z"/>
		</g>
		<g>
			<path fill="#33332B" d="M9.771,41.893l-4.367,0.616c0.005,0.019,0.008,0.037,0.013,0.056l4.657,0.427
				C9.966,42.627,9.865,42.261,9.771,41.893z"/>
		</g>
		<g>
			<path fill="#33332B" d="M9.342,30.024l-4.264-1.101c-0.004,0.02-0.006,0.04-0.011,0.06l4.097,2.092
				C9.215,30.724,9.277,30.374,9.342,30.024z"/>
		</g>
		<g>
			<path fill="#33332B" d="M8.875,35c0-0.96,0.056-1.917,0.157-2.869l-4.149-2.119C4.616,31.636,4.471,33.301,4.471,35
				c0,2.242,0.249,4.426,0.708,6.53l4.355-0.613C9.108,38.977,8.875,36.994,8.875,35z"/>
		</g>
	</g>
	<g display="inline">
		<g>
			<path fill="#33332B" d="M36.49,46.342c-0.458-0.085-1.061-0.057-1.232,0L35,46.4l-0.258-0.059c-0.172-0.057-0.774-0.085-1.232,0
				c-0.46,0.086-2.181,2.064-2.181,2.064l1.263,1.204c0,0,3.354-0.803,4.845,0l0.286-0.544c0,0-0.2-0.602-0.428-0.632
				c-0.23-0.028-1.005-0.314-1.893,0c-0.454,0.161-0.862-0.013-1.521-0.07c-0.66-0.057-1.061,0.401-1.349,0.351
				c-0.155-0.026-0.493-0.114-0.773-0.189c0.065-0.116,0.283-0.374,1.031-0.894C33.91,46.859,35,47.447,35,47.447
				s1.09-0.588,2.206,0.185c1.119,0.774,1.062,0.976,1.062,0.976l0.402-0.201C38.671,48.406,36.948,46.428,36.49,46.342z"/>
		</g>
		<g>
			<path fill="#33332B" d="M36.51,38.002c0,0,0.023-0.007,0.045-0.013C36.558,37.547,36.51,38.002,36.51,38.002z"/>
		</g>
		<g>
			<path fill="#33332B" d="M44.587,43.574c-0.142-0.565-1.512-1.936-1.936-3.068s-2.834-2.504-3.778-2.711
				c-0.86-0.191-2.102,0.135-2.318,0.194c-0.002,0.192-0.013,0.552-0.041,1.194c-0.095,2.125,1.817,3.21,1.817,3.21
				c3.234,0.757,0.639,0.236,3.708,0.615c3.068,0.377,3.161,5.994,3.113,4.106C45.107,45.227,44.729,44.142,44.587,43.574z"/>
		</g>
		<g>
			<path fill="#33332B" d="M33.444,37.989c0.021,0.006,0.044,0.013,0.044,0.013S33.441,37.547,33.444,37.989z"/>
		</g>
		<g>
			<path fill="#33332B" d="M33.483,39.184c-0.028-0.643-0.038-1.002-0.039-1.194c-0.214-0.06-1.457-0.386-2.32-0.194
				c-0.944,0.207-3.353,1.578-3.776,2.711c-0.426,1.133-1.793,2.503-1.935,3.068c-0.144,0.567-0.521,1.652-0.568,3.541
				c-0.045,1.888,0.047-3.729,3.116-4.106c3.069-0.379,0.473,0.142,3.705-0.615C31.667,42.394,33.581,41.309,33.483,39.184z"/>
		</g>
		<g>
			<path fill="#33332B" d="M49.708,43.926l15.124-1.384l-14.63-2.062c0.004-0.148,0.011-0.299,0.011-0.449
				c0-1.148-0.131-2.267-0.372-3.342l15.34-7.832l-16.617,4.29c-0.807-1.589-1.884-3.018-3.174-4.224l10.415-16.728L42.542,26.82
				c-1.828-1.046-3.893-1.726-6.097-1.932L35,5.225l-1.443,19.664c-2.206,0.207-4.271,0.886-6.099,1.932L14.196,12.195
				l10.415,16.728c-1.291,1.207-2.368,2.635-3.176,4.224l-16.615-4.29l15.34,7.832c-0.241,1.075-0.372,2.193-0.372,3.342
				c0,0.15,0.006,0.301,0.011,0.449l-14.63,2.062l15.125,1.384c0.114,0.432,0.245,0.857,0.396,1.272l0.439-0.898
				c-0.058,0.309-0.114,0.612-0.168,0.898c0,0-1.058,2.638-1.617,3.409c-0.557,0.773-0.694,0.911,0,1.399
				c0.697,0.487,0.508,1.019,1.415,0.768c0.54,0.696,2.527-2.161,3.224-2.486c0,0-0.836-2.068,2.402-9.03
				c0.972-2.092,4.497-3.258,6.656-4.25c2.161-0.991,1.795-1.572,1.795-1.572V31.75v-1.046c-0.351,0.024-0.686,0.054-1.017,0.089
				v-3.719c0-0.232,0.187-0.418,0.417-0.418H35h0.766c0.228,0,0.417,0.186,0.417,0.418v3.719c-0.331-0.036-0.666-0.065-1.017-0.089
				v1.046v1.686c0,0-0.366,0.581,1.793,1.572c2.161,0.992,5.687,2.158,6.658,4.25c3.238,6.962,2.402,9.03,2.402,9.03
				c0.696,0.325,2.684,3.183,3.224,2.486c0.907,0.251,0.716-0.28,1.413-0.768c0.696-0.488,0.559-0.626,0-1.399
				c-0.558-0.771-1.615-3.409-1.615-3.409c-0.045-0.245-0.093-0.501-0.142-0.763l0.41,0.763
				C49.46,44.783,49.592,44.357,49.708,43.926z M21.471,42.514l-0.704-0.399c-0.109-0.008-0.191-0.105-0.183-0.214l0.058-0.73
				c0.009-0.11,0.103-0.193,0.215-0.183l0.837,0.446C21.617,41.795,21.542,42.157,21.471,42.514z M21.91,40.475l-0.893-0.571
				c-0.109-0.013-0.185-0.115-0.172-0.224l0.095-0.726c0.015-0.111,0.116-0.187,0.226-0.173l1.011,0.608
				C22.084,39.744,21.994,40.105,21.91,40.475z M22.456,38.37l-1.114-0.934c-0.118-0.031-0.189-0.152-0.159-0.271l0.209-0.787
				c0.032-0.119,0.152-0.189,0.271-0.157l1.189,0.939C22.714,37.534,22.583,37.939,22.456,38.37z M23.594,35.599
				c-0.131,0.196-0.26,0.434-0.383,0.698l-1.086-1.226c-0.125-0.054-0.183-0.2-0.131-0.325l0.359-0.83
				c0.056-0.125,0.2-0.183,0.327-0.128l1.26,1.35C23.815,35.294,23.697,35.449,23.594,35.599z M24.562,34.456l-1-1.929
				c-0.121-0.092-0.145-0.266-0.052-0.385l0.608-0.799c0.093-0.119,0.265-0.142,0.385-0.049l1.221,2.205
				C25.28,33.812,24.89,34.135,24.562,34.456z M26.308,33.109l-0.695-2.607c-0.107-0.128-0.092-0.321,0.037-0.43l0.854-0.72
				c0.129-0.107,0.32-0.09,0.43,0.039l0.867,2.922C27.25,32.563,26.755,32.832,26.308,33.109z M28.602,31.978l-0.542-3.163
				c-0.09-0.163-0.03-0.369,0.133-0.46l1.086-0.597c0.166-0.089,0.37-0.029,0.462,0.135l0.665,3.502
				C29.757,31.568,29.157,31.764,28.602,31.978z M31.142,31.22l-0.234-3.594c-0.043-0.205,0.086-0.404,0.29-0.447l1.346-0.286
				c0.202-0.045,0.402,0.085,0.445,0.289l0.256,3.678C32.497,30.952,31.796,31.074,31.142,31.22z M39.284,27.729l-0.23,3.537
				c-0.653-0.153-1.354-0.282-2.104-0.381l0.252-3.601c0.043-0.204,0.243-0.333,0.445-0.29l1.346,0.287
				C39.198,27.325,39.327,27.525,39.284,27.729z M41.905,28.815l-0.54,3.149c-0.557-0.213-1.154-0.407-1.804-0.578l0.662-3.493
				c0.091-0.165,0.297-0.225,0.46-0.135l1.089,0.597C41.936,28.446,41.996,28.652,41.905,28.815z M42.2,32.314l0.866-2.922
				c0.11-0.129,0.302-0.146,0.431-0.039l0.854,0.72c0.129,0.108,0.144,0.302,0.036,0.43l-0.694,2.607
				C43.245,32.832,42.751,32.563,42.2,32.314z M44.275,33.498l1.219-2.205c0.123-0.092,0.293-0.07,0.386,0.049l0.61,0.799
				c0.093,0.119,0.069,0.292-0.05,0.385l-1.002,1.929C45.109,34.135,44.719,33.812,44.275,33.498z M46.404,35.599
				c-0.101-0.149-0.22-0.305-0.347-0.461l1.263-1.35c0.127-0.055,0.271,0.003,0.327,0.128l0.356,0.83
				c0.054,0.125-0.004,0.271-0.129,0.325l-1.084,1.226C46.667,36.032,46.54,35.795,46.404,35.599z M47.148,37.161l1.188-0.939
				c0.12-0.032,0.242,0.038,0.274,0.157l0.207,0.787c0.03,0.118-0.041,0.239-0.159,0.271l-1.114,0.934
				C47.417,37.939,47.284,37.534,47.148,37.161z M47.823,39.39l1.011-0.608c0.11-0.014,0.211,0.062,0.227,0.173l0.095,0.726
				c0.013,0.108-0.062,0.211-0.175,0.224l-0.891,0.571C48.004,40.105,47.916,39.744,47.823,39.39z M48.529,42.514
				c-0.071-0.356-0.146-0.719-0.226-1.08l0.838-0.446c0.11-0.011,0.207,0.072,0.216,0.183l0.058,0.73
				c0.009,0.108-0.073,0.206-0.185,0.214L48.529,42.514z"/>
		</g>
	</g>
</g>
<g id="Layer_2" display="none">
	<circle display="inline" fill="#f2f2ed" cx="35" cy="35" r="35"/>
	<g display="inline">
		<g>
			<polygon fill="#231F20" points="50.592,37.21 51.721,36.289 50.802,35.161 			"/>
			<polygon fill="#231F20" points="50.802,35.161 51.93,34.241 51.011,33.113 			"/>
		</g>
		<g>
			<polygon fill="#231F20" points="51.011,33.113 52.14,32.192 51.222,31.064 			"/>
			<polygon fill="#231F20" points="51.222,31.064 52.351,30.144 51.431,29.016 			"/>
		</g>
	</g>
	<g display="inline">
		<path fill="#33332B" d="M27.14,52.494L27,52.445v2.966c0,0-0.578,4.493-7.055,0.943c-1.31-0.718-2.072-0.969-2.364-0.922
			C11.709,50.339,7.805,42.911,7.805,35c0-7.087,3.104-13.787,7.968-18.769l-0.968-4.119C8.47,17.707,4.47,25.884,4.47,35
			c0,16.86,13.669,30.529,30.53,30.529v-3.306v-3.855C31.241,58.146,28.631,55.303,27.14,52.494z"/>
		<path fill="#33332B" d="M55.903,12.724l-0.986,4.193c4.49,4.902,7.316,11.318,7.316,18.083c0,8.186-4.15,15.856-10.368,20.957
			c-0.23,0.114-0.566,0.241-0.852,0.397C44.834,59.741,44,55.815,44,55.447v-3.002l-0.234,0.081
			c-1.484,2.779-4.062,5.58-7.766,5.836v3.84c0,0.002,0,0.005,0,0.007v3.299C52,65.062,65.61,51.579,65.61,35
			C65.61,26.21,61.869,18.294,55.903,12.724z"/>
		<path fill="#33332B" d="M53.602,10.775C48.439,6.824,41.989,4.47,35,4.47c-6.865,0-13.2,2.267-18.299,6.091l2.785,1.088
			l0.04,1.341c4.474-3.25,9.858-5.216,15.491-5.216c5.972,0,11.667,2.208,16.292,5.815l0.057-1.94L53.602,10.775z"/>
	</g>
	<g display="inline">
		<g>
			<path fill="#33332B" d="M54.03,13.757l-0.899-1.103l1.104-0.901l-0.918-1.129L35,5.058l-17.727,5.083l0.053,0.583l-0.869,1.042
				l1.043,0.87l0.009,0.094l-0.869,1.043l1.044,0.87l0.013,0.138l-0.869,1.043l1.043,0.87l0.013,0.137l-0.868,1.043l1.042,0.869
				l0.013,0.139l-0.868,1.043l1.043,0.87l0.013,0.138l-0.868,1.043l1.043,0.869l0.012,0.139l-0.868,1.043l1.042,0.869l0.013,0.139
				l-0.869,1.042l1.043,0.87l0.013,0.138l-0.868,1.043l1.043,0.869l0.013,0.14l-0.868,1.042l1.043,0.87l0.013,0.14l-0.868,1.042
				l1.042,0.869l0.013,0.139l-0.868,1.042l1.042,0.869l0.013,0.139l-0.868,1.042l1.043,0.87l0.013,0.138l-0.868,1.043l1.043,0.869
				l0.012,0.138l-0.869,1.043l1.043,0.87l0.013,0.138l-0.869,1.043l1.043,0.869l0.015,0.165l-0.646,1.081l1.144,2.096
				c0.847,2.466,3.121,4.621,6.415,5.972c-1.067-1.951-1.604-3.902-1.604-4.949c0-0.032,0.009-0.062,0.01-0.094
				c0.546,2.174,2.776,8.734,9.848,8.734c6.876,0,9.18-6.217,9.804-8.56c-0.023,1.021-0.513,2.812-1.474,4.639
				c2.936-1.367,4.916-3.438,5.702-5.775l-0.007,0.052l1.369-2.228l-0.846-1.037l0.017-0.165l1.038-0.846l-0.85-1.043l0.016-0.153
				l1.044-0.853l-0.854-1.049l0.014-0.144l1.05-0.855l-0.858-1.055l0.831-8.309l1.077-0.878l-0.882-1.082l0.009-0.083l1.083-0.883
				l-0.886-1.089l0.007-0.071l1.089-0.889l-0.891-1.095l0.006-0.061l1.095-0.893l-0.896-1.099l0.005-0.052l1.102-0.897l-0.901-1.105
				l0.005-0.042l1.105-0.902l-0.904-1.111l0.003-0.032l1.111-0.906l-0.909-1.117l0.002-0.02L54.03,13.757z M35.486,53.519
				c-6.146,0-8.127-5.773-8.669-8.039c1.665-1.459,4.912-2.449,8.645-2.449c3.765,0,7.032,1.009,8.685,2.488
				C43.592,47.809,41.6,53.519,35.486,53.519z"/>
		</g>
		<g>
			<path fill="#33332B" d="M35.245,49.618c-0.144-0.048-0.648-0.071-1.032,0c-0.387,0.072-1.828,1.73-1.828,1.73l1.058,1.01
				c0,0,2.812-0.674,4.062,0l0.24-0.456c0,0-0.168-0.505-0.359-0.53c-0.192-0.023-0.842-0.264-1.586,0
				c-0.38,0.136-0.723-0.011-1.274-0.058c-0.554-0.049-0.889,0.335-1.131,0.293c-0.129-0.022-0.413-0.097-0.647-0.159
				c0.055-0.098,0.238-0.314,0.864-0.748c0.938-0.648,1.852-0.156,1.852-0.156s0.914-0.492,1.85,0.156
				c0.938,0.648,0.891,0.817,0.891,0.817l0.337-0.169c0,0-1.444-1.658-1.828-1.73c-0.385-0.071-0.889-0.048-1.033,0l-0.216,0.049
				L35.245,49.618z"/>
		</g>
	</g>
	<g display="inline">
		<path fill="#33332B" d="M33.854,47.009c0.149-0.125,0.277-0.212,0.358-0.226c0.384-0.072,0.889-0.05,1.032,0l0.217,0.046
			l0.216-0.046c0.145-0.05,0.648-0.072,1.033,0c0.08,0.014,0.209,0.101,0.359,0.226h0.028c0,0,0.672-0.843,0.145-1.395
			c-0.53-0.553-0.724-0.722-0.724-0.722l-0.544,0.544h-1.027l-0.545-0.544c0,0-0.192,0.169-0.723,0.722
			c-0.528,0.552,0.145,1.395,0.145,1.395H33.854z"/>
	</g>
</g>
<g id="Layer_3">
	<circle fill="#f2f2ed" cx="35" cy="35" r="35"/>
	<path fill="#33332B" d="M32.587,64.876c0,0,2.323,1.468,4.826,0H32.587z"/>
	<g>
		<path fill="#33332B" d="M44.331,54.905c-0.837,0.733-2.804,0.744-3.686,0.648c-0.882-0.094-2.318,0.03-2.318,0.03
			c1.351,0.472,3.02,1.544,4.397,1.161C44.102,56.363,45.168,54.173,44.331,54.905z"/>
		<path fill="#33332B" d="M45.815,51.224c0,0-2.105-0.453-2.562-0.074c-0.456,0.38-2.796,0.055-4.213,1.198
			c0,0,0.323,0.054,0.581,0.252c0.26,0.199,2.328-0.171,3.188-0.431c0.86-0.261,1.925-0.719,2.66-0.688
			C46.209,51.512,45.815,51.224,45.815,51.224z"/>
		<path fill="#33332B" d="M30.084,55.554c-0.882,0.096-2.849,0.085-3.685-0.648c-0.837-0.732,0.23,1.458,1.606,1.84
			c1.377,0.383,3.046-0.689,4.398-1.161C32.403,55.584,30.966,55.46,30.084,55.554z"/>
		<path fill="#33332B" d="M31.107,52.6c0.259-0.198,0.582-0.252,0.582-0.252c-1.418-1.144-3.758-0.818-4.213-1.198
			c-0.456-0.379-2.562,0.074-2.562,0.074s-0.394,0.288,0.343,0.257c0.736-0.03,1.8,0.428,2.66,0.688
			C28.778,52.429,30.849,52.799,31.107,52.6z"/>
		<path fill="#33332B" d="M20.998,62.062c-0.021-0.011-0.041-0.023-0.062-0.034c0.01,0.03,0.017,0.048,0.017,0.048L20.998,62.062z"
			/>
		<polygon fill="#33332B" points="21,62.062 20.998,62.062 21,62.063 		"/>
		<path fill="#33332B" d="M57.104,13.951c-0.701-0.431-3.748-2.227-6.23-2.486c0.079,0.182,0.139,0.383,0.14,0.634
			c0.007,1.529,2.422,16.232-7.95,25.73c9.5-10.135,7.381-22.637,6.477-26.327c-0.02,0.003-0.04,0.003-0.06,0.008
			c0,0-0.019-0.203-0.071-0.516c-0.099-0.362-0.165-0.566-0.165-0.566s0.028,0.003,0.052,0.006
			c-0.245-1.063-0.806-2.628-2.009-3.384c-3.76-1.655-7.912-2.581-12.283-2.581c-4.329,0-8.44,0.906-12.165,2.53
			c-1.254,0.736-1.829,2.348-2.079,3.433c0.017-0.002,0.043-0.005,0.043-0.005s-0.057,0.175-0.143,0.486
			c-0.064,0.361-0.085,0.596-0.085,0.596c-0.021-0.005-0.046-0.005-0.068-0.009c-0.904,3.689-3.024,16.193,6.477,26.329
			c-10.372-9.498-7.957-24.201-7.952-25.73c0.001-0.25,0.06-0.451,0.14-0.632c-2.542,0.269-5.665,2.139-6.263,2.509
			C7.719,19.451,4.533,26.85,4.533,35c0,11.737,6.44,21.918,16.403,27.028c-0.297-0.867-4.583-13.845,3.898-18.02
			c2.541-1.251,4.995-1.549,6.984-0.832c1.989,0.716,3.189,3.27,3.189,3.27s1.205-2.554,3.194-3.27
			c1.989-0.717,4.458-0.419,6.998,0.832c8.424,4.147,4.278,16.978,3.935,17.996l-0.041,0.076c0.006-0.003,0.012-0.007,0.018-0.011
			c0,0.001-0.002,0.006-0.002,0.006l0.012-0.011c9.75-5.099,16.41-15.301,16.41-27.065C65.531,26.837,62.321,19.429,57.104,13.951z"
			/>
	</g>
</g>
<g id="Layer_4" display="none">
	<circle display="inline" fill="#f2f2ed" cx="35" cy="35" r="35"/>
	<circle display="inline" fill="#f2f2ed" cx="35" cy="35" r="30.529"/>
	<path display="inline" fill="#231F20" d="M35,4.47c14.404,0,26.125,12.709,26.125,28.328S49.404,61.125,35,61.125
		c-14.406,0-26.125-12.708-26.125-28.327S20.595,4.47,35,4.47 M35,4.47C18.14,4.47,4.471,18.139,4.471,35
		C4.471,51.86,18.14,65.529,35,65.529c16.86,0,30.529-13.669,30.529-30.529C65.529,18.139,51.86,4.47,35,4.47L35,4.47z"/>
	<g display="inline">
		<path fill="#231F20" d="M19.299,6.833v5.694h31.42V6.833C50.719,6.833,37.141,1.845,19.299,6.833z"/>
	</g>
	<g display="inline">
		<path fill="#EBF5ED" d="M27.073,10.258v-3.91c2.525-0.583,5.177-0.877,7.896-0.877c3.759,0,6.686,0.567,7.973,0.868v3.919H27.073z
			"/>
		<path fill="#231F20" d="M34.97,6.471c3.029,0,5.511,0.381,6.973,0.675v2.112H28.073V7.154C30.291,6.7,32.604,6.471,34.97,6.471
			 M34.97,4.471c-2.647,0-5.698,0.272-8.896,1.092v5.696h17.869V5.562C43.942,5.562,40.264,4.471,34.97,4.471L34.97,4.471z"/>
	</g>
	<g display="inline">
		<rect x="16.381" y="16.582" fill="#231F20" width="36.44" height="34.62"/>
	</g>
	<path display="inline" fill="#231F20" d="M55.277,50.531H14.74v4.45h-0.017c0,2.571,9.075,4.655,20.269,4.655
		c11.169,0,20.228-2.075,20.266-4.639h0.02V50.531z"/>
	<path display="inline" fill="#231F20" d="M46.467,55.674H23.544v4.45h-0.008c0,2.571,5.131,4.655,11.46,4.655
		c6.313,0,11.437-2.075,11.46-4.638h0.011V55.674z"/>
	<g display="inline">
		<path fill="#231F20" d="M55.255,13c-0.499-2-9.373-4.438-20.246-4.438C24.135,8.562,15.261,11,14.762,13L15,17h40L55.255,13z"/>
		<path fill="#231F20" d="M55.277,13.009H14.74v4.466h40.538V13.009L55.277,13.009z"/>
	</g>
	<g display="inline">
		<path fill="#f2f2ed" d="M34.601,41.589c-2.345,0-4.244,1.9-4.244,4.243s1.899,4.244,4.244,4.244c2.344,0,4.245-1.901,4.245-4.244
			S36.944,41.589,34.601,41.589z M34.601,48.819c-1.661,0-3.007-1.345-3.007-3.007c0-1.659,1.346-3.006,3.007-3.006
			c1.662,0,3.007,1.347,3.007,3.006C37.607,47.475,36.263,48.819,34.601,48.819z"/>
		<path fill="#f2f2ed" d="M35.554,44.066c0.295,0.349,0.473,0.8,0.473,1.292c0,1.109-0.899,2.008-2.008,2.008
			c-0.344,0-0.668-0.087-0.952-0.239c0.368,0.437,0.919,0.714,1.534,0.714c1.11,0,2.009-0.898,2.009-2.009
			C36.609,45.068,36.183,44.405,35.554,44.066z"/>
	</g>
	<path display="inline" fill="#f2f2ed" d="M46.191,37.131c-0.004,0.068-0.006,0.136-0.006,0.203c0,2.238,1.803,4.063,4.033,4.098
		v8.929c-2.059,0.032-3.755,1.594-4.002,3.597H22.5c-0.228-1.86-1.707-3.34-3.568-3.568v-8.986c2.025-0.248,3.598-1.979,3.598-4.068
		c0-0.067-0.002-0.135-0.005-0.203H46.191 M46.757,36.631H21.959c0.045,0.229,0.071,0.463,0.071,0.703
		c0,1.987-1.61,3.598-3.598,3.599v9.926c1.988,0.001,3.598,1.61,3.598,3.599h24.655c0.003-1.988,1.611-3.598,3.599-3.598
		c0.148,0,0.29,0.025,0.435,0.044V40.888c-0.145,0.019-0.286,0.045-0.435,0.045c-1.987,0-3.599-1.611-3.599-3.599
		C46.686,37.094,46.712,36.859,46.757,36.631L46.757,36.631z"/>
	<rect x="28.043" y="17.475" display="inline" fill="#f2f2ed" width="0.5" height="14.761"/>
	<rect x="40.641" y="17.475" display="inline" fill="#f2f2ed" width="0.5" height="14.761"/>
	<g display="inline">
		<path fill="#f2f2ed" d="M41.51,57.797V59.9c-2.218,0.454-4.53,0.684-6.896,0.684c-3.029,0-5.511-0.382-6.973-0.676v-2.111H41.51"
			/>
	</g>
	<polyline display="inline" fill="#f2f2ed" points="25.772,18.582 25.772,32.449 18.381,32.449 18.381,18.582 25.772,18.582 	"/>
	<polyline display="inline" fill="#f2f2ed" points="38.279,18.582 38.279,32.449 30.888,32.449 30.888,18.582 38.279,18.582 	"/>
	<polyline display="inline" fill="#f2f2ed" points="50.821,18.582 50.821,32.449 43.428,32.449 43.428,18.582 50.821,18.582 	"/>
	<rect x="14.406" y="17.225" display="inline" fill="#f2f2ed" width="41.682" height="0.5"/>
</g>
</svg>
