<?xml version="1.0" encoding="utf-8"?>
<!-- Generator: Adobe Illustrator 16.0.0, SVG Export Plug-In . SVG Version: 6.00 Build 0)  -->
<!DOCTYPE svg PUBLIC "-//W3C//DTD SVG 1.1//EN" "http://www.w3.org/Graphics/SVG/1.1/DTD/svg11.dtd">
<svg version="1.1" xmlns="http://www.w3.org/2000/svg" xmlns:xlink="http://www.w3.org/1999/xlink" x="0px" y="0px" width="70px"
	 height="70px" viewBox="0 0 70 70" enable-background="new 0 0 70 70" xml:space="preserve">

<g id="Moscow">
	<circle fill="#f2f2ed" cx="35" cy="34.999" r="35"/>
	<g>
		<circle fill="#f2f2ed" cx="35" cy="35" r="30.53"/>
		<path fill="#33332B" d="M35,4.469C18.139,4.469,4.47,18.138,4.47,35c0,16.86,13.669,30.529,30.53,30.529
			c16.86,0,30.529-13.669,30.529-30.529C65.529,18.138,51.86,4.469,35,4.469L35,4.469z"/>
	</g>
	<path fill="#f2f2ed" d="M53.593,32.167c3.638,3.652,7.685,9.034,9.047,15.802c-0.561,1.19-1.196,2.337-1.898,3.437
		c-0.363-9.713-4.688-16.159-8.549-20.018c-0.759-0.405-1.534-0.801-2.334-1.176c-0.532-0.25-1.038-0.519-1.531-0.796
		c4.819,6.229,9.918,14.819,9.918,23.308c0,0.748-0.015,1.438-0.036,2.099c-1.527,1.787-3.255,3.397-5.153,4.791
		c0.385-1.733,0.636-3.95,0.636-6.89c0-10.893-4.927-20.078-9.074-25.895c-1.418-1.21-2.616-2.522-3.629-3.86
		c3.135,7.756,7.49,20.237,7.49,29.755c0,4.958-0.168,7.917-0.436,9.882c-1.866,0.884-3.839,1.579-5.891,2.073
		c0.269-1.91,0.67-4.834,0.67-11.955c0-15.582-5.778-36.985-5.778-36.985h0.001c-0.019-0.05-0.033-0.096-0.052-0.146
		c-0.389,0.278-0.873,0.479-1.417,0.561c0.547,5.337,2.803,27.844,2.803,36.75c0,6.668-0.224,9.391-0.729,12.503
		c-0.873,0.075-1.756,0.122-2.649,0.122c-0.893,0-1.776-0.047-2.65-0.122c-0.505-3.112-0.729-5.835-0.729-12.503
		c0-8.906,2.255-31.414,2.803-36.75c-0.52-0.079-0.982-0.268-1.362-0.527c-0.037,0.124-0.072,0.241-0.111,0.373h0.004
		c0,0-5.779,21.272-5.779,36.854c0,7.121,0.402,9.979,0.67,11.889c-2.051-0.493-4.022-1.222-5.889-2.105
		c-0.268-1.965-0.436-4.939-0.436-9.897c0-9.523,4.36-22.022,7.496-29.776c-1.01,1.337-2.208,2.644-3.623,3.854
		c-4.151,5.816-9.085,15.006-9.085,25.908c0,2.939,0.25,5.155,0.635,6.889c-1.897-1.394-3.625-3.005-5.152-4.791
		c-0.022-0.661-0.037-1.352-0.037-2.1c0-8.492,5.104-17.087,9.926-23.317c-0.497,0.28-1.003,0.554-1.539,0.806
		c-0.8,0.375-1.575,0.771-2.334,1.176c-3.86,3.859-8.185,10.305-8.548,20.018c-0.703-1.1-1.339-2.246-1.899-3.437
		c1.362-6.767,5.409-12.149,9.046-15.802C10.341,35.68,5.903,40.111,4.881,44.489C8.873,56.702,21.453,66.63,35,66.63
		c13.546,0,26.127-9.928,30.119-22.141C64.097,40.111,59.659,35.68,53.593,32.167z"/>
	<path fill="#f2f2ed" d="M35,15.017c0.684,0,1.312-0.178,1.809-0.478l-0.639-3.236l0.006,0.002
		c-0.344,0.208-0.746,0.327-1.176,0.327s-0.832-0.12-1.175-0.327l0.005-0.002l-0.639,3.236C33.688,14.839,34.316,15.017,35,15.017"
		/>
	<circle fill="#f2f2ed" cx="35" cy="8" r="2"/>
</g>
</svg>
