<?xml version="1.0" encoding="utf-8"?>
<!-- Generator: Adobe Illustrator 16.0.0, SVG Export Plug-In . SVG Version: 6.00 Build 0)  -->
<!DOCTYPE svg PUBLIC "-//W3C//DTD SVG 1.1//EN" "http://www.w3.org/Graphics/SVG/1.1/DTD/svg11.dtd">
<svg version="1.1" id="Layer_1" xmlns="http://www.w3.org/2000/svg" xmlns:xlink="http://www.w3.org/1999/xlink" x="0px" y="0px"
	 width="70px" height="70px" viewBox="0 0 70 70" enable-background="new 0 0 70 70" xml:space="preserve">
<circle fill="#f2f2ed" cx="35" cy="35" r="35"/>
<path fill="#f2f2ed" stroke="#E5E3DE" stroke-linejoin="round" stroke-miterlimit="10" d="M37.723,49.066c0,0-0.2-0.602-0.428-0.632
	c-0.23-0.028-1.005-0.314-1.893,0c-0.454,0.161-0.862-0.013-1.521-0.07c-0.66-0.057-1.061,0.401-1.349,0.351
	c-0.286-0.049-1.204-0.309-1.204-0.309l1.263,1.204c0,0,3.354-0.803,4.845,0"/>
<path fill="#f2f2ed" d="M49.041,45.198c-0.045-0.245-0.093-0.501-0.142-0.763l0.41,0.763c0.15-0.415,0.282-0.841,0.398-1.272
	l15.124-1.384l-14.63-2.062c0.004-0.148,0.011-0.299,0.011-0.449c0-1.148-0.131-2.267-0.372-3.342l15.34-7.832l-16.617,4.29
	c-0.807-1.589-1.884-3.018-3.174-4.224l10.415-16.728L42.542,26.82c-1.828-1.046-3.893-1.726-6.097-1.932L35,5.225l-1.443,19.664
	c-2.206,0.207-4.271,0.886-6.099,1.932L14.196,12.195l10.415,16.728c-1.291,1.207-2.368,2.635-3.176,4.224l-16.615-4.29l15.34,7.832
	c-0.241,1.075-0.372,2.193-0.372,3.342c0,0.15,0.006,0.301,0.011,0.449l-14.63,2.062l15.125,1.384
	c0.114,0.432,0.245,0.857,0.396,1.272l0.439-0.898c-0.058,0.309-0.114,0.612-0.168,0.898c0,0-1.058,2.638-1.617,3.409
	c-0.557,0.773-0.694,0.911,0,1.399c0.697,0.487,0.508,1.019,1.415,0.768c0.54,0.696,2.527-2.161,3.224-2.486
	c0,0-0.836-2.068,2.402-9.03c0.972-2.092,4.497-3.258,6.656-4.25c2.161-0.991,1.795-1.572,1.795-1.572V31.75v-1.046
	c-0.351,0.024-0.686,0.054-1.017,0.089v-3.719c0-0.232,0.187-0.418,0.417-0.418H35h0.766c0.228,0,0.417,0.186,0.417,0.418v3.719
	c-0.331-0.036-0.666-0.065-1.017-0.089v1.046v1.686c0,0-0.366,0.581,1.793,1.572c2.161,0.992,5.687,2.158,6.658,4.25
	c3.238,6.962,2.402,9.03,2.402,9.03c0.696,0.325,2.684,3.183,3.224,2.486c0.907,0.251,0.716-0.28,1.413-0.768
	c0.696-0.488,0.559-0.626,0-1.399C50.099,47.836,49.041,45.198,49.041,45.198z M28.193,28.355l1.086-0.597
	c0.166-0.089,0.37-0.029,0.462,0.135l0.665,3.502c-0.649,0.172-1.249,0.368-1.804,0.582l-0.542-3.163
	C27.97,28.652,28.03,28.446,28.193,28.355z M25.649,30.072l0.854-0.72c0.129-0.107,0.32-0.09,0.43,0.039l0.867,2.922
	c-0.55,0.25-1.045,0.518-1.492,0.795l-0.695-2.607C25.505,30.374,25.521,30.181,25.649,30.072z M23.51,32.142l0.608-0.799
	c0.093-0.119,0.265-0.142,0.385-0.049l1.221,2.205c-0.445,0.314-0.834,0.637-1.163,0.958l-1-1.929
	C23.441,32.435,23.417,32.261,23.51,32.142z M21.994,34.746l0.359-0.83c0.056-0.125,0.2-0.183,0.327-0.128l1.26,1.35
	c-0.125,0.156-0.243,0.312-0.346,0.461c-0.131,0.196-0.26,0.434-0.383,0.698l-1.086-1.226C22,35.018,21.942,34.871,21.994,34.746z
	 M21.183,37.166l0.209-0.787c0.032-0.119,0.152-0.189,0.271-0.157l1.189,0.939c-0.138,0.373-0.269,0.778-0.396,1.209l-1.114-0.934
	C21.224,37.405,21.153,37.284,21.183,37.166z M20.94,38.954c0.015-0.111,0.116-0.187,0.226-0.173l1.011,0.608
	c-0.092,0.354-0.183,0.716-0.267,1.085l-0.893-0.571c-0.109-0.013-0.185-0.115-0.172-0.224L20.94,38.954z M20.768,42.114
	c-0.109-0.008-0.191-0.105-0.183-0.214l0.058-0.73c0.009-0.11,0.103-0.193,0.215-0.183l0.837,0.446
	c-0.078,0.361-0.153,0.724-0.224,1.08L20.768,42.114z M31.142,31.22l-0.234-3.594c-0.043-0.205,0.086-0.404,0.29-0.447l1.346-0.286
	c0.202-0.045,0.402,0.085,0.445,0.289l0.256,3.678C32.497,30.952,31.796,31.074,31.142,31.22z M49.357,41.17l0.058,0.73
	c0.009,0.108-0.073,0.206-0.185,0.214l-0.701,0.399c-0.071-0.356-0.146-0.719-0.226-1.08l0.838-0.446
	C49.252,40.977,49.349,41.06,49.357,41.17z M49.061,38.954l0.095,0.726c0.013,0.108-0.062,0.211-0.175,0.224l-0.891,0.571
	c-0.086-0.369-0.174-0.73-0.267-1.085l1.011-0.608C48.944,38.768,49.045,38.843,49.061,38.954z M48.61,36.379l0.207,0.787
	c0.03,0.118-0.041,0.239-0.159,0.271l-1.114,0.934c-0.127-0.431-0.26-0.836-0.396-1.209l1.188-0.939
	C48.456,36.189,48.578,36.26,48.61,36.379z M47.647,33.916l0.356,0.83c0.054,0.125-0.004,0.271-0.129,0.325l-1.084,1.226
	c-0.124-0.265-0.251-0.502-0.387-0.698c-0.101-0.149-0.22-0.305-0.347-0.461l1.263-1.35C47.447,33.733,47.592,33.791,47.647,33.916z
	 M45.494,31.293c0.123-0.092,0.293-0.07,0.386,0.049l0.61,0.799c0.093,0.119,0.069,0.292-0.05,0.385l-1.002,1.929
	c-0.329-0.321-0.72-0.644-1.163-0.958L45.494,31.293z M43.066,29.392c0.11-0.129,0.302-0.146,0.431-0.039l0.854,0.72
	c0.129,0.108,0.144,0.302,0.036,0.43l-0.694,2.607c-0.447-0.277-0.941-0.546-1.492-0.795L43.066,29.392z M40.684,27.758l1.089,0.597
	c0.163,0.091,0.224,0.297,0.133,0.46l-0.54,3.149c-0.557-0.213-1.154-0.407-1.804-0.578l0.662-3.493
	C40.314,27.729,40.521,27.669,40.684,27.758z M37.202,27.284c0.043-0.204,0.243-0.333,0.445-0.29l1.346,0.287
	c0.205,0.044,0.334,0.244,0.291,0.448l-0.23,3.537c-0.653-0.153-1.354-0.282-2.104-0.381L37.202,27.284z"/>
<g>
	<path fill="#33332B" d="M33.082,45.855c0.178-0.149,0.331-0.252,0.428-0.27c0.458-0.086,1.061-0.058,1.232,0L35,45.642l0.258-0.056
		c0.172-0.058,0.774-0.086,1.232,0c0.097,0.018,0.25,0.12,0.428,0.27h0.035c0,0,0.802-1.005,0.172-1.663
		c-0.633-0.66-0.862-0.861-0.862-0.861l-0.649,0.648h-1.227l-0.649-0.648c0,0-0.229,0.201-0.862,0.861
		c-0.63,0.658,0.172,1.663,0.172,1.663H33.082z"/>
</g>
<g>
	<g>
		<path fill="#33332B" d="M35.106,6.675L35,5.225l-0.106,1.451c0.036,0,0.071-0.003,0.106-0.003S35.071,6.675,35.106,6.675z"/>
	</g>
	<g>
		<path fill="#33332B" d="M60.836,31.075l4.098-2.092c-0.004-0.02-0.007-0.04-0.011-0.06l-4.264,1.101
			C60.723,30.374,60.785,30.723,60.836,31.075z"/>
	</g>
	<g>
		<path fill="#33332B" d="M53.651,15.653l1.97-3.163c-0.016-0.014-0.03-0.029-0.045-0.043l-2.415,2.663
			C53.326,15.289,53.49,15.469,53.651,15.653z"/>
	</g>
	<g>
		<path fill="#33332B" d="M60.459,29.043l4.242-1.095c-1.349-5.703-4.293-10.787-8.342-14.753l-2.025,3.254
			C57.297,20.071,59.441,24.431,60.459,29.043z"/>
	</g>
	<g>
		<path fill="#33332B" d="M16.839,15.11l-2.415-2.663c-0.016,0.014-0.03,0.029-0.045,0.043l1.969,3.162
			C16.51,15.469,16.674,15.289,16.839,15.11z"/>
	</g>
	<g>
		<path fill="#33332B" d="M15.667,16.449l-2.026-3.254c-4.048,3.966-6.993,9.05-8.342,14.753l4.243,1.095
			C10.56,24.431,12.704,20.072,15.667,16.449z"/>
	</g>
	<g>
		<path fill="#33332B" d="M36.111,6.705c6.275,0.313,11.985,3.251,16.359,7.677l2.351-2.592c-5.175-4.425-11.845-7.145-19.149-7.303
			c0.183,0.167,0.305,0.4,0.325,0.665L36.111,6.705z"/>
	</g>
	<g>
		<path fill="#33332B" d="M59.927,42.991l4.656-0.427c0.005-0.019,0.009-0.037,0.013-0.056l-4.367-0.616
			C60.135,42.261,60.035,42.627,59.927,42.991z"/>
	</g>
	<g>
		<path fill="#33332B" d="M33.889,6.705l0.114-1.554c0.02-0.265,0.142-0.498,0.325-0.665c-7.304,0.158-13.974,2.878-19.149,7.303
			l2.35,2.592C21.904,9.957,27.613,7.019,33.889,6.705z"/>
	</g>
	<g>
		<path fill="#33332B" d="M46.714,60.088c-1.323,0.759-2.17-1.547-2.17-1.547l-0.234-2.062c0,0,1.027-1.612,0.68-1.493
			c0.044-0.171-0.034-0.195-0.368,0.107c-1.038,0.946-1.604,0.426-1.604,0.426s-2.785-2.172-3.776-2.976
			c-0.992-0.802-2.125-0.944-2.125-0.944c-0.189,0.143-0.975,0.614-2.116,0.614s-1.927-0.472-2.116-0.614
			c0,0-1.133,0.143-2.125,0.944c-0.992,0.804-3.776,2.976-3.776,2.976s-0.568,0.521-1.606-0.426
			c-1.037-0.944,0.378,1.276,0.378,1.276s0.028,0.022,0.068,0.055c0.02,0.032,0.035,0.055,0.035,0.055S26,56.524,26,56.594v0.596
			c0,0.468-0.048,1.008-0.155,1.539c-0.239,0.54-1.023,2.032-2.14,1.337c-0.342-0.214-0.536-0.217-0.635-0.104
			c-5.858-3.472-10.43-9.305-12.673-15.937l-4.691-0.429C9.42,56.27,21.125,65.529,35,65.529c13.875,0,25.58-9.26,29.294-21.934
			l-4.692,0.429C57.331,50.737,52.676,56.633,46.714,60.088z"/>
	</g>
	<g>
		<path fill="#33332B" d="M65.117,30.012l-4.149,2.119c0.102,0.952,0.157,1.909,0.157,2.869c0,1.994-0.231,3.978-0.657,5.917
			l4.354,0.613c0.458-2.104,0.707-4.288,0.707-6.53C65.529,33.301,65.384,31.636,65.117,30.012z"/>
	</g>
	<g>
		<path fill="#33332B" d="M9.771,41.893l-4.367,0.616c0.005,0.019,0.008,0.037,0.013,0.056l4.657,0.427
			C9.966,42.627,9.865,42.261,9.771,41.893z"/>
	</g>
	<g>
		<path fill="#33332B" d="M9.342,30.024l-4.264-1.101c-0.004,0.02-0.006,0.04-0.011,0.06l4.097,2.092
			C9.215,30.724,9.277,30.374,9.342,30.024z"/>
	</g>
	<g>
		<path fill="#33332B" d="M8.875,35c0-0.96,0.056-1.917,0.157-2.869l-4.149-2.119C4.616,31.636,4.471,33.301,4.471,35
			c0,2.242,0.249,4.426,0.708,6.53l4.355-0.613C9.108,38.977,8.875,36.994,8.875,35z"/>
	</g>
</g>
<g>
	<g>
		<path fill="#33332B" d="M36.49,46.342c-0.458-0.085-1.061-0.057-1.232,0L35,46.4l-0.258-0.059c-0.172-0.057-0.774-0.085-1.232,0
			c-0.46,0.086-2.181,2.064-2.181,2.064l1.263,1.204c0,0,3.354-0.803,4.845,0l0.286-0.544c0,0-0.2-0.602-0.428-0.632
			c-0.23-0.028-1.005-0.314-1.893,0c-0.454,0.161-0.862-0.013-1.521-0.07c-0.66-0.057-1.061,0.401-1.349,0.351
			c-0.155-0.026-0.493-0.114-0.773-0.189c0.065-0.116,0.283-0.374,1.031-0.894C33.91,46.859,35,47.447,35,47.447
			s1.09-0.588,2.206,0.185c1.119,0.774,1.062,0.976,1.062,0.976l0.402-0.201C38.671,48.406,36.948,46.428,36.49,46.342z"/>
	</g>
	<g>
		<path fill="#33332B" d="M36.51,38.002c0,0,0.023-0.007,0.045-0.013C36.558,37.547,36.51,38.002,36.51,38.002z"/>
	</g>
	<g>
		<path fill="#33332B" d="M44.587,43.574c-0.142-0.565-1.512-1.936-1.936-3.068s-2.834-2.504-3.778-2.711
			c-0.86-0.191-2.102,0.135-2.318,0.194c-0.002,0.192-0.013,0.552-0.041,1.194c-0.095,2.125,1.817,3.21,1.817,3.21
			c3.234,0.757,0.639,0.236,3.708,0.615c3.068,0.377,3.161,5.994,3.113,4.106C45.107,45.227,44.729,44.142,44.587,43.574z"/>
	</g>
	<g>
		<path fill="#33332B" d="M33.444,37.989c0.021,0.006,0.044,0.013,0.044,0.013S33.441,37.547,33.444,37.989z"/>
	</g>
	<g>
		<path fill="#33332B" d="M33.483,39.184c-0.028-0.643-0.038-1.002-0.039-1.194c-0.214-0.06-1.457-0.386-2.32-0.194
			c-0.944,0.207-3.353,1.578-3.776,2.711c-0.426,1.133-1.793,2.503-1.935,3.068c-0.144,0.567-0.521,1.652-0.568,3.541
			c-0.045,1.888,0.047-3.729,3.116-4.106c3.069-0.379,0.473,0.142,3.705-0.615C31.667,42.394,33.581,41.309,33.483,39.184z"/>
	</g>
	<g>
		<path fill="#33332B" d="M49.708,43.926l15.124-1.384l-14.63-2.062c0.004-0.148,0.011-0.299,0.011-0.449
			c0-1.148-0.131-2.267-0.372-3.342l15.34-7.832l-16.617,4.29c-0.807-1.589-1.884-3.018-3.174-4.224l10.415-16.728L42.542,26.82
			c-1.828-1.046-3.893-1.726-6.097-1.932L35,5.225l-1.443,19.664c-2.206,0.207-4.271,0.886-6.099,1.932L14.196,12.195l10.415,16.728
			c-1.291,1.207-2.368,2.635-3.176,4.224l-16.615-4.29l15.34,7.832c-0.241,1.075-0.372,2.193-0.372,3.342
			c0,0.15,0.006,0.301,0.011,0.449l-14.63,2.062l15.125,1.384c0.114,0.432,0.245,0.857,0.396,1.272l0.439-0.898
			c-0.058,0.309-0.114,0.612-0.168,0.898c0,0-1.058,2.638-1.617,3.409c-0.557,0.773-0.694,0.911,0,1.399
			c0.697,0.487,0.508,1.019,1.415,0.768c0.54,0.696,2.527-2.161,3.224-2.486c0,0-0.836-2.068,2.402-9.03
			c0.972-2.092,4.497-3.258,6.656-4.25c2.161-0.991,1.795-1.572,1.795-1.572V31.75v-1.046c-0.351,0.024-0.686,0.054-1.017,0.089
			v-3.719c0-0.232,0.187-0.418,0.417-0.418H35h0.766c0.228,0,0.417,0.186,0.417,0.418v3.719c-0.331-0.036-0.666-0.065-1.017-0.089
			v1.046v1.686c0,0-0.366,0.581,1.793,1.572c2.161,0.992,5.687,2.158,6.658,4.25c3.238,6.962,2.402,9.03,2.402,9.03
			c0.696,0.325,2.684,3.183,3.224,2.486c0.907,0.251,0.716-0.28,1.413-0.768c0.696-0.488,0.559-0.626,0-1.399
			c-0.558-0.771-1.615-3.409-1.615-3.409c-0.045-0.245-0.093-0.501-0.142-0.763l0.41,0.763
			C49.46,44.783,49.592,44.357,49.708,43.926z M21.471,42.514l-0.704-0.399c-0.109-0.008-0.191-0.105-0.183-0.214l0.058-0.73
			c0.009-0.11,0.103-0.193,0.215-0.183l0.837,0.446C21.617,41.795,21.542,42.157,21.471,42.514z M21.91,40.475l-0.893-0.571
			c-0.109-0.013-0.185-0.115-0.172-0.224l0.095-0.726c0.015-0.111,0.116-0.187,0.226-0.173l1.011,0.608
			C22.084,39.744,21.994,40.105,21.91,40.475z M22.456,38.37l-1.114-0.934c-0.118-0.031-0.189-0.152-0.159-0.271l0.209-0.787
			c0.032-0.119,0.152-0.189,0.271-0.157l1.189,0.939C22.714,37.534,22.583,37.939,22.456,38.37z M23.594,35.599
			c-0.131,0.196-0.26,0.434-0.383,0.698l-1.086-1.226c-0.125-0.054-0.183-0.2-0.131-0.325l0.359-0.83
			c0.056-0.125,0.2-0.183,0.327-0.128l1.26,1.35C23.815,35.294,23.697,35.449,23.594,35.599z M24.562,34.456l-1-1.929
			c-0.121-0.092-0.145-0.266-0.052-0.385l0.608-0.799c0.093-0.119,0.265-0.142,0.385-0.049l1.221,2.205
			C25.28,33.812,24.89,34.135,24.562,34.456z M26.308,33.109l-0.695-2.607c-0.107-0.128-0.092-0.321,0.037-0.43l0.854-0.72
			c0.129-0.107,0.32-0.09,0.43,0.039l0.867,2.922C27.25,32.563,26.755,32.832,26.308,33.109z M28.602,31.978l-0.542-3.163
			c-0.09-0.163-0.03-0.369,0.133-0.46l1.086-0.597c0.166-0.089,0.37-0.029,0.462,0.135l0.665,3.502
			C29.757,31.568,29.157,31.764,28.602,31.978z M31.142,31.22l-0.234-3.594c-0.043-0.205,0.086-0.404,0.29-0.447l1.346-0.286
			c0.202-0.045,0.402,0.085,0.445,0.289l0.256,3.678C32.497,30.952,31.796,31.074,31.142,31.22z M39.284,27.729l-0.23,3.537
			c-0.653-0.153-1.354-0.282-2.104-0.381l0.252-3.601c0.043-0.204,0.243-0.333,0.445-0.29l1.346,0.287
			C39.198,27.325,39.327,27.525,39.284,27.729z M41.905,28.815l-0.54,3.149c-0.557-0.213-1.154-0.407-1.804-0.578l0.662-3.493
			c0.091-0.165,0.297-0.225,0.46-0.135l1.089,0.597C41.936,28.446,41.996,28.652,41.905,28.815z M42.2,32.314l0.866-2.922
			c0.11-0.129,0.302-0.146,0.431-0.039l0.854,0.72c0.129,0.108,0.144,0.302,0.036,0.43l-0.694,2.607
			C43.245,32.832,42.751,32.563,42.2,32.314z M44.275,33.498l1.219-2.205c0.123-0.092,0.293-0.07,0.386,0.049l0.61,0.799
			c0.093,0.119,0.069,0.292-0.05,0.385l-1.002,1.929C45.109,34.135,44.719,33.812,44.275,33.498z M46.404,35.599
			c-0.101-0.149-0.22-0.305-0.347-0.461l1.263-1.35c0.127-0.055,0.271,0.003,0.327,0.128l0.356,0.83
			c0.054,0.125-0.004,0.271-0.129,0.325l-1.084,1.226C46.667,36.032,46.54,35.795,46.404,35.599z M47.148,37.161l1.188-0.939
			c0.12-0.032,0.242,0.038,0.274,0.157l0.207,0.787c0.03,0.118-0.041,0.239-0.159,0.271l-1.114,0.934
			C47.417,37.939,47.284,37.534,47.148,37.161z M47.823,39.39l1.011-0.608c0.11-0.014,0.211,0.062,0.227,0.173l0.095,0.726
			c0.013,0.108-0.062,0.211-0.175,0.224l-0.891,0.571C48.004,40.105,47.916,39.744,47.823,39.39z M48.529,42.514
			c-0.071-0.356-0.146-0.719-0.226-1.08l0.838-0.446c0.11-0.011,0.207,0.072,0.216,0.183l0.058,0.73
			c0.009,0.108-0.073,0.206-0.185,0.214L48.529,42.514z"/>
	</g>
</g>
</svg>
