<?xml version="1.0" encoding="utf-8"?>
<!-- Generator: Adobe Illustrator 16.0.0, SVG Export Plug-In . SVG Version: 6.00 Build 0)  -->
<!DOCTYPE svg PUBLIC "-//W3C//DTD SVG 1.1//EN" "http://www.w3.org/Graphics/SVG/1.1/DTD/svg11.dtd">
<svg version="1.1" xmlns="http://www.w3.org/2000/svg" xmlns:xlink="http://www.w3.org/1999/xlink" x="0px" y="0px" width="70px"
	 height="70px" viewBox="0 0 70 70" enable-background="new 0 0 70 70" xml:space="preserve">

<g id="Paris">
	<circle fill="#f2f2ed" cx="35" cy="35" r="35"/>
	<g>
		<path fill="#33332B" d="M25.527,58.457c0,0,1.987,0.606,3.098,0.493c1.112-0.111,2.657,0.839,3.212,0.948
			c0.555,0.112,1.959-0.154,2.775-0.154s5.492,1.065,8.012-1.416c2-1.969,0.172,0.562-3.427,0.693
			c-3.592,0.131-5.016-0.732-6.054-0.289c-1.038,0.445-2.837-0.942-3.838-0.757C28.306,58.16,26.824,58.383,25.527,58.457z"/>
		<path fill="#33332B" d="M28.181,61.797c0,0,0.928,1.679,4.608,1.358c3.681-0.322,5.152-0.283,5.254-0.66
			c0.051-0.188,0.895,1.124-1.037,1.375C35.123,64.115,30.812,65.322,28.181,61.797z"/>
		<path fill="#33332B" d="M25.891,49.025c0,0,1.234,0.33,1.565,0.949c0.332,0.618,1.422,1.993,2.608,1.993
			c1.187,0,2.106-0.521,3.165-0.995c1.057-0.476,3.097-1.091,4.141-0.476c1.044,0.617,2.181-0.239,2.466-0.807
			c0.285-0.569,0.38,1.708-1.281,2.277c-1.66,0.567-4.411,2.846-7.352,1.423s-3.035-2.37-3.937-2.75
			C26.366,50.26,25.322,50.117,25.891,49.025z"/>
	</g>
	<path fill="#33332B" d="M57.167,73.25"/>
	<g>
		<path fill="#33332B" d="M32.224,9c0.003,0,0.006,0,0.009,0c0.092-2,0.675-3.319,1.321-4.498
			C17.365,5.257,4.571,18.622,4.571,34.998C4.571,39.974,6,44.658,8,48.809V42.36c0-0.251,0-0.504,0-0.761
			C8,21.076,18.988,10,32.224,9z"/>
		<path fill="#33332B" d="M62,48.832c2-4.155,3.436-8.847,3.436-13.832c0-15.852-12.037-28.879-27.494-30.382
			c0,0-0.67-0.103-2.02-0.124c-0.121-0.004-0.23-0.005-0.351-0.009c-0.636,1.158-1.217,2.661-1.338,4.407
			c0.253-0.008,0.509-0.017,0.764-0.017C49.401,8.876,62,20.833,62,41.606c0,0.384,0,0.757,0,1.132V48.832z"/>
	</g>
</g>
</svg>
