<?xml version="1.0" encoding="utf-8"?>
<!-- Generator: Adobe Illustrator 16.0.0, SVG Export Plug-In . SVG Version: 6.00 Build 0)  -->
<!DOCTYPE svg PUBLIC "-//W3C//DTD SVG 1.1//EN" "http://www.w3.org/Graphics/SVG/1.1/DTD/svg11.dtd">
<svg version="1.1" xmlns="http://www.w3.org/2000/svg" xmlns:xlink="http://www.w3.org/1999/xlink" x="0px" y="0px" width="70px"
	 height="70px" viewBox="0 0 70 70" enable-background="new 0 0 70 70" xml:space="preserve">

<g id="Rome_1_">
	<g>
		<circle fill="#f2f2ed" cx="35" cy="35" r="35"/>
		<g>
			<circle fill="#f2f2ed" cx="35" cy="35.001" r="30.53"/>
			<path fill="#231F20" d="M35.001,4.47c-16.861,0-30.53,13.669-30.53,30.531c0,16.86,13.669,30.53,30.53,30.53
				c16.86,0,30.529-13.67,30.529-30.53C65.53,18.139,51.861,4.47,35.001,4.47L35.001,4.47z"/>
		</g>
		<g>
			<circle fill="#f2f2ed" cx="34.999" cy="34.998" r="6.837"/>
			<path fill="#f2f2ed" d="M34.063,16.184h0.624h0.624h0.623h0.622v-3.537H33.44v3.537H34.063z M35.311,15.558L35.311,15.558
				l0.295-0.001v0.001H35.311z M34.687,15.138h-0.294v-1.604h1.213v1.604h-0.295 M34.393,15.557h0.294v0.001L34.393,15.557
				L34.393,15.557z M36.228,12.976v2.582h-0.294v-2.354h-1.87v2.354h-0.295v-2.582H36.228z"/>
			<path fill="#f2f2ed" d="M29.292,17.002l0.608-0.138v0.001l0.607-0.141l0,0l0.302-0.069l0.276-0.061l1.243-0.284l-0.787-3.446
				l-3.038,0.69L29.292,17.002z M30.976,15.975L30.976,15.975l0.286-0.066v0.001L30.976,15.975z M30.274,15.706l-0.288,0.065
				l-0.356-1.564l1.182-0.269l0.359,1.563l-0.289,0.064 M30.08,16.181l0.288-0.068v0.002L30.08,16.181L30.08,16.181z M31.871,15.772
				l-0.287,0.067l-0.525-2.296l-1.824,0.416l0.525,2.295l-0.288,0.066l-0.576-2.519l2.4-0.545L31.871,15.772z"/>
			<path fill="#f2f2ed" d="M26.702,14.188l-2.808,1.35l1.534,3.186l0.562-0.27l0,0l0.17-0.083l0.393-0.188l0,0l0.093-0.045
				l1.59-0.766L26.702,14.188z M26.842,17.351L26.842,17.351l0.267-0.132v0.002L26.842,17.351z M26.098,17.242l-0.266,0.126
				l-0.696-1.443l1.093-0.528l0.697,1.443l-0.267,0.13 M26.014,17.747l0.266-0.13l0,0L26.014,17.747L26.014,17.747z M26.549,14.625
				l1.12,2.325l-0.266,0.13l-1.021-2.121l-1.684,0.812l1.021,2.118l-0.267,0.128l-1.121-2.326L26.549,14.625z"/>
			<path fill="#f2f2ed" d="M22.533,20.873L22.533,20.873l0.487-0.389l0,0l0.147-0.116l0.002-0.002l1.313-1.045l-2.205-2.766
				l-2.438,1.942l2.207,2.765L22.533,20.873z M23.118,19.608v-0.002l0.23-0.186h0.001L23.118,19.608z M22.369,19.666l-0.23,0.185
				l-1.001-1.253l0.948-0.758l1.001,1.254l-0.232,0.183 M22.4,20.179l0.231-0.184l0,0L22.4,20.181V20.179z M22.226,17.015
				l1.61,2.021l-0.231,0.182l-1.465-1.839l-1.462,1.166l1.468,1.841l-0.232,0.184l-1.611-2.019L22.226,17.015z"/>
			<path fill="#f2f2ed" d="M16.548,22.286l2.765,2.202l0.388-0.487l0,0l0.495-0.619l1.06-1.33l-2.765-2.205L16.548,22.286z
				 M19.99,22.638L19.99,22.638l0.183-0.233h0.001L19.99,22.638z M19.272,22.862l-0.183,0.23l-1.254-0.999l0.756-0.949l1.255,0.999
				l-0.184,0.23 M19.417,23.355l0.183-0.232h0.001L19.417,23.355L19.417,23.355z M20.562,21.919l-0.184,0.229l-1.839-1.466
				l-1.167,1.461l1.841,1.467l-0.186,0.232l-2.019-1.61l1.535-1.926L20.562,21.919z"/>
			<path fill="#f2f2ed" d="M14.181,26.711l3.186,1.533l0.271-0.564v0.001l0.49-1.018l0.591-1.228l-3.187-1.532L14.181,26.711z
				 M17.615,26.288L17.615,26.288l0.127-0.268h0.002L17.615,26.288z M16.965,26.666l-0.129,0.267l-1.444-0.695l0.525-1.094
				l1.446,0.693l-0.129,0.27 M17.215,27.115l0.127-0.268h0.003L17.215,27.115L17.215,27.115z M18.014,25.461l-0.128,0.262
				l-2.12-1.017l-0.811,1.683l2.12,1.021l-0.128,0.267l-2.327-1.118l1.067-2.217L18.014,25.461z"/>
			<path fill="#f2f2ed" d="M12.858,31.552l3.447,0.785l0.138-0.607h0.001l0.377-1.658l0.176-0.771l-3.446-0.789L12.858,31.552z
				 M16.11,30.375L16.11,30.375l0.066-0.287h0.001L16.11,30.375z M15.562,30.887l-0.065,0.292l-1.562-0.358l0.268-1.183l1.564,0.357
				l-0.066,0.287 M15.905,31.268l0.066-0.286h0.001l-0.066,0.287L15.905,31.268z M16.315,29.479l-0.064,0.286l-2.295-0.521
				l-0.415,1.823l2.294,0.521l-0.066,0.288l-2.517-0.572l0.547-2.4L16.315,29.479z"/>
			<path fill="#f2f2ed" d="M12.646,36.564h3.536v-0.626h0.001l-0.001-1.869V33.45h-3.536V36.564z M15.556,34.694h-0.002v-0.295
				h0.002V34.694z M15.135,35.316v0.295l-1.604,0.001V34.4l1.605-0.001l-0.001,0.295 M15.554,35.316h0.002v0.295h-0.002V35.316z
				 M12.973,33.777h2.582v0.294l-2.352,0.002l0.001,1.867l2.352-0.001v0.295l-2.583,0.004V33.777z"/>
			<path fill="#f2f2ed" d="M17.001,40.713l-0.139-0.611l0,0l-0.139-0.607l0,0l-0.069-0.301l-0.074-0.316l-0.273-1.203l-3.446,0.789
				l0.692,3.039L17.001,40.713z M15.975,39.029l-0.002,0.002l-0.066-0.289h0.002L15.975,39.029z M15.703,39.729l0.065,0.289
				l-1.562,0.359l-0.271-1.184l1.563-0.359l0.066,0.293 M16.178,39.926l-0.065-0.291h0.002l0.066,0.291H16.178z M15.77,38.133
				l0.067,0.287l-2.295,0.525l0.418,1.824l2.292-0.525l0.067,0.289l-2.519,0.574l-0.548-2.396L15.77,38.133z"/>
			<path fill="#f2f2ed" d="M18.724,44.576l-0.271-0.562h0.001l-0.271-0.564l0,0l-0.134-0.279l-0.389-0.807l-0.289-0.596
				l-3.184,1.535l1.353,2.807L18.724,44.576z M17.348,43.16L17.348,43.16l-0.129-0.264v-0.002L17.348,43.16z M17.24,43.904
				l0.128,0.266l-1.444,0.701l-0.527-1.094l1.445-0.699l0.128,0.266 M17.746,43.99l-0.129-0.268h0.001l0.13,0.268H17.746z
				 M16.95,42.336l0.127,0.266l-2.118,1.021l0.812,1.686l2.119-1.025l0.128,0.268l-2.326,1.123l-1.068-2.217L16.95,42.336z"/>
			<path fill="#f2f2ed" d="M21.262,47.955l-0.39-0.486l0.002-0.004l-0.389-0.484l0,0l-0.195-0.244l-0.449-0.561l-0.521-0.654
				l-2.763,2.205l1.942,2.439L21.262,47.955z M19.607,46.885L19.607,46.885l-0.185-0.23l0,0L19.607,46.885z M19.666,47.635
				l0.185,0.232l-1.253,1l-0.757-0.949l1.253-1l0.185,0.23 M20.179,47.604l-0.184-0.234l0,0l0.185,0.234H20.179z M19.034,46.168
				l0.184,0.23l-1.838,1.471l1.166,1.461l1.84-1.471l0.184,0.229l-2.019,1.615l-1.534-1.928L19.034,46.168z"/>
			<path fill="#f2f2ed" d="M24.49,50.688l-0.488-0.387h0.001l-0.489-0.391l0,0l-0.486-0.387l0,0l-0.054-0.045l-0.919-0.732
				l-2.204,2.766l2.438,1.943L24.49,50.688z M22.64,50.012l-0.001,0.002l-0.231-0.186v-0.002L22.64,50.012z M22.862,50.729
				l0.232,0.188l-0.999,1.252l-0.95-0.754l0.999-1.258l0.23,0.186 M23.356,50.588l-0.231-0.184l0.001-0.006l0.232,0.188
				L23.356,50.588z M20.312,51.459l1.61-2.02l0.23,0.182l-1.465,1.842l1.462,1.168l1.465-1.842l0.231,0.184l-1.611,2.021
				L20.312,51.459z"/>
			<path fill="#f2f2ed" d="M27.12,52.092L27.12,52.092l-0.559-0.27l0,0l-0.112-0.051l-1.011-0.49l-1.533,3.186l2.81,1.355
				l1.53-3.189l-0.562-0.27v-0.002L27.12,52.092z M26.29,52.387l-0.001,0.002l-0.267-0.131h0.002L26.29,52.387z M26.667,53.035
				l0.268,0.131l-0.694,1.443l-1.095-0.525l0.695-1.447l0.265,0.131 M27.116,52.785l-0.266-0.129h0.001l0.266,0.125L27.116,52.785z
				 M26.561,55.383l-2.219-1.07l1.122-2.324l0.265,0.129l-1.019,2.121l1.683,0.809l1.02-2.121l0.267,0.127L26.561,55.383z"/>
			<path fill="#f2f2ed" d="M31.73,53.557v-0.002l-0.607-0.139v-0.002l-0.606-0.135l0,0l-0.32-0.074l-0.893-0.203l-0.786,3.447
				l3.039,0.693l0.784-3.449L31.73,53.557z M30.378,53.889L30.378,53.889l-0.288-0.066l0,0L30.378,53.889z M30.891,54.438
				l0.289,0.066l-0.355,1.562l-1.183-0.27l0.353-1.564l0.288,0.066 M31.273,54.094l-0.288-0.066v-0.002l0.288,0.064V54.094z
				 M31.31,56.75l-2.401-0.549l0.574-2.52l0.287,0.066l-0.521,2.295l1.821,0.418l0.522-2.297l0.289,0.066L31.31,56.75z"/>
			<path fill="#f2f2ed" d="M36.567,53.818h-0.624v-0.002h-0.626l0,0h-0.621l0,0l-0.622,0.002h-0.625l0.001,3.535h3.12L36.567,53.818
				z M35.32,54.863h0.296l0.002,1.604h-1.214l-0.001-1.604h0.293 M34.697,54.441v0.002h-0.296v-0.002H34.697z M35.616,54.443h-0.297
				v-0.002h0.297V54.443z M33.778,57.025v-2.582h0.297l0.001,2.354h1.871l-0.003-2.355h0.294l0.004,2.584H33.778z"/>
			<path fill="#f2f2ed" d="M38.467,57.137l3.039-0.693l-0.79-3.447l-0.608,0.139h-0.001l-0.608,0.141v-0.004l-0.606,0.141l0,0
				l-0.607,0.139l0,0l-0.604,0.137L38.467,57.137z M38.744,54.088l0.288-0.066v0.002l-0.288,0.066V54.088z M39.733,54.293
				l0.288-0.064l0.358,1.561l-1.183,0.271l-0.36-1.562l0.29-0.066 M39.927,53.818l-0.287,0.068l-0.001-0.002l0.288-0.068V53.818z
				 M41.113,56.195l-2.401,0.549l-0.575-2.518l0.289-0.066l0.524,2.293l1.824-0.416l-0.528-2.293l0.289-0.068L41.113,56.195z"/>
			<path fill="#f2f2ed" d="M43.306,55.811l2.809-1.354l-1.537-3.184l-0.562,0.271v-0.004l-0.562,0.271H43.45l-0.27,0.131
				l-0.851,0.41l0,0l-0.559,0.27L43.306,55.811z M42.897,52.775l0.269-0.131v0.004l-0.267,0.127H42.897z M43.907,52.758l0.267-0.131
				l0.698,1.443L43.779,54.6l-0.697-1.445l0.265-0.129 M43.992,52.248l-0.268,0.131l-0.001-0.002L43.992,52.248L43.992,52.248z
				 M43.459,55.373l-1.121-2.328l0.265-0.127l1.023,2.117l1.683-0.811l-1.021-2.119l0.267-0.127l1.123,2.324L43.459,55.373z"/>
			<path fill="#f2f2ed" d="M50.167,51.494l-2.208-2.764l-0.488,0.391v-0.002l-0.489,0.391H46.98l-0.162,0.129l-0.685,0.549
				l-0.611,0.486l2.206,2.764L50.167,51.494z M47.78,52.979l-1.609-2.02l0.229-0.184l1.469,1.836l1.461-1.164l-1.47-1.84
				l0.231-0.186l1.613,2.02L47.78,52.979z M46.886,50.387L46.886,50.387l-0.229,0.188l-0.001-0.002L46.886,50.387z M47.636,50.326
				l0.233-0.184l0.999,1.252l-0.949,0.756l-0.998-1.252l0.229-0.182 M47.605,49.814L47.373,50l0,0L47.605,49.814L47.605,49.814z"/>
			<path fill="#f2f2ed" d="M53.457,47.703l-2.768-2.199l-0.388,0.486h-0.001l-0.391,0.488l0,0l-0.234,0.295l-0.33,0.416
				l-0.599,0.748l2.766,2.205L53.457,47.703z M50.013,47.355L50.013,47.355l-0.183,0.232h-0.001L50.013,47.355z M50.73,47.129
				l0.184-0.23l1.255,0.998l-0.756,0.949l-1.254-0.998l0.184-0.232 M50.586,46.635l-0.185,0.234L50.4,46.867l0.185-0.234
				L50.586,46.635z M49.441,48.072l0.184-0.23l1.84,1.463l1.168-1.461l-1.844-1.463l0.186-0.234l2.021,1.611l-1.535,1.926
				L49.441,48.072z"/>
			<path fill="#f2f2ed" d="M55.821,43.275l-3.187-1.529l-0.272,0.562h-0.001l-0.271,0.562H52.09l-0.183,0.381l-0.22,0.461
				l-0.404,0.842l3.187,1.533L55.821,43.275z M52.386,43.703L52.386,43.703l-0.125,0.268l-0.004-0.002L52.386,43.703z
				 M53.034,43.324l0.129-0.268l1.445,0.693l-0.525,1.094l-1.445-0.693l0.128-0.268 M52.786,42.875l-0.13,0.268h-0.001
				L52.786,42.875L52.786,42.875z M51.988,44.527l0.128-0.262l2.118,1.016l0.813-1.684l-2.122-1.018l0.128-0.268l2.327,1.117
				l-1.064,2.221L51.988,44.527z"/>
			<path fill="#f2f2ed" d="M57.14,38.436l-3.447-0.785l-0.139,0.607h-0.001l-0.139,0.611h-0.001l-0.137,0.607h0.001l-0.062,0.27
				l-0.216,0.943l3.448,0.785L57.14,38.436z M53.886,39.613h0.003l-0.066,0.289H53.82L53.886,39.613z M54.437,39.1l0.064-0.287
				l1.563,0.354l-0.27,1.186l-1.563-0.357l0.065-0.287 M54.093,38.721l-0.066,0.287h-0.003l0.067-0.289L54.093,38.721z
				 M53.684,40.508l0.063-0.287l2.294,0.52l0.417-1.82l-2.296-0.521l0.066-0.289l2.518,0.572L56.2,41.084L53.684,40.508z"/>
			<path fill="#f2f2ed" d="M57.349,33.419l-3.534,0.005v0.625h-0.004l0.003,0.624l0,0l0.001,0.62l0,0v0.115v1.128h3.536
				L57.349,33.419z M54.439,35.293h0.002l0.001,0.295h-0.001L54.439,35.293z M54.86,34.671v-0.296l1.604-0.001l-0.001,1.214
				l-1.604,0.001v-0.295 M54.441,34.375v0.298h-0.002v-0.298H54.441z M54.441,36.213v-0.295l2.349-0.002l0.003-1.868h-2.354v-0.294
				l2.582-0.004l0.002,2.462L54.441,36.213z"/>
			<path fill="#f2f2ed" d="M53.406,31.1L53.406,31.1l0.062,0.261l0.218,0.95l3.445-0.786l-0.694-3.04l-3.446,0.79l0.14,0.609
				l-0.003,0.001l0.141,0.605l0,0L53.406,31.1z M54.018,30.959L54.018,30.959l0.068,0.287h-0.002L54.018,30.959z M54.289,30.26
				l-0.066-0.29l1.563-0.358l0.269,1.181l-1.562,0.361l-0.065-0.289 M53.814,30.062l0.066,0.29h-0.003L53.814,30.062L53.814,30.062z
				 M56.739,31.277l-2.518,0.576l-0.064-0.286l2.29-0.527l-0.415-1.822l-2.292,0.526l-0.068-0.289l2.519-0.577L56.739,31.277z"/>
			<path fill="#f2f2ed" d="M51.265,25.415l0.272,0.562h-0.003l0.272,0.562l-0.001,0.001l0.271,0.56l0,0l0.132,0.269l0.408,0.853
				l3.186-1.537l-1.354-2.807L51.265,25.415z M52.641,26.827L52.641,26.827l0.131,0.264l-0.003,0.003L52.641,26.827z M52.75,26.085
				l-0.131-0.268l1.446-0.697l0.525,1.093l-1.442,0.696l-0.129-0.265 M52.242,25.999l0.129,0.267l-0.001,0.001l-0.13-0.268H52.242z
				 M53.039,27.652l-0.128-0.263l2.119-1.023l-0.812-1.685l-2.121,1.025l-0.127-0.267l2.325-1.124l1.068,2.216L53.039,27.652z"/>
			<path fill="#f2f2ed" d="M48.725,22.036l0.389,0.486l-0.003,0.001l0.391,0.488l0,0l0.389,0.485l0,0l0.232,0.29l0.546,0.684
				l2.763-2.208l-1.946-2.435L48.725,22.036z M50.378,23.107l0.003-0.004l0.185,0.232l-0.002,0.002L50.378,23.107z M50.319,22.357
				l-0.186-0.232l1.253-1l0.757,0.95l-1.251,1l-0.188-0.23 M49.807,22.387l0.186,0.233l-0.001,0.001l-0.186-0.232L49.807,22.387z
				 M50.95,23.823l-0.182-0.229l1.836-1.471l-1.165-1.459l-1.84,1.47L49.415,21.9l2.019-1.613l1.535,1.922L50.95,23.823z"/>
			<path fill="#f2f2ed" d="M45.493,19.304l0.488,0.389l-0.001,0.001l0.646,0.513l0.33,0.261l0,0l0.109,0.088l0.865,0.687
				l2.202-2.766l-2.439-1.941L45.493,19.304z M47.346,19.979L47.346,19.979l0.232,0.182l-0.001,0.002L47.346,19.979z M47.12,19.264
				l-0.233-0.183l1-1.257l0.949,0.755l-0.996,1.256l-0.233-0.183 M46.627,19.409l0.233,0.183l-0.001,0.002L46.627,19.409
				L46.627,19.409z M49.672,18.533l-1.608,2.02l-0.23-0.185l1.464-1.84l-1.461-1.165l-1.466,1.839l-0.231-0.183l1.608-2.021
				L49.672,18.533z"/>
			<path fill="#f2f2ed" d="M43.135,18.034l0.287,0.138v-0.001l0.056,0.028l1.066,0.514l1.532-3.188l-2.81-1.352l-1.529,3.188
				l0.561,0.273l0,0L43.135,18.034z M43.692,17.606L43.692,17.606l0.267,0.13v0.001L43.692,17.606z M43.312,16.959l-0.266-0.128
				l0.695-1.446l1.092,0.527l-0.692,1.445l-0.268-0.129 M42.864,17.209l0.27,0.13l-0.002,0.001l-0.268-0.128V17.209z M43.421,14.61
				l2.218,1.071l-1.119,2.325l-0.265-0.127l1.018-2.122l-1.685-0.81l-1.018,2.124l-0.269-0.13L43.421,14.61z"/>
			<path fill="#f2f2ed" d="M38.249,16.445L38.249,16.445l0.943,0.213l0.272,0.062l0,0l0.028,0.009l1.187,0.267l0.784-3.447
				l-3.039-0.692l-0.783,3.449L38.249,16.445z M39.604,16.108v-0.002l0.288,0.068v0.002L39.604,16.108z M39.092,15.561l-0.291-0.066
				l0.355-1.563l1.183,0.269l-0.354,1.563l-0.288-0.064 M38.709,15.905l0.288,0.065l0,0L38.709,15.905L38.709,15.905z
				 M38.671,13.249l2.4,0.546l-0.573,2.52l-0.286-0.067l0.52-2.293L38.91,13.54l-0.523,2.295l-0.288-0.067L38.671,13.249z"/>
			<path fill="#f2f2ed" d="M37.396,5.84h-4.793v5.361h4.793V5.84z M37.067,6.167v3.989h-0.39V6.999h-3.356v3.157h-0.392V6.167
				H37.067z M35.63,9.021h-1.26v-0.52h1.26V9.021z M34.04,9.469h-0.391V7.325h2.701v2.144h-0.392"/>
			<path fill="#f2f2ed" d="M26.172,7.105l1.194,5.226l4.674-1.065l-1.193-5.227L26.172,7.105z M30.598,6.429l0.889,3.891
				l-0.381,0.088l-0.704-3.083l-3.271,0.749l0.704,3.076l-0.381,0.092l-0.889-3.89L30.598,6.429z M28.486,9.306l1.232-0.28
				l0.114,0.507l-1.23,0.28L28.486,9.306z M28.382,10.323l-0.381,0.087l-0.477-2.09l2.631-0.599l0.477,2.09l-0.38,0.085"/>
			<path fill="#f2f2ed" d="M20.186,9.768l2.327,4.83l4.318-2.078l-2.329-4.831L20.186,9.768z M24.351,8.127l1.73,3.593l-0.352,0.169
				l-1.37-2.846L21.335,10.5l1.37,2.844l-0.352,0.171l-1.73-3.593L24.351,8.127z M23.156,11.869L22.931,11.4l1.138-0.549l0.226,0.47
				L23.156,11.869z M23.055,12.414l-0.352,0.168l-0.929-1.929l2.43-1.174l0.93,1.935l-0.351,0.167"/>
			<path fill="#f2f2ed" d="M14.942,13.699l3.343,4.19l3.748-2.989l-3.344-4.188L14.942,13.699z M18.635,11.17l2.487,3.119
				l-0.306,0.243l-1.97-2.471l-2.622,2.094l1.969,2.471l-0.305,0.242l-2.487-3.118L18.635,11.17z M18.305,15.084l-0.324-0.406
				l0.986-0.787l0.323,0.407L18.305,15.084z M18.33,15.638l-0.308,0.245l-1.336-1.676l2.11-1.682l1.336,1.674l-0.305,0.242"/>
			<path fill="#f2f2ed" d="M10.703,18.698l4.194,3.341l2.987-3.746l-4.195-3.343L10.703,18.698z M14.291,19.301l-0.406-0.325
				l0.787-0.989l0.408,0.326L14.291,19.301z M14.439,19.833l-0.244,0.305l-1.677-1.335l1.682-2.11l1.678,1.337l-0.244,0.305
				 M16.862,17.896l-0.244,0.307l-2.469-1.97l-2.091,2.624l2.467,1.97l-0.243,0.306l-3.118-2.488l2.578-3.232L16.862,17.896z"/>
			<path fill="#f2f2ed" d="M7.685,24.514l4.833,2.326l2.079-4.319l-4.833-2.325L7.685,24.514z M11.317,24.3l-0.469-0.224
				l0.546-1.136l0.47,0.225L11.317,24.3z M11.58,24.789l-0.17,0.356l-1.934-0.932l1.171-2.432l1.934,0.932l-0.17,0.351
				 M13.509,22.36l-0.168,0.354l-2.846-1.369l-1.454,3.021l2.845,1.368l-0.171,0.356l-3.592-1.729l1.793-3.73L13.509,22.36z"/>
			<path fill="#f2f2ed" d="M6.035,30.856l5.228,1.189l1.067-4.672l-5.229-1.19L6.035,30.856z M9.529,29.841l-0.506-0.115l0.279-1.23
				l0.509,0.114L9.529,29.841z M9.896,30.26l-0.088,0.381l-2.09-0.478l0.599-2.631l2.091,0.479l-0.086,0.381 M11.235,27.46
				l-0.087,0.38l-3.08-0.701l-0.744,3.273l3.08,0.699l-0.086,0.383L6.429,30.61l0.919-4.035L11.235,27.46z"/>
			<path fill="#f2f2ed" d="M5.839,37.406l5.363-0.002l-0.001-4.793l-5.362,0.002L5.839,37.406z M9.019,35.64H8.5v-1.263h0.521
				L9.019,35.64z M9.47,35.966v0.392H7.325l-0.001-2.7h2.146v0.393 M10.153,32.939v0.39H6.997l0.001,3.356h3.158v0.393H6.168
				l-0.002-4.137L10.153,32.939z"/>
			<path fill="#f2f2ed" d="M12.334,42.639l-1.068-4.67l-5.225,1.195l1.066,4.67L12.334,42.639z M9.533,40.176l0.281,1.23
				l-0.507,0.115l-0.282-1.23L9.533,40.176z M10.326,41.623l0.087,0.381L8.321,42.48L7.72,39.852l2.09-0.479l0.087,0.383
				 M10.319,38.52l0.088,0.383l-3.08,0.703l0.748,3.27l3.08-0.701l0.086,0.379l-3.887,0.889l-0.921-4.033L10.319,38.52z"/>
			<path fill="#f2f2ed" d="M14.603,47.494l-2.081-4.32l-4.83,2.332l2.082,4.316L14.603,47.494z M11.325,45.713l0.546,1.139
				l-0.469,0.227l-0.547-1.139L11.325,45.713z M12.418,46.947l0.17,0.355l-1.931,0.93l-1.172-2.432l1.931-0.93l0.17,0.352
				 M11.722,43.926l0.169,0.354L9.046,45.65l1.458,3.02l2.844-1.371l0.171,0.352l-3.593,1.734L8.13,45.658L11.722,43.926z"/>
			<path fill="#f2f2ed" d="M17.895,51.717l-2.988-3.744l-4.19,3.346l2.988,3.746L17.895,51.717z M14.303,50.715l0.786,0.982
				l-0.406,0.328l-0.787-0.986L14.303,50.715z M15.644,51.676l0.245,0.305l-1.676,1.34l-1.684-2.111l1.674-1.336l0.245,0.307
				 M14.292,48.883l0.245,0.305l-2.47,1.969l2.095,2.621l2.467-1.967l0.244,0.303l-3.117,2.488l-2.58-3.23L14.292,48.883z"/>
			<path fill="#f2f2ed" d="M22.045,55.105l-3.749-2.984l-3.341,4.193l3.75,2.986L22.045,55.105z M18.318,54.926l0.987,0.787
				l-0.323,0.406l-0.988-0.785L18.318,54.926z M19.841,55.566l0.308,0.244l-1.337,1.676l-2.113-1.682l1.338-1.678l0.305,0.242
				 M15.417,56.262l2.483-3.119l0.308,0.242l-1.969,2.473l2.625,2.088l1.968-2.471l0.307,0.244l-2.485,3.123L15.417,56.262z"/>
			<path fill="#f2f2ed" d="M26.844,57.486l-4.32-2.078l-2.321,4.832l4.319,2.078L26.844,57.486z M23.172,58.137l1.138,0.549
				l-0.225,0.471l-1.138-0.549L23.172,58.137z M24.8,58.424l0.352,0.168l-0.929,1.932l-2.435-1.168l0.931-1.934l0.352,0.17
				 M20.64,60.088l1.728-3.596l0.354,0.17l-1.37,2.848l3.025,1.451l1.369-2.842l0.352,0.168l-1.728,3.594L20.64,60.088z"/>
			<path fill="#f2f2ed" d="M32.053,58.734l-4.672-1.062l-1.188,5.23l4.672,1.062L32.053,58.734z M28.619,60.191l1.231,0.279
				l-0.116,0.508l-1.231-0.281L28.619,60.191z M30.269,60.105l0.381,0.088l-0.477,2.088l-2.631-0.596l0.476-2.092l0.381,0.086
				 M26.585,62.652l0.884-3.887l0.383,0.088l-0.703,3.078l3.271,0.742l0.703-3.076l0.379,0.084l-0.885,3.891L26.585,62.652z"/>
			<path fill="#f2f2ed" d="M32.624,64.162l4.791-0.004l-0.004-5.361l-4.792,0.002L32.624,64.162z M32.951,63.832l-0.003-3.99h0.392
				l0.001,3.162l3.355-0.006l-0.001-3.156l0.39-0.002l0.002,3.99L32.951,63.832z M35.976,60.529h0.39l0.001,2.141l-2.697,0.004
				l-0.001-2.145h0.392 M35.648,61.5h-1.262v-0.521h1.261L35.648,61.5z"/>
			<path fill="#f2f2ed" d="M43.844,62.889l-1.197-5.225l-4.672,1.068l1.198,5.227L43.844,62.889z M39.421,63.566l-0.893-3.887
				l0.383-0.088l0.703,3.078l3.27-0.75l-0.704-3.076l0.382-0.088l0.889,3.887L39.421,63.566z M41.53,60.689l-1.23,0.283
				l-0.116-0.512l1.229-0.279L41.53,60.689z M41.632,59.672l0.381-0.086l0.479,2.088l-2.63,0.605l-0.479-2.094l0.382-0.088"/>
			<path fill="#f2f2ed" d="M49.829,60.221l-2.331-4.828l-4.316,2.08l2.332,4.83L49.829,60.221z M45.667,61.865l-1.734-3.59
				l0.353-0.172l1.374,2.848l3.019-1.461l-1.371-2.844l0.351-0.168l1.734,3.588L45.667,61.865z M46.857,58.123l0.228,0.469
				l-1.137,0.547l-0.227-0.467L46.857,58.123z M46.957,57.576l0.353-0.17l0.931,1.93l-2.43,1.178l-0.932-1.938l0.353-0.17"/>
			<path fill="#f2f2ed" d="M55.071,56.287l-3.348-4.191l-3.744,2.994l3.348,4.189L55.071,56.287z M51.379,58.814l-2.49-3.111
				l0.307-0.246l1.972,2.469l2.619-2.094l-1.97-2.471l0.303-0.24l2.49,3.115L51.379,58.814z M51.705,54.9l0.328,0.41l-0.987,0.787
				l-0.325-0.406L51.705,54.9z M51.683,54.35l0.305-0.244l1.338,1.674l-2.106,1.686l-1.341-1.678l0.306-0.242"/>
			<path fill="#f2f2ed" d="M59.305,51.285l-4.195-3.338l-2.984,3.748l4.195,3.34L59.305,51.285z M55.716,50.686l0.409,0.32
				l-0.786,0.99l-0.408-0.324L55.716,50.686z M55.569,50.148l0.244-0.305l1.676,1.338l-1.678,2.109l-1.681-1.338l0.244-0.305
				 M53.148,52.092l0.244-0.309l2.471,1.971l2.086-2.627L55.48,49.16l0.244-0.307l3.118,2.482l-2.574,3.236L53.148,52.092z"/>
			<path fill="#f2f2ed" d="M62.319,45.467l-4.833-2.322l-2.074,4.32l4.834,2.322L62.319,45.467z M58.688,45.68l0.47,0.227
				l-0.546,1.139l-0.472-0.227L58.688,45.68z M58.426,45.191l0.169-0.352l1.934,0.928l-1.168,2.434l-1.936-0.93l0.172-0.354
				 M56.496,47.623l0.17-0.352l2.848,1.367l1.45-3.025l-2.846-1.367l0.171-0.354l3.594,1.729l-1.79,3.729L56.496,47.623z"/>
			<path fill="#f2f2ed" d="M63.964,39.127l-5.229-1.189l-1.061,4.674l5.229,1.188L63.964,39.127z M60.471,40.139l0.51,0.117
				l-0.279,1.23l-0.511-0.119L60.471,40.139z M60.106,39.721l0.087-0.379l2.09,0.475l-0.596,2.633l-2.094-0.477l0.087-0.381
				 M58.766,42.521l0.087-0.383l3.083,0.701l0.737-3.273l-3.077-0.697l0.087-0.381l3.89,0.881l-0.916,4.035L58.766,42.521z"/>
			<path fill="#f2f2ed" d="M64.157,32.573l-5.362,0.005l0.004,4.794l5.363-0.008L64.157,32.573z M60.977,35.602v-1.26l0.521-0.001
				l0.002,1.261H60.977z M60.528,34.015v-0.393l2.142-0.001l0.007,2.699h-2.147v-0.39 M59.845,37.045v-0.393l3.161-0.004
				l-0.008-3.355l-3.158,0.003l-0.001-0.392l3.99-0.003l0.006,4.137L59.845,37.045z"/>
			<path fill="#f2f2ed" d="M63.956,30.814l-1.071-4.671l-5.226,1.2l1.072,4.672L63.956,30.814z M60.459,29.807l-0.28-1.231
				l0.509-0.115l0.281,1.229L60.459,29.807z M59.667,28.358l-0.085-0.383l2.088-0.478l0.606,2.631l-2.094,0.481l-0.088-0.383
				 M63.564,30.57l-3.889,0.891l-0.088-0.382l3.081-0.706l-0.754-3.27l-3.077,0.706l-0.087-0.379l3.887-0.893L63.564,30.57z"/>
			<path fill="#f2f2ed" d="M55.386,22.493l2.085,4.316l4.829-2.334l-2.084-4.315L55.386,22.493z M58.666,24.269l-0.549-1.136
				l0.47-0.228l0.549,1.137L58.666,24.269z M57.57,23.033l-0.168-0.353l1.929-0.93l1.177,2.426l-1.935,0.935l-0.171-0.351
				 M58.271,26.057l-0.171-0.354l2.846-1.372l-1.465-3.018l-2.841,1.371l-0.172-0.351l3.594-1.736l1.799,3.725L58.271,26.057z"/>
			<path fill="#f2f2ed" d="M52.091,18.269l2.992,3.742l4.19-3.348l-2.995-3.742L52.091,18.269z M55.683,19.269l-0.787-0.983
				l0.408-0.327l0.788,0.986L55.683,19.269z M54.341,18.31l-0.243-0.305l1.674-1.339l1.688,2.106l-1.678,1.34l-0.246-0.305
				 M55.696,21.105l-0.246-0.31l2.471-1.973l-2.099-2.616l-2.465,1.97l-0.244-0.304l3.113-2.493l2.585,3.232L55.696,21.105z"/>
			<path fill="#f2f2ed" d="M47.938,14.883l3.751,2.985l3.338-4.199l-3.753-2.984L47.938,14.883z M51.663,15.061l-0.986-0.786
				l0.325-0.408l0.987,0.784L51.663,15.061z M50.141,14.424l-0.304-0.246l1.332-1.676l2.115,1.676l-1.337,1.682l-0.308-0.241
				 M54.566,13.723l-2.482,3.122L51.776,16.6l1.97-2.473l-2.629-2.084l-1.966,2.471l-0.305-0.246l2.481-3.123L54.566,13.723z"/>
			<path fill="#f2f2ed" d="M43.138,12.506l4.321,2.074l2.318-4.832l-4.321-2.076L43.138,12.506z M46.808,11.853l-1.137-0.547
				l0.226-0.471l1.138,0.546L46.808,11.853z M45.183,11.569L44.83,11.4l0.928-1.931l2.435,1.163l-0.93,1.937L46.907,12.4
				 M49.341,9.9l-1.725,3.597l-0.357-0.17l1.371-2.849l-3.026-1.446l-1.365,2.845l-0.354-0.169l1.726-3.596L49.341,9.9z"/>
			<path fill="#f2f2ed" d="M37.928,11.261l4.674,1.059l1.187-5.229l-4.676-1.059L37.928,11.261z M41.36,9.804l-1.231-0.278
				l0.117-0.511l1.229,0.282L41.36,9.804z M39.711,9.889l-0.38-0.088l0.474-2.087l2.632,0.592l-0.477,2.097l-0.379-0.088
				 M43.396,7.34l-0.883,3.887l-0.383-0.086l0.7-3.083l-3.272-0.733l-0.698,3.077l-0.382-0.086l0.882-3.89L43.396,7.34z"/>
		</g>
	</g>
</g>
</svg>
