<?xml version="1.0" encoding="utf-8"?>
<!-- Generator: Adobe Illustrator 16.0.0, SVG Export Plug-In . SVG Version: 6.00 Build 0)  -->
<!DOCTYPE svg PUBLIC "-//W3C//DTD SVG 1.1//EN" "http://www.w3.org/Graphics/SVG/1.1/DTD/svg11.dtd">
<svg version="1.1" id="Layer_1" xmlns="http://www.w3.org/2000/svg" xmlns:xlink="http://www.w3.org/1999/xlink" x="0px" y="0px"
	 width="70px" height="70px" viewBox="0 0 70 70" enable-background="new 0 0 70 70" xml:space="preserve">
<g id="Seattle">
	<circle fill="#f2f2ed" cx="35" cy="34.999" r="35"/>
	<g>
		<path fill="#33332B" d="M35,4.749c16.68,0,30.25,13.57,30.25,30.25C65.25,51.68,51.68,65.25,35,65.25
			c-16.68,0-30.25-13.57-30.25-30.251C4.75,18.319,18.32,4.749,35,4.749 M35,2.749c-17.812,0-32.25,14.438-32.25,32.25
			C2.75,52.811,17.188,67.25,35,67.25c17.812,0,32.25-14.439,32.25-32.251C67.25,17.187,52.812,2.749,35,2.749L35,2.749z"/>
	</g>
	<g>
		<g>
			<defs>
				<circle id="SVGID_1_" cx="35" cy="34.999" r="32.25"/>
			</defs>
			<clipPath id="SVGID_2_">
				<use xlink:href="#SVGID_1_"  overflow="visible"/>
			</clipPath>
			<g clip-path="url(#SVGID_2_)">
				<path fill="#33332b" d="M44.829,56.811c0,0.16-0.128,0.289-0.288,0.289H25.615c-0.159,0-0.286-0.129-0.286-0.289v-1.136
					c0-0.157,0.127-0.286,0.286-0.286h18.926c0.16,0,0.288,0.129,0.288,0.286V56.811z"/>
				<path fill="#33332b" stroke="#E4E2DD" stroke-width="1.5" stroke-miterlimit="10" d="M34.782,56.093
					c-14.054,0-15.028-0.444-15.028,1.771c0,7.864,1.119,20.192,15.028,20.192c13.907,0,15.026-12.328,15.026-20.192
					C49.809,55.648,48.834,56.093,34.782,56.093z"/>
				<path fill="#33332b" d="M50.562,55.007c0,0.295-0.238,0.535-0.537,0.535H20.13c-0.296,0-0.536-0.24-0.536-0.535v-0.262
					c0-0.296,0.24-0.538,0.536-0.538h29.896c0.299,0,0.537,0.242,0.537,0.538V55.007z"/>
				<path fill="none" stroke="#333333" stroke-width="1.5" stroke-miterlimit="10" d="M49.659,32.18c0,0,7.293,0.234,7.293,3.188
					c0,4.353-6.988,7.473-13.14,7.473"/>
				<path fill="#33332b" d="M35.103,54.887h6.836c6.281-0.553-2.816,0.2-2.816-2.011c0-1.206,14.475-22.119,14.475-22.706
					s-0.274-0.603-1.606-0.603H35.103h-0.049H18.167c-1.332,0-1.608,0.023-1.608,0.603s14.474,21.5,14.474,22.706
					c0,2.211-9.097,1.458-2.814,2.011h6.835"/>
			</g>
		</g>
	</g>
	<g>
		<g>
			<defs>
				<circle id="SVGID_3_" cx="35" cy="34.999" r="33"/>
			</defs>
			<clipPath id="SVGID_4_">
				<use xlink:href="#SVGID_3_"  overflow="visible"/>
			</clipPath>
			<g clip-path="url(#SVGID_4_)">
				<path fill="#33332B" d="M35.228,15.887c-1.047,0-2.166-0.568-2.166-2.164c0-1.413,0.864-2.087,1.279-2.411
					c0.071-0.056,0.132-0.099,0.17-0.14c-0.001,0.001-0.002,0.001-0.003,0.001c-0.013,0-0.032-0.066-0.051-0.126
					c-0.899-0.931-0.819-2.019-0.714-2.529C32.8,7.25,33.138,5.695,33.154,5.626l0,0c-0.002,0,0.522-3.893,0.522-8.971
					c0-1.048,0.036-1.803,0.08-2.723c0.069-1.441,0.154-3.28,0.154-7.225c0-1.495-0.042-2.708-0.087-2.708c-0.008,0-0.016,0-0.024,0
					c-0.667,0-0.667-0.756-0.667-1.772c0-1.899,0.054-4.116,0.105-6.282c0.045-1.893,0.088-3.67,0.088-4.999
					c0-2.63-1.168-4.364-1.18-4.381L32-33.552v-36.763l1.854-0.71l1.055-0.654l0.052,0.046l1.09-1.077l-0.504,1.814l0.047,0.058
					l-0.084,0.085l-0.295,1.054L35-70.009v0.102v36.144c0,0.364,0.468,2.128,0.468,4.723c0,1.286,0.314,3.057,0.661,4.931
					c0.403,2.186,0.814,4.445,0.814,6.385c0,1.101-0.004,1.737-0.521,1.812c-0.034,0.411-0.065,1.19-0.065,2.668
					c0,3.939,0.119,5.729,0.217,7.168c0.06,0.899,0.111,1.676,0.111,2.732c0,4.429,0.572,8.973,0.578,9.018
					c0.008,0.018,0.369,1.572-0.568,2.843c0.107,0.51,0.193,1.596-0.7,2.526c-0.021,0.078-0.029,0.163-0.015,0.196
					c0-0.006,0.002-0.008,0.006-0.008c0.018,0,0.066,0.036,0.123,0.08c0.418,0.324,1.285,0.998,1.285,2.413
					C37.396,15.318,36.275,15.887,35.228,15.887z"/>
				<path fill="#f2f2ed" d="M35.065-71.015l-0.063,0.227L34.93-70.88L35.065-71.015 M34.825-71.015l0.104,0.134l-0.544,0.32
					L34-69.976v36.275c0,0,0.718,1.832,0.718,4.659c0,2.83,1.607,7.738,1.607,11.316c0,1.067,0.004,1.319-0.068,1.319
					c-0.065,0-0.118-0.201-0.194-0.201c-0.125,0-0.221,0.537-0.221,3.362c0,6.489,0.338,7.238,0.338,9.9
					c0,4.512,0.586,9.082,0.586,9.082s0.375,1.541-0.621,2.664c0,0,0.498,1.329-0.584,2.369c0,0-0.165,0.374-0.041,0.665
					c0.127,0.292,1.377,0.708,1.377,2.289s-1.295,1.664-1.668,1.664c-0.375,0-1.666-0.083-1.666-1.664
					c0-1.58,1.246-1.996,1.37-2.289c0.127-0.291-0.046-0.665-0.046-0.665C33.803,9.729,34.29,8.4,34.29,8.4
					c-0.998-1.123-0.648-2.664-0.648-2.664s0.535-3.903,0.535-9.082c0-2.662,0.234-3.411,0.234-9.9c0-2.826-0.147-3.362-0.314-3.362
					c-0.102,0-0.211,0.201-0.297,0.201c-0.097,0-0.167-0.252-0.167-1.319c0-3.578,0.377-8.486,0.377-11.316
					c0-2.828-1.01-4.659-1.01-4.659v-36.275l1.288-0.585L34.825-71.015 M37.055-74.406l-2.204,2.192l-0.559,0.352l-0.643,0.405
					l-1.202,0.551L32-70.655v0.679v36.275v0.297l-0.021,0.249c0.008,0.012,0.939,1.646,0.939,4.113c0,1.32-0.088,3.106-0.134,4.998
					c-0.052,2.169-0.128,4.412-0.128,6.318c0,0.882-0.011,1.948,0.713,2.241c0.028,0.425,0.047,1.117,0.047,2.239
					c0,3.932-0.088,5.718-0.157,7.154c-0.043,0.903-0.082,1.683-0.082,2.747c0,4.819-0.476,8.563-0.523,8.919
					c-0.059,0.313-0.274,1.772,0.557,3.056c-0.097,0.684-0.012,1.619,0.617,2.452c-0.493,0.41-1.267,1.206-1.267,2.641
					c0,1.618,1.046,2.664,2.666,2.664c1.621,0,2.667-1.045,2.667-2.664c0-1.439-0.778-2.235-1.273-2.646
					c0.626-0.834,0.707-1.769,0.605-2.452c0.817-1.272,0.597-2.715,0.528-3.054c-0.056-0.449-0.569-4.739-0.569-8.917
					c0-1.073-0.054-1.857-0.115-2.766c-0.096-1.432-0.215-3.213-0.215-7.135c0-1.171,0.02-1.884,0.043-2.316
					c0.537-0.357,0.537-1.272,0.537-2.164c0-1.985-0.422-4.268-0.83-6.476c-0.342-1.852-0.889-3.6-0.889-4.84
					c0-2.52,0.282-4.288-0.718-4.782v-34.844l0.733-1.825l0.418-0.304l-0.106-0.208L37.055-74.406L37.055-74.406z"/>
			</g>
		</g>
		<g>
			<defs>
				<circle id="SVGID_5_" cx="35" cy="34.999" r="33"/>
			</defs>
			<clipPath id="SVGID_6_">
				<use xlink:href="#SVGID_5_"  overflow="visible"/>
			</clipPath>
			<g clip-path="url(#SVGID_6_)">
				<path fill="#33332b" d="M35.125,107.77c-2.524,0-4.501-1.289-4.501-2.935c0-1.524,1.683-2.435,4.501-2.435
					c2.816,0,4.499,0.91,4.499,2.435C39.624,106.479,37.648,107.77,35.125,107.77z"/>
				<path fill="#f2f2ed" d="M35.125,102.9c2.21,0,3.999,0.591,3.999,1.935c0,1.342-1.788,2.435-3.999,2.435
					s-4.001-1.093-4.001-2.435C31.124,103.491,32.915,102.9,35.125,102.9 M35.125,101.9c-3.132,0-5.001,1.097-5.001,2.935
					c0,1.926,2.197,3.435,5.001,3.435c2.803,0,4.999-1.509,4.999-3.435C40.124,102.997,38.256,101.9,35.125,101.9L35.125,101.9z"/>
			</g>
		</g>
		<g>
			<defs>
				<circle id="SVGID_7_" cx="35" cy="34.999" r="33"/>
			</defs>
			<clipPath id="SVGID_8_">
				<use xlink:href="#SVGID_7_"  overflow="visible"/>
			</clipPath>
			<g clip-path="url(#SVGID_8_)">
				<path fill="#33332b" d="M35.125,79.406c-2.426,0-3.933-1.094-3.933-2.855c0-1.912,1.764-3.468,3.933-3.468
					s3.934,1.556,3.934,3.468C39.061,78.312,37.552,79.406,35.125,79.406z"/>
				<path fill="#f2f2ed" d="M35.125,73.583c1.896,0,3.434,1.328,3.434,2.968c0,1.637-1.537,2.355-3.434,2.355
					c-1.896,0-3.433-0.719-3.433-2.355C31.692,74.911,33.23,73.583,35.125,73.583 M35.125,72.583c-2.444,0-4.433,1.78-4.433,3.968
					c0,2.069,1.699,3.355,4.433,3.355c2.734,0,4.434-1.286,4.434-3.355C39.561,74.363,37.57,72.583,35.125,72.583L35.125,72.583z"/>
			</g>
		</g>
		<g>
			<defs>
				<circle id="SVGID_9_" cx="35" cy="34.999" r="33"/>
			</defs>
			<clipPath id="SVGID_10_">
				<use xlink:href="#SVGID_9_"  overflow="visible"/>
			</clipPath>
			<g clip-path="url(#SVGID_10_)">
				<path fill="#33332b" d="M35.125,26.487c-1.026,0-2.122-0.684-2.122-2.602c0-1.79,0.932-3.192,2.122-3.192
					c1.189,0,2.123,1.402,2.123,3.192C37.248,25.804,36.15,26.487,35.125,26.487z"/>
				<path fill="#f2f2ed" d="M35.125,21.193c0.896,0,1.623,1.206,1.623,2.692c0,1.487-0.727,2.102-1.623,2.102
					c-0.896,0-1.622-0.614-1.622-2.102C33.503,22.399,34.23,21.193,35.125,21.193 M35.125,20.193c-1.47,0-2.622,1.622-2.622,3.692
					c0,2.289,1.413,3.102,2.622,3.102s2.623-0.812,2.623-3.102C37.748,21.781,36.62,20.193,35.125,20.193L35.125,20.193z"/>
			</g>
		</g>
		<g>
			<defs>
				<circle id="SVGID_11_" cx="35" cy="34.999" r="33"/>
			</defs>
			<clipPath id="SVGID_12_">
				<use xlink:href="#SVGID_11_"  overflow="visible"/>
			</clipPath>
			<g clip-path="url(#SVGID_12_)">
				<path fill="#f2f2ed" d="M33.503,84.756c0,0.831,0.727,1.176,1.622,1.176c0.896,0,1.623-0.345,1.623-1.176
					s-0.727-1.506-1.623-1.506C34.23,83.25,33.503,83.925,33.503,84.756z"/>
			</g>
		</g>
		<g>
			<defs>
				<circle id="SVGID_13_" cx="35" cy="34.999" r="33"/>
			</defs>
			<clipPath id="SVGID_14_">
				<use xlink:href="#SVGID_13_"  overflow="visible"/>
			</clipPath>
			<g clip-path="url(#SVGID_14_)">
				<path fill="#333333" d="M35.125,82.835c-1.026,0-2.122-0.685-2.122-2.601c0-1.791,0.932-3.191,2.122-3.191
					c1.189,0,2.123,1.4,2.123,3.191C37.248,82.15,36.15,82.835,35.125,82.835z"/>
				<path fill="#E4E2DD" d="M35.125,77.543c0.896,0,1.623,1.204,1.623,2.691c0,1.484-0.727,2.101-1.623,2.101
					c-0.896,0-1.622-0.614-1.622-2.101C33.503,78.747,34.23,77.543,35.125,77.543 M35.125,76.543c-1.47,0-2.622,1.621-2.622,3.691
					c0,2.287,1.413,3.101,2.622,3.101s2.623-0.812,2.623-3.101C37.748,78.13,36.62,76.543,35.125,76.543L35.125,76.543z"/>
			</g>
		</g>
		<g>
			<defs>
				<circle id="SVGID_15_" cx="35" cy="34.999" r="33"/>
			</defs>
			<clipPath id="SVGID_16_">
				<use xlink:href="#SVGID_15_"  overflow="visible"/>
			</clipPath>
			<g clip-path="url(#SVGID_16_)">
				<circle fill="#333333" cx="35.188" cy="98.225" r="1.904"/>
				<path fill="#E4E2DD" d="M35.188,96.82c0.773,0,1.403,0.631,1.403,1.404c0,0.776-0.63,1.403-1.403,1.403
					c-0.777,0-1.404-0.627-1.404-1.403C33.783,97.451,34.41,96.82,35.188,96.82 M35.188,95.82c-1.326,0-2.404,1.078-2.404,2.404
					c0,1.325,1.079,2.403,2.404,2.403c1.326,0,2.403-1.078,2.403-2.403C37.591,96.898,36.514,95.82,35.188,95.82L35.188,95.82z"/>
			</g>
		</g>
		<g>
			<defs>
				<circle id="SVGID_17_" cx="35" cy="34.999" r="33"/>
			</defs>
			<clipPath id="SVGID_18_">
				<use xlink:href="#SVGID_17_"  overflow="visible"/>
			</clipPath>
			<g clip-path="url(#SVGID_18_)">
				<path fill="#333333" d="M36.686,91.451c-0.789,0-1.433-0.645-1.433-1.434c0-0.795,0.644-1.44,1.433-1.44
					c0.793,0,1.437,0.646,1.437,1.44C38.121,90.809,37.479,91.451,36.686,91.451z"/>
				<path fill="#E4E2DD" d="M36.686,89.077c0.517,0,0.937,0.422,0.937,0.94c0,0.517-0.42,0.934-0.937,0.934
					s-0.933-0.417-0.933-0.934C35.752,89.499,36.169,89.077,36.686,89.077 M36.686,88.077c-1.065,0-1.933,0.87-1.933,1.94
					c0,1.065,0.867,1.934,1.933,1.934c1.067,0,1.937-0.867,1.937-1.934C38.621,88.947,37.753,88.077,36.686,88.077L36.686,88.077z"
					/>
			</g>
		</g>
		<g>
			<defs>
				<circle id="SVGID_19_" cx="35" cy="34.999" r="33"/>
			</defs>
			<clipPath id="SVGID_20_">
				<use xlink:href="#SVGID_19_"  overflow="visible"/>
			</clipPath>
			<g clip-path="url(#SVGID_20_)">
				<circle fill="#333333" cx="33.878" cy="88.206" r="1.144"/>
				<path fill="#E4E2DD" d="M33.878,87.562c0.355,0,0.643,0.289,0.643,0.646c0,0.354-0.287,0.644-0.643,0.644
					s-0.644-0.289-0.644-0.644C33.234,87.852,33.522,87.562,33.878,87.562 M33.878,86.562c-0.907,0-1.644,0.737-1.644,1.646
					c0,0.905,0.737,1.644,1.644,1.644c0.906,0,1.644-0.737,1.644-1.644C35.521,87.3,34.784,86.562,33.878,86.562L33.878,86.562z"/>
			</g>
		</g>
	</g>
	<g>
		<g>
			<defs>
				<path id="SVGID_21_" d="M35.103,54.887h6.836c6.281-0.553-2.816,0.2-2.816-2.011c0-1.206,14.475-22.119,14.475-22.706
					s-0.274-0.603-1.606-0.603H35.103h-0.049H18.167c-1.332,0-1.608,0.023-1.608,0.603s14.474,21.5,14.474,22.706
					c0,2.211-9.097,1.458-2.814,2.011h6.835"/>
			</defs>
			<clipPath id="SVGID_22_">
				<use xlink:href="#SVGID_21_"  overflow="visible"/>
			</clipPath>
			<g clip-path="url(#SVGID_22_)">
				<g>
					<g id="_x30_53A3s_1_">
					</g>
					<circle fill="#E4E2DD" cx="23.846" cy="40.959" r="1.03"/>
					<circle fill="#E4E2DD" cx="28.346" cy="40.959" r="1.03"/>
					<circle fill="#E4E2DD" cx="32.846" cy="40.959" r="1.03"/>
					<circle fill="#E4E2DD" cx="37.346" cy="40.959" r="1.03"/>
					<circle fill="#E4E2DD" cx="41.846" cy="40.959" r="1.03"/>
					<circle fill="#E4E2DD" cx="46.346" cy="40.959" r="1.03"/>
					<circle fill="#E4E2DD" cx="50.846" cy="40.959" r="1.03"/>
					<circle fill="#E4E2DD" cx="55.346" cy="40.959" r="1.03"/>
					<circle fill="#E4E2DD" cx="59.846" cy="40.959" r="1.03"/>
					<circle fill="#E4E2DD" cx="21.596" cy="43.209" r="1.03"/>
					<circle fill="#E4E2DD" cx="26.096" cy="43.209" r="1.03"/>
					<circle fill="#E4E2DD" cx="30.596" cy="43.209" r="1.03"/>
					<circle fill="#E4E2DD" cx="35.096" cy="43.209" r="1.03"/>
					<circle fill="#E4E2DD" cx="39.596" cy="43.209" r="1.03"/>
					<circle fill="#E4E2DD" cx="44.096" cy="43.209" r="1.03"/>
					<circle fill="#E4E2DD" cx="48.596" cy="43.209" r="1.03"/>
					<circle fill="#E4E2DD" cx="53.096" cy="43.209" r="1.03"/>
					<circle fill="#E4E2DD" cx="57.596" cy="43.209" r="1.03"/>
					<circle fill="#E4E2DD" cx="23.846" cy="45.459" r="1.03"/>
					<circle fill="#E4E2DD" cx="28.346" cy="45.459" r="1.03"/>
					<circle fill="#E4E2DD" cx="32.846" cy="45.459" r="1.03"/>
					<circle fill="#E4E2DD" cx="37.346" cy="45.459" r="1.03"/>
					<circle fill="#E4E2DD" cx="41.846" cy="45.459" r="1.03"/>
					<circle fill="#E4E2DD" cx="46.346" cy="45.459" r="1.03"/>
					<circle fill="#E4E2DD" cx="50.846" cy="45.459" r="1.03"/>
					<circle fill="#E4E2DD" cx="55.346" cy="45.459" r="1.03"/>
					<circle fill="#E4E2DD" cx="59.846" cy="45.459" r="1.03"/>
					<circle fill="#E4E2DD" cx="21.596" cy="47.709" r="1.03"/>
					<circle fill="#E4E2DD" cx="19.346" cy="40.959" r="1.03"/>
					<circle fill="#E4E2DD" cx="17.096" cy="43.209" r="1.03"/>
					<circle fill="#E4E2DD" cx="19.346" cy="45.459" r="1.03"/>
					<circle fill="#E4E2DD" cx="14.846" cy="40.959" r="1.03"/>
					<circle fill="#E4E2DD" cx="12.596" cy="43.209" r="1.03"/>
					<circle fill="#E4E2DD" cx="14.846" cy="45.459" r="1.03"/>
					<circle fill="#E4E2DD" cx="12.596" cy="47.709" r="1.03"/>
					<circle fill="#E4E2DD" cx="26.096" cy="47.709" r="1.03"/>
					<circle fill="#E4E2DD" cx="30.596" cy="47.709" r="1.03"/>
					<circle fill="#E4E2DD" cx="35.096" cy="47.709" r="1.03"/>
					<circle fill="#E4E2DD" cx="39.596" cy="47.709" r="1.03"/>
					<circle fill="#E4E2DD" cx="44.096" cy="47.709" r="1.03"/>
					<circle fill="#E4E2DD" cx="48.596" cy="47.709" r="1.03"/>
					<circle fill="#E4E2DD" cx="53.096" cy="47.709" r="1.03"/>
					<circle fill="#E4E2DD" cx="57.596" cy="47.709" r="1.03"/>
					<circle fill="#E4E2DD" cx="64.346" cy="40.959" r="1.03"/>
					<circle fill="#E4E2DD" cx="55.032" cy="45.959" r="0.688"/>
					<circle fill="#E4E2DD" cx="23.846" cy="49.959" r="1.03"/>
					<circle fill="#E4E2DD" cx="28.346" cy="49.959" r="1.03"/>
					<circle fill="#E4E2DD" cx="32.846" cy="49.959" r="1.03"/>
					<circle fill="#E4E2DD" cx="37.346" cy="49.959" r="1.03"/>
					<circle fill="#E4E2DD" cx="41.846" cy="49.959" r="1.03"/>
					<circle fill="#E4E2DD" cx="46.346" cy="49.959" r="1.03"/>
					<circle fill="#E4E2DD" cx="50.846" cy="49.959" r="1.03"/>
					<circle fill="#E4E2DD" cx="55.346" cy="49.959" r="1.03"/>
					<circle fill="#E4E2DD" cx="21.596" cy="52.209" r="1.03"/>
					<circle fill="#E4E2DD" cx="26.096" cy="52.209" r="1.03"/>
					<circle fill="#E4E2DD" cx="30.596" cy="52.209" r="1.03"/>
					<circle fill="#E4E2DD" cx="35.096" cy="52.209" r="1.03"/>
					<circle fill="#E4E2DD" cx="39.596" cy="52.209" r="1.03"/>
					<circle fill="#E4E2DD" cx="44.096" cy="52.209" r="1.03"/>
					<circle fill="#E4E2DD" cx="48.596" cy="52.209" r="1.03"/>
					<circle fill="#E4E2DD" cx="53.096" cy="52.209" r="1.03"/>
					<circle fill="#E4E2DD" cx="57.596" cy="52.209" r="1.03"/>
				</g>
			</g>
		</g>
	</g>
	<g>
		<path fill="#333333" d="M51.99,30.567c0.074,0,0.158,0,0.244,0c-0.862,1.383-2.854,4.376-4.793,7.292
			c-8.096,12.166-9.318,14.231-9.318,15.017c0,0.394,0.111,0.728,0.304,1.011h-3.373h-3.325c0.193-0.283,0.304-0.617,0.304-1.011
			c0-0.786-1.227-2.858-9.35-15.067c-1.924-2.893-3.9-5.863-4.76-7.241c0.087,0,0.171,0,0.244,0h16.937L51.99,30.567 M51.99,29.567
			H35.103h-0.049H18.167c-1.332,0-1.608,0.023-1.608,0.603s14.474,21.5,14.474,22.706c0,2.211-9.097,1.458-2.814,2.011h6.835h0.049
			h6.836c6.281-0.553-2.816,0.2-2.816-2.011c0-1.206,14.475-22.119,14.475-22.706S53.322,29.567,51.99,29.567L51.99,29.567z"/>
	</g>
</g>
</svg>
