<?xml version="1.0" encoding="utf-8"?>
<!-- Generator: Adobe Illustrator 16.0.0, SVG Export Plug-In . SVG Version: 6.00 Build 0)  -->
<!DOCTYPE svg PUBLIC "-//W3C//DTD SVG 1.1//EN" "http://www.w3.org/Graphics/SVG/1.1/DTD/svg11.dtd">
<svg version="1.1" id="Layer_1" xmlns="http://www.w3.org/2000/svg" xmlns:xlink="http://www.w3.org/1999/xlink" x="0px" y="0px"
	 width="18px" height="17.018px" viewBox="38.71 36.598 18 17.018" enable-background="new 38.71 36.598 18 17.018"
	 xml:space="preserve">
<path fill="#33332B" d="M39.899,53.615c-0.657-0.001-1.188-0.532-1.189-1.188l0,0V40.067c0-0.657,0.532-1.188,1.189-1.188l0,0h6.373
	l-1.698,1.698h-4.166v11.34l10.841,0.001v-2.28l1.698-1.698l-0.001,4.487c0,0.656-0.531,1.188-1.188,1.188l0,0H39.899L39.899,53.615
	z"/>
<path fill="#33332B" d="M51.193,38.729v-2.132l5.518,5.518l-5.541,5.541V45.44c0,0-2.751-0.546-5.581,1.218
	c-1.548,0.959-2.594,2.221-3.238,3.215c0,0,0.209-3.442,2.19-6.579C47.017,39.374,51.193,38.729,51.193,38.729z"/>
</svg>
