<?xml version="1.0" encoding="utf-8"?>
<!-- Generator: Adobe Illustrator 16.0.0, SVG Export Plug-In . SVG Version: 6.00 Build 0)  -->
<!DOCTYPE svg PUBLIC "-//W3C//DTD SVG 1.1//EN" "http://www.w3.org/Graphics/SVG/1.1/DTD/svg11.dtd">
<svg version="1.1" xmlns="http://www.w3.org/2000/svg" xmlns:xlink="http://www.w3.org/1999/xlink" x="0px" y="0px" width="31px"
	 height="31px" viewBox="0 0 31 31" enable-background="new 0 0 31 31" xml:space="preserve">
<g id="Default">
	<circle fill="#FFFFFF" cx="15.5" cy="15.5" r="15.5"/>
</g>
<g id="Layer_2">
	<g>
		<path fill="#7cd7eb" d="M13.861,22.898c-0.613-1.106-1.084-1.921-1.413-2.44l-0.524-0.82l-0.396-0.604
			c-0.863-1.344-1.762-2.453-2.698-3.33c0.533-0.441,1.032-0.662,1.492-0.662c0.567,0,1.07,0.208,1.511,0.623
			c0.442,0.416,0.999,1.206,1.67,2.371c0.765-2.483,1.736-4.837,2.915-7.064c0.652-1.212,1.233-2.027,1.744-2.445
			c0.511-0.418,1.188-0.628,2.031-0.628c0.447,0,1,0.069,1.66,0.208c-1.693,1.364-3.048,2.984-4.062,4.862
			C16.779,14.845,15.468,18.154,13.861,22.898z"/>
	</g>
</g>

</svg>
