<?xml version="1.0" encoding="utf-8"?>
<!DOCTYPE svg PUBLIC "-//W3C//DTD SVG 1.1//EN" "http://www.w3.org/Graphics/SVG/1.1/DTD/svg11.dtd">
<svg version="1.1" xmlns="http://www.w3.org/2000/svg" xmlns:xlink="http://www.w3.org/1999/xlink" x="0px" y="0px" width="70px"
	 height="70px" viewBox="0 0 70 70" enable-background="new 0 0 70 70" xml:space="preserve">
<g id="Tokyo">
	<circle fill="#f2f2ed" cx="35" cy="35" r="35"/>
	<path fill="#33332B" d="M60.835,31.116c0.189,1.268,0.29,2.564,0.29,3.884c0,13.112-9.711,26.731-22.318,29.071
		c0.095,0.438,0.183,0.833,0.263,1.18C54.005,63.26,65.529,50.479,65.529,35c0-1.307-0.092-2.591-0.251-3.855
		C64.564,31.116,62.962,31.069,60.835,31.116z"/>
	<path fill="#33332B" d="M8.874,35c0-1.321,0.101-2.619,0.291-3.888c-2.227-0.045-3.853,0.013-4.445,0.04
		C4.561,32.414,4.47,33.696,4.47,35c0,15.344,11.322,28.04,26.066,30.201c0.082-0.354,0.172-0.76,0.268-1.207
		C18.386,61.448,8.874,47.977,8.874,35z"/>
	<path fill="#33332B" d="M64.546,27.354c-0.29-1.12-0.634-2.217-1.044-3.283c-3.393,0.381-17.854,2.31-25.463,8.214
		c7.596-5.895,21.819-8.349,25.192-8.863c-0.943-2.295-2.158-4.448-3.606-6.422c-3.719,1.312-14.515,5.394-21.586,10.881
		c6.944-5.389,17.261-9.974,21.073-11.579c-1.307-1.68-2.794-3.211-4.419-4.585c-2.734,1.301-9.846,4.901-16.654,10.185
		c6.517-5.057,13.14-9.053,16.019-10.72c-1.83-1.463-3.829-2.724-5.967-3.741c-1.189,1.015-4.047,3.382-10.052,8.042
		c5.762-4.471,8.143-7.171,9.097-8.483c-2.277-0.989-4.692-1.72-7.219-2.129c-2.618,0.068-3.67,3.03-3.98,4.201
		c-0.263,1.099-0.512,3.051-0.356,6.395c0.068,1.444-0.018,1.79-0.331,1.803c-0.458,0.019-0.406-1.803-0.406-1.803
		c0.142-3.021-0.049-4.908-0.281-6.055c-0.175-0.818-1.157-4.524-4.393-4.554c-2.551,0.406-4.99,1.141-7.289,2.137
		c0.951,1.31,3.331,4.012,9.102,8.49c-6.02-4.671-8.876-7.038-10.06-8.048c-2.141,1.018-4.143,2.274-5.974,3.74
		c2.87,1.662,9.504,5.662,16.033,10.728c-6.84-5.308-13.986-8.917-16.692-10.203c-1.622,1.373-3.091,2.917-4.396,4.597
		c3.802,1.6,14.135,6.189,21.088,11.585c-7.089-5.501-17.918-9.589-21.612-10.891c-1.447,1.976-2.653,4.133-3.597,6.429
		c3.343,0.508,17.599,2.96,25.208,8.865c-7.612-5.907-22.081-7.835-25.467-8.215c-0.313,0.817-0.594,1.649-0.842,2.496
		c-0.014,0.063-0.018,0.11-0.04,0.187c-0.542,1.974,0.129,2.493,0.492,2.629l3.452-0.006c0,0,22.618-0.124,24.559,12.721
		c0,0-0.727,16.032-1.481,21.299c0.021,0.072,0.027,0.435,0,0.635c-0.25,1.915,0.91,1.968,0.91,1.968h2.523
		c0,0,0.911-0.298,0.911-2.213c0-0.003,0-0.004,0-0.007c-1-5.715-1.351-21.682-1.351-21.682
		C37.438,30.271,57.364,29.44,60.51,29.382l3.238-0.005C63.943,29.349,64.836,29.115,64.546,27.354z"/>
</g>
</svg>
