<?xml version="1.0" encoding="utf-8"?>
<!-- Generator: Adobe Illustrator 16.0.0, SVG Export Plug-In . SVG Version: 6.00 Build 0)  -->
<!DOCTYPE svg PUBLIC "-//W3C//DTD SVG 1.1//EN" "http://www.w3.org/Graphics/SVG/1.1/DTD/svg11.dtd">
<svg version="1.1" xmlns="http://www.w3.org/2000/svg" xmlns:xlink="http://www.w3.org/1999/xlink" x="0px" y="0px" width="70px"
	 height="70px" viewBox="0 0 70 70" enable-background="new 0 0 70 70" xml:space="preserve">
<g id="D.C.">
	<circle fill="#f2f2ed" cx="35" cy="34.999" r="35"/>
	<g>
		<circle fill="#f2f2ed" cx="35" cy="35" r="30.53"/>
		<path fill="#33332B" d="M35,4.469C18.139,4.469,4.47,18.138,4.47,35c0,16.86,13.669,30.529,30.53,30.529
			c16.86,0,30.529-13.669,30.529-30.529C65.529,18.138,51.86,4.469,35,4.469L35,4.469z"/>
	</g>
	<path fill="#f2f2ed" d="M16.851,8.006l-5.789,47.202l-5.525-7L1.684,33.41l3.545-9.874c0,0,3.552-8.022,4.039-8.639"/>
	<g>
		<defs>
			<circle id="SVGID_3_" cx="35" cy="35" r="30.53"/>
		</defs>
		<defs>
			<path id="SVGID_4_" d="M35,4.469C18.139,4.469,4.47,18.138,4.47,35c0,16.86,13.669,30.529,30.53,30.529
				c16.86,0,30.529-13.669,30.529-30.529C65.529,18.138,51.86,4.469,35,4.469L35,4.469z"/>
		</defs>
		<clipPath id="SVGID_5_">
			<use xlink:href="#SVGID_3_"  overflow="visible"/>
		</clipPath>
		<clipPath id="SVGID_6_" clip-path="url(#SVGID_5_)">
			<use xlink:href="#SVGID_4_"  overflow="visible"/>
		</clipPath>
		<g clip-path="url(#SVGID_6_)">
			<g>
				<polyline fill="none" stroke="#f2f2ed" stroke-miterlimit="10" points="18.84,-5.282 64.059,25.423 38.914,87.5 				"/>
				<path fill="none" stroke="#f2f2ed" stroke-miterlimit="10" d="M48.604,15.12l15.455-17.5c0,0-38.684-30.703-40.617-38.681
					L7.245,84.896"/>
			</g>
		</g>
		
			<line clip-path="url(#SVGID_6_)" fill="none" stroke="#33332B" stroke-miterlimit="10" x1="15.618" y1="30.207" x2="0.91" y2="21.273"/>
	</g>
	<g>
		<path fill="#33332B" d="M22.748,8.123l-6.486,49.7C9.475,52.237,5.47,43.828,5.47,35C5.47,23.473,12.347,12.882,22.748,8.123
			 M23.965,6.524C12.558,10.948,4.47,22.029,4.47,35c0,10.143,4.946,19.13,12.558,24.682L23.965,6.524L23.965,6.524z"/>
	</g>
	<g>
		<g>
			<path fill="#33332B" d="M42.584,46.629c-2.439,0-5.139-0.647-8.021-1.925c-2.754-1.221-5.32-1.839-7.626-1.839
				c-3.809,0-5.617,1.721-5.635,1.738l-0.845,0.824l-0.014-3.412l0.149-0.147c0.083-0.082,2.093-2.025,6.348-2.025
				c2.449,0,5.152,0.647,8.035,1.924c2.754,1.221,5.317,1.84,7.615,1.84c3.794,0,5.581-1.72,5.599-1.737l0.851-0.839l0.002,3.424
				L48.895,44.6C48.812,44.683,46.824,46.629,42.584,46.629z"/>
			<path fill="#f2f2ed" d="M26.939,40.343c2.049,0,4.647,0.47,7.833,1.881c3.187,1.412,6.008,1.883,8.047,1.883
				c4.08,0,6.182-1.883,6.182-1.883v2.023c0,0-2.104,1.882-6.186,1.882c-2.041,0-4.748-0.471-7.934-1.882
				c-3.187-1.412-5.84-1.882-7.887-1.882c-4.093,0-6.015,1.882-6.015,1.882l-0.022-2.023C20.958,42.224,22.841,40.343,26.939,40.343
				 M26.939,39.343c-4.458,0-6.61,2.082-6.7,2.171l-0.297,0.295l0.001,0.419l0.007,2.023l0.009,2.392l1.696-1.687
				c0.062-0.059,1.705-1.591,5.281-1.591c2.236,0,4.734,0.604,7.424,1.796c2.947,1.306,5.714,1.968,8.224,1.968
				c4.446,0,6.807-2.087,6.895-2.176L50,44.66v-0.413v-2.023V39.8l-1.939,1.719c-0.061,0.059-1.798,1.588-5.356,1.588
				c-2.229,0-4.779-0.604-7.47-1.797C32.288,40.004,29.458,39.343,26.939,39.343L26.939,39.343z"/>
		</g>
		<g>
			<path fill="#33332B" d="M42.584,42.646c-2.439,0-5.139-0.647-8.021-1.925c-2.754-1.22-5.32-1.839-7.626-1.839
				c-3.809,0-5.617,1.721-5.635,1.738l-0.845,0.824l-0.014-3.411l0.149-0.147c0.083-0.082,2.093-2.026,6.348-2.026
				c2.449,0,5.152,0.647,8.035,1.924c2.754,1.221,5.316,1.839,7.615,1.839c3.827,0,5.56-1.717,5.577-1.734L49,37.03v3.44
				l-0.125,0.146C48.791,40.7,46.824,42.646,42.584,42.646z"/>
			<path fill="#f2f2ed" d="M26.939,36.36c2.049,0,4.647,0.471,7.833,1.882c3.187,1.412,6.008,1.882,8.047,1.882
				c4.08,0,6.182-1.882,6.182-1.882v2.022c0,0-2.104,1.882-6.186,1.882c-2.041,0-4.748-0.471-7.934-1.882
				c-3.187-1.411-5.84-1.882-7.887-1.882c-4.093,0-6.015,1.882-6.015,1.882l-0.022-2.022C20.958,38.242,22.841,36.36,26.939,36.36
				 M26.939,35.361c-4.458,0-6.61,2.083-6.7,2.171l-0.297,0.295l0.001,0.419l0.007,2.022l0.009,2.392l1.696-1.687
				c0.062-0.059,1.705-1.591,5.281-1.591c2.236,0,4.734,0.604,7.424,1.796c2.947,1.306,5.713,1.968,8.223,1.968
				c4.446,0,6.807-2.087,6.895-2.176L50,40.678v-0.413v-2.022v-2.423l-1.939,1.718c-0.061,0.058-1.798,1.587-5.356,1.587
				c-2.229,0-4.779-0.604-7.47-1.796C32.288,36.022,29.458,35.361,26.939,35.361L26.939,35.361z"/>
		</g>
		<g>
			<path fill="#33332B" d="M42.589,38.634c-2.438,0-5.137-0.647-8.02-1.925c-2.742-1.215-5.297-1.831-7.594-1.831
				c-3.825,0-5.635,1.741-5.653,1.759l-0.857,0.845l0.055-11.948l0.146-0.146c0.083-0.083,2.067-2.016,6.296-2.016
				c2.445,0,5.149,0.649,8.039,1.929c2.753,1.22,5.313,1.839,7.607,1.839c3.785,0,5.561-1.718,5.578-1.735l0.852-0.846l0.002,3.716
				l-0.146,0.146c-0.082,0.083-2.067,2.029-6.306,2.029c-2.438,0-5.137-0.647-8.02-1.925c-0.79-0.35-1.536-0.642-2.262-0.885
				l0.008,0.969c0.842,0.269,1.716,0.605,2.659,1.023c2.754,1.22,5.316,1.839,7.615,1.839c3.795,0,5.581-1.719,5.599-1.736
				l0.851-0.84l0.002,3.423l-0.146,0.146c-0.083,0.083-2.07,2.029-6.311,2.029c-2.439,0-5.138-0.647-8.021-1.925
				c-0.822-0.364-1.546-0.651-2.231-0.883l-0.003,0.973c0.83,0.265,1.699,0.599,2.645,1.017c2.755,1.221,5.317,1.84,7.615,1.84
				c3.795,0,5.581-1.719,5.599-1.736l0.851-0.84l0.002,3.519l-0.146,0.146C48.812,36.688,46.827,38.634,42.589,38.634z"/>
			<path fill="#f2f2ed" d="M26.953,23.871c2.044,0,4.646,0.471,7.841,1.886c3.185,1.411,6.006,1.882,8.042,1.882
				c4.071,0,6.164-1.882,6.164-1.882v0.206v2.105c0,0-2.102,1.882-6.182,1.882c-2.039,0-4.745-0.47-7.932-1.882
				c-1.058-0.469-2.097-0.834-3.028-1.113l-0.011,2.023c0.929,0.279,1.883,0.643,2.938,1.111c3.186,1.412,6,1.882,8.041,1.882
				c4.08,0,6.174-1.882,6.174-1.882v2.023c0,0-2.105,1.882-6.186,1.882c-2.041,0-4.748-0.47-7.934-1.882
				c-1.055-0.467-2.06-0.832-2.989-1.11l-0.036,2.025c0.927,0.277,1.875,0.641,2.929,1.106c3.186,1.412,6,1.883,8.041,1.883
				c4.08,0,6.174-1.883,6.174-1.883v2.014v0.104c0,0-2.102,1.882-6.182,1.882c-2.039,0-4.745-0.47-7.932-1.882
				c-3.171-1.404-5.814-1.874-7.854-1.874c-4.11,0-6.045,1.904-6.045,1.904L21,26.072V25.74C21,25.74,22.882,23.871,26.953,23.871
				 M26.963,22.871L26.963,22.871c-4.435,0-6.572,2.074-6.66,2.162L20,25.326v0.415v0.332l-0.041,10.205l-0.007,2.439l1.724-1.729
				c0.062-0.059,1.708-1.609,5.297-1.609c2.227,0,4.715,0.602,7.393,1.788c2.947,1.306,5.714,1.968,8.223,1.968
				c4.443,0,6.801-2.088,6.89-2.177L50,36.665v-0.413v-0.104v-2.014v-1.608v-0.413v-2.023V28.48v-0.413v-2.105v-0.206v-2.435
				l-1.941,1.731c-0.061,0.058-1.786,1.585-5.335,1.585c-2.224,0-4.772-0.604-7.462-1.796
				C32.308,23.534,29.478,22.871,26.963,22.871L26.963,22.871z M42.589,30.972c-0.699,0-1.426-0.06-2.175-0.178
				c0.744,0.104,1.47,0.156,2.175,0.156c0.666,0,1.28-0.047,1.843-0.127C43.888,30.915,43.274,30.972,42.589,30.972L42.589,30.972z
				 M42.589,35.016c-0.689,0-1.405-0.058-2.145-0.173c0.732,0.101,1.446,0.151,2.14,0.151c0.679,0,1.304-0.049,1.876-0.131
				C43.908,34.958,43.286,35.016,42.589,35.016L42.589,35.016z"/>
		</g>
	</g>
</g>
</svg>
